{
.appVersion = "1300";
DisplayStrings = (
"nmurhklijbpoc\012n/Placeholder/Placeholder n/Placeholder n/Placeholder/Placeholder o/Placeholder/Placeholder oo/Placeholder o/space \012eqdafstgvwxyz/space"
);
date = "2020-02-06 08:09:08 +0000";
familyName = Scaled;
featurePrefixes = (
{
automatic = 1;
code = "languagesystem DFLT dflt;\012\012languagesystem dev2 dflt;\012\012languagesystem deva dflt;\012\012languagesystem limb dflt;\012languagesystem limb LMB;\012";
name = Languagesystems;
}
);
features = (
{
automatic = 1;
code = "feature subs;\012feature sinf;\012feature onum;\012feature salt;\012feature ss01;\012";
name = aalt;
},
{
automatic = 1;
code = "feature subs;\012feature sinf;\012feature onum;\012feature salt;\012feature ss01;\012feature calt;\012";
name = aalt;
},
{
code = "lookup Devaspace {\012\012	script dev2;\012		sub space by spacedeva;\012		\012} Devaspace;\012\012\012	lookup Devaspace1 {\012	script deva;\012		sub space by spacedeva;\012		\012} Devaspace1;";
disabled = 1;
name = locl;
},
{
automatic = 1;
code = "sub parenleft by parenleftinferior;\012sub parenright by parenrightinferior;\012";
name = subs;
},
{
automatic = 1;
code = "sub parenleft by parenleftinferior;\012sub parenright by parenrightinferior;\012";
name = sinf;
},
{
code = "	script limb;\012		\012		language LMB;\012			lookup Combiningaccent {\012				sub i-limbu ka-limbu.small by ika-limbu.small\012			} Combiningaccent;\012			";
disabled = 1;
name = liga;
},
{
code = "	script limb;\012		\012		language LMB;\012			lookup Limbu {\012				sub i-limbu ka-limbu.small by ika-limbu.small\012			} Limbu;\012			";
disabled = 1;
name = ccmp;
},
{
automatic = 1;
code = "sub zero by zero.osf;\012sub one by one.osf;\012sub two by two.osf;\012sub three by three.osf;\012sub four by four.osf;\012sub five by five.osf;\012sub six by six.osf;\012sub seven by seven.osf;\012sub eight by eight.osf;\012sub nine by nine.osf;\012";
name = onum;
},
{
automatic = 1;

glyphs = (
{
glyphname = A;
lastChange = "2020-02-19 17:48:43 +0000";
layers = (
{
layerId = "6B6AD122-EF8D-49FE-8C69-4BDE8C56BDD8";
paths = (
{
closed = 1;
nodes = (
"247 0 LINE",
"257 39 LINE",
"257 53 LINE",
"229 110 OFFCURVE",
"236 134 OFFCURVE",
"258 203 CURVE SMOOTH",
"310 369 LINE",
"669 369 LINE",
"727 203 LINE SMOOTH",
"751 134 OFFCURVE",
"747 114 OFFCURVE",
"727 59 CURVE",
"727 44 LINE",
"737 5 LINE",
"1093 0 LINE",
"1105 50 LINE",
"1105 64 LINE",
"1046 121 OFFCURVE",
"993 186 OFFCURVE",
"967 257 CURVE SMOOTH",
"619 1187 LINE",
"588 1196 LINE",
"407 1117 LINE",
"106 230 LINE SMOOTH",
"85 168 OFFCURVE",
"53 121 OFFCURVE",
"-5 61 CURVE",
"-5 47 LINE",
"8 0 LINE"
);
},
{
closed = 1;
nodes = (
"479 908 LINE",
"620 508 LINE",
"354 508 LINE"
);
}
);
width = 1100;
},
{
layerId = "34301EF7-A2BE-469F-9697-D6100B11FDFE";
paths = (
{
closed = 1;
nodes = (
"749 520 LINE",
"342 520 LINE",
"320 456 LINE",
"773 456 LINE"
);
},
{
closed = 1;
nodes = (
"892 138 LINE SMOOTH",
"916 77 OFFCURVE",
"871 49 OFFCURVE",
"761 38 CURVE",
"758 33 LINE",
"763 0 LINE",
"1149 0 LINE",
"1153 34 LINE",
"1150 38 LINE",
"1108 50 OFFCURVE",
"1055 84 OFFCURVE",
"1033 136 CURVE SMOOTH",
"596 1185 LINE",
"581 1191 LINE",
"503 1153 LINE",
"129 136 LINE SMOOTH",
"107 77 OFFCURVE",
"54 50 OFFCURVE",
"12 38 CURVE",
"10 34 LINE",
"14 0 LINE",
"333 0 LINE",
"338 34 LINE",
"335 38 LINE",
"228 49 OFFCURVE",
"182 77 OFFCURVE",
"204 138 CURVE SMOOTH",
"555 1090 LINE",
"521 1090 LINE"
);
}
);
width = 1163;
},
{
layerId = "CFF67ECA-3B2D-433B-B605-F38590C8F106";
paths = (
{
closed = 1;
nodes = (
"696 523 LINE",
"348 523 LINE",
"313 413 LINE",
"738 413 LINE"
);
},
{
closed = 1;
nodes = (
"601 1185 LINE",
"475 1185 LINE",
"503 992 LINE",
"827 188 LINE SMOOTH",
"857 113 OFFCURVE",
"830 80 OFFCURVE",
"747 50 CURVE",
"742 41 LINE",
"749 0 LINE",
"1129 0 LINE",
"1132 43 LINE",
"1128 52 LINE",
"1084 76 OFFCURVE",
"1033 122 OFFCURVE",
"1007 186 CURVE SMOOTH",
"602 1185 LINE"
);
},
{
closed = 1;
nodes = (
"475 1185 LINE",
"122 186 LINE SMOOTH",
"96 113 OFFCURVE",
"53 76 OFFCURVE",
"9 50 CURVE",
"5 41 LINE",
"9 0 LINE",
"329 0 LINE",
"333 41 LINE",
"330 48 LINE",
"245 79 OFFCURVE",
"221 112 OFFCURVE",
"247 188 CURVE SMOOTH",
"524 992 LINE"
);
}
);
width = 1137;
}
);
unicode = 0041;
},
{
glyphname = B;
lastChange = "2020-02-13 14:30:40 +0000";
layers = (
{
hints = (
{
origin = "{0, 14}";
scale = "{0.96, 0.96}";
type = Corner;
name = _corner.CapRightSerif;
},
{
origin = "{0, 15}";
scale = "{0.96, 0.96}";
type = Corner;
name = _corner.CapLeftSerif;
}
);
layerId = "6B6AD122-EF8D-49FE-8C69-4BDE8C56BDD8";
paths = (
{
closed = 1;
nodes = (
"587 0 LINE SMOOTH",
"868 0 OFFCURVE",
"1047 87 OFFCURVE",
"1047 289 CURVE SMOOTH",
"1047 407 OFFCURVE",
"988 530 OFFCURVE",
"771 587 CURVE",
"771 598 LINE",
"906 653 OFFCURVE",
"985 759 OFFCURVE",
"985 878 CURVE SMOOTH",
"985 1007 OFFCURVE",
"894 1152 OFFCURVE",
"649 1153 CURVE SMOOTH",
"161 1155 LINE",
"161 0 LINE"
);
},
{
closed = 1;
nodes = (
"424 141 OFFCURVE",
"403 166 OFFCURVE",
"403 242 CURVE SMOOTH",
"403 503 LINE",
"464 512 OFFCURVE",
"499 514 OFFCURVE",
"528 514 CURVE SMOOTH",
"699 514 OFFCURVE",
"787 439 OFFCURVE",
"787 315 CURVE SMOOTH",
"787 222 OFFCURVE",
"743 141 OFFCURVE",
"568 141 CURVE SMOOTH",
"465 141 LINE SMOOTH"
);
},
{
closed = 1;
nodes = (
"477 651 OFFCURVE",
"447 651 OFFCURVE",
"403 659 CURVE",
"403 1011 LINE",
"520 1011 LINE SMOOTH",
"684 1011 OFFCURVE",
"728 916 OFFCURVE",
"728 825 CURVE SMOOTH",
"728 744 OFFCURVE",
"698 651 OFFCURVE",
"541 651 CURVE SMOOTH"
);
}
);
width = 1132;
},
{
hints = (
{
origin = "{0, 14}";
scale = "{0.67479, 0.67479}";
type = Corner;
name = _corner.CapRightSerif;
},
{
origin = "{0, 15}";
scale = "{0.67479, 0.67479}";
type = Corner;
name = _corner.CapLeftSerif;
}
);
layerId = "34301EF7-A2BE-469F-9697-D6100B11FDFE";
paths = (
{
closed = 1;
nodes = (
"536 0 LINE SMOOTH",
"844 0 OFFCURVE",
"950 164 OFFCURVE",
"950 316 CURVE SMOOTH",
"950 444 OFFCURVE",
"873 569 OFFCURVE",
"664 592 CURVE",
"664 597 LINE",
"806 659 OFFCURVE",
"878 775 OFFCURVE",
"878 883 CURVE SMOOTH",
"878 1028 OFFCURVE",
"747 1155 OFFCURVE",
"539 1155 CURVE SMOOTH",
"210 1155 LINE",
"210 0 LINE"
);
},
{
closed = 1;
nodes = (
"375 60 OFFCURVE",
"329 86 OFFCURVE",
"329 174 CURVE SMOOTH",
"329 550 LINE",
"379 555 OFFCURVE",
"430 555 OFFCURVE",
"470 555 CURVE SMOOTH",
"763 555 OFFCURVE",
"815 424 OFFCURVE",
"815 312 CURVE SMOOTH",
"815 200 OFFCURVE",
"762 60 OFFCURVE",
"546 60 CURVE SMOOTH",
"417 60 LINE SMOOTH"
);
},
{
closed = 1;
nodes = (
"448 605 OFFCURVE",
"388 605 OFFCURVE",
"329 611 CURVE",
"329 1095 LINE",
"512 1095 LINE SMOOTH",
"693 1095 OFFCURVE",
"743 977 OFFCURVE",
"743 869 CURVE SMOOTH",
"743 753 OFFCURVE",
"683 605 OFFCURVE",
"477 605 CURVE SMOOTH"
);
}
);
width = 1035;
},
{
hints = (
{
origin = "{0, 15}";
type = Corner;
name = _corner.CapLeftSerif;
},
{
origin = "{0, 14}";
type = Corner;
name = _corner.CapRightSerif;
}
);
layerId = "CFF67ECA-3B2D-433B-B605-F38590C8F106";
paths = (
{
closed = 1;
nodes = (
"676 0 LINE SMOOTH",
"891 0 OFFCURVE",
"1040 142 OFFCURVE",
"1040 318 CURVE SMOOTH",
"1040 442 OFFCURVE",
"965 565 OFFCURVE",
"755 589 CURVE",
"755 595 LINE",
"895 650 OFFCURVE",
"977 765 OFFCURVE",
"977 889 CURVE SMOOTH",
"977 1027 OFFCURVE",
"880 1153 OFFCURVE",
"642 1154 CURVE SMOOTH",
"249 1155 LINE",
"249 0 LINE"
);
},
{
closed = 1;
nodes = (
"445 104 OFFCURVE",
"409 129 OFFCURVE",
"409 212 CURVE SMOOTH",
"409 529 LINE",
"459 534 OFFCURVE",
"518 534 OFFCURVE",
"528 534 CURVE SMOOTH",
"825 534 OFFCURVE",
"870 430 OFFCURVE",
"870 327 CURVE SMOOTH",
"870 225 OFFCURVE",
"826 104 OFFCURVE",
"590 104 CURVE SMOOTH",
"479 104 LINE SMOOTH"
);
},
{
closed = 1;
nodes = (
"552 636 OFFCURVE",
"480 635 OFFCURVE",
"409 646 CURVE",
"409 1051 LINE",
"573 1051 LINE SMOOTH",
"725 1051 OFFCURVE",
"812 983 OFFCURVE",
"812 851 CURVE SMOOTH",
"812 752 OFFCURVE",
"762 642 OFFCURVE",
"583 637 CURVE SMOOTH"
);
}
);
width = 1135;
}
);
leftMetricsKey = H;
unicode = 0042;
},
{
glyphname = C;
lastChange = "2020-02-13 14:30:57 +0000";
layers = (
{
layerId = "6B6AD122-EF8D-49FE-8C69-4BDE8C56BDD8";
paths = (
{
closed = 1;
nodes = (
"753 -30 OFFCURVE",
"890 -14 OFFCURVE",
"1031 21 CURVE",
"1043 296 LINE",
"941 300 LINE",
"897 214 OFFCURVE",
"819 120 OFFCURVE",
"680 120 CURVE SMOOTH",
"468 120 OFFCURVE",
"343 327 OFFCURVE",
"343 603 CURVE SMOOTH",
"343 875 OFFCURVE",
"458 1029 OFFCURVE",
"630 1029 CURVE SMOOTH",
"777 1029 OFFCURVE",
"859 919 OFFCURVE",
"894 843 CURVE",
"986 847 LINE",
"986 1137 LINE",
"879 1170 OFFCURVE",
"777 1185 OFFCURVE",
"703 1185 CURVE SMOOTH",
"397 1185 OFFCURVE",
"80 937 OFFCURVE",
"80 554 CURVE SMOOTH",
"80 206 OFFCURVE",
"323 -30 OFFCURVE",
"663 -30 CURVE SMOOTH"
);
}
);
width = 1148;
},
{
layerId = "34301EF7-A2BE-469F-9697-D6100B11FDFE";
paths = (
{
closed = 1;
nodes = (
"739 -30 OFFCURVE",
"889 5 OFFCURVE",
"980 53 CURVE",
"1023 390 LINE",
"982 390 LINE",
"917 73 OFFCURVE",
"749 31 OFFCURVE",
"634 31 CURVE SMOOTH",
"349 31 OFFCURVE",
"218 309 OFFCURVE",
"218 606 CURVE SMOOTH",
"218 900 OFFCURVE",
"377 1125 OFFCURVE",
"625 1125 CURVE SMOOTH",
"788 1125 OFFCURVE",
"880 1028 OFFCURVE",
"925 765 CURVE",
"967 765 LINE",
"967 1094 LINE",
"882 1158 OFFCURVE",
"766 1185 OFFCURVE",
"657 1185 CURVE SMOOTH",
"335 1185 OFFCURVE",
"80 950 OFFCURVE",
"80 576 CURVE SMOOTH",
"80 251 OFFCURVE",
"258 -30 OFFCURVE",
"612 -30 CURVE SMOOTH"
);
}
);
width = 1098;
},
{
layerId = "CFF67ECA-3B2D-433B-B605-F38590C8F106";
paths = (
{
closed = 1;
nodes = (
"752 -30 OFFCURVE",
"890 -6 OFFCURVE",
"1018 39 CURVE",
"1040 357 LINE",
"982 361 LINE",
"942 225 OFFCURVE",
"864 74 OFFCURVE",
"670 74 CURVE SMOOTH",
"418 74 OFFCURVE",
"270 317 OFFCURVE",
"270 613 CURVE SMOOTH",
"270 882 OFFCURVE",
"405 1076 OFFCURVE",
"630 1076 CURVE SMOOTH",
"816 1076 OFFCURVE",
"892 947 OFFCURVE",
"922 811 CURVE",
"978 815 LINE",
"978 1132 LINE",
"871 1167 OFFCURVE",
"759 1185 OFFCURVE",
"675 1185 CURVE SMOOTH",
"364 1185 OFFCURVE",
"98 948 OFFCURVE",
"98 572 CURVE SMOOTH",
"98 245 OFFCURVE",
"297 -30 OFFCURVE",
"647 -30 CURVE SMOOTH"
);
}
);
width = 1125;
}
);
leftMetricsKey = O;
unicode = 0043;
},
{
glyphname = D;
lastChange = "2020-02-19 09:07:42 +0000";
layers = (
{
hints = (
{
origin = "{0, 7}";
scale = "{0.96, 0.96}";
type = Corner;
name = _corner.CapRightSerif;
},
{
origin = "{0, 8}";
scale = "{0.96, 0.96}";
type = Corner;
name = _corner.CapLeftSerif;
}
);
layerId = "6B6AD122-EF8D-49FE-8C69-4BDE8C56BDD8";
paths = (
{
closed = 1;
nodes = (
"507 0 LINE SMOOTH",
"856 0 OFFCURVE",
"1109 248 OFFCURVE",
"1109 607 CURVE SMOOTH",
"1109 871 OFFCURVE",
"968 1155 OFFCURVE",
"540 1155 CURVE SMOOTH",
"161 1155 LINE",
"161 0 LINE"
);
},
{
closed = 1;
nodes = (
"424 141 OFFCURVE",
"403 166 OFFCURVE",
"403 242 CURVE SMOOTH",
"403 1013 LINE",
"477 1013 LINE SMOOTH",
"733 1013 OFFCURVE",
"841 789 OFFCURVE",
"841 539 CURVE SMOOTH",
"841 279 OFFCURVE",
"719 141 OFFCURVE",
"550 141 CURVE SMOOTH",
"465 141 LINE SMOOTH"
);
}
);
width = 1189;
},
{
hints = (
{
origin = "{0, 7}";
scale = "{0.74227, 0.74227}";
type = Corner;
name = _corner.CapRightSerif;
},
{
origin = "{0, 8}";
scale = "{0.74227, 0.74227}";
type = Corner;
name = _corner.CapLeftSerif;
}
);
layerId = "34301EF7-A2BE-469F-9697-D6100B11FDFE";
paths = (
{
closed = 1;
nodes = (
"553 0 LINE SMOOTH",
"915 0 OFFCURVE",
"1134 257 OFFCURVE",
"1134 594 CURVE SMOOTH",
"1134 925 OFFCURVE",
"922 1155 OFFCURVE",
"567 1155 CURVE SMOOTH",
"225 1155 LINE",
"225 0 LINE"
);
},
{
closed = 1;
nodes = (
"414 63 OFFCURVE",
"344 77 OFFCURVE",
"344 159 CURVE SMOOTH",
"344 1092 LINE",
"527 1092 LINE SMOOTH",
"858 1092 OFFCURVE",
"999 840 OFFCURVE",
"999 573 CURVE SMOOTH",
"999 294 OFFCURVE",
"838 63 OFFCURVE",
"580 63 CURVE SMOOTH",
"456 63 LINE SMOOTH"
);
}
);
width = 1214;
},
{
hints = (
{
origin = "{0, 8}";
type = Corner;
name = _corner.CapLeftSerif;
},
{
origin = "{0, 7}";
type = Corner;
name = _corner.CapRightSerif;
}
);
layerId = "CFF67ECA-3B2D-433B-B605-F38590C8F106";
paths = (
{
closed = 1;
nodes = (
"595 0 LINE SMOOTH",
"941 0 OFFCURVE",
"1173 271 OFFCURVE",
"1173 606 CURVE SMOOTH",
"1173 909 OFFCURVE",
"1001 1155 OFFCURVE",
"651 1155 CURVE SMOOTH",
"249 1155 LINE",
"249 0 LINE"
);
},
{
closed = 1;
nodes = (
"453 103 OFFCURVE",
"417 127 OFFCURVE",
"417 210 CURVE SMOOTH",
"417 1052 LINE",
"589 1052 LINE SMOOTH",
"884 1052 OFFCURVE",
"997 814 OFFCURVE",
"997 565 CURVE SMOOTH",
"997 283 OFFCURVE",
"845 103 OFFCURVE",
"604 103 CURVE SMOOTH",
"487 103 LINE SMOOTH"
);
}
);
width = 1271;
}
);
leftMetricsKey = H;
rightMetricsKey = O;
unicode = 0044;
},
{
glyphname = E;
lastChange = "2020-02-28 19:50:57 +0000";
layers = (
{
hints = (
{
origin = "{0, 20}";
type = Corner;
name = _corner.CapRightSerif;
},
{
origin = "{0, 21}";
type = Corner;
name = _corner.CapLeftSerif;
},
{
origin = "{0, 9}";
scale = "{1.5, 1}";
type = Corner;
name = _corner.CapLeftSerif;
},
{
origin = "{0, 10}";
scale = "{1.5, 1}";
type = Corner;
name = _corner.CapRightSerif;
}
);
layerId = "6B6AD122-EF8D-49FE-8C69-4BDE8C56BDD8";
paths = (
{
closed = 1;
nodes = (
"929 0 LINE",
"959 237 LINE",
"890 274 LINE",
"879 274 LINE",
"757 170 OFFCURVE",
"620 144 OFFCURVE",
"521 144 CURVE SMOOTH",
"405 144 LINE",
"405 515 LINE",
"754 515 LINE",
"754 654 LINE",
"405 654 LINE",
"405 1011 LINE",
"513 1011 LINE SMOOTH",
"604 1011 OFFCURVE",
"724 988 OFFCURVE",
"813 876 CURVE",
"824 876 LINE",
"889 899 LINE",
"889 1155 LINE",
"163 1155 LINE",
"163 0 LINE"
);
}
);
width = 1049;
},
{
hints = (
{
origin = "{0, 9}";
scale = "{0.74227, 0.74227}";
type = Corner;
name = _corner.CapLeftSerif;
},
{
origin = "{0, 10}";
scale = "{0.74227, 0.74227}";
type = Corner;
name = _corner.CapRightSerif;
},
{
origin = "{0, 20}";
scale = "{0.74227, 0.74227}";
type = Corner;
name = _corner.CapRightSerif;
},
{
origin = "{0, 21}";
scale = "{0.74227, 0.74227}";
type = Corner;
name = _corner.CapLeftSerif;
}
);
layerId = "34301EF7-A2BE-469F-9697-D6100B11FDFE";
paths = (
{
closed = 1;
nodes = (
"880 0 LINE",
"966 381 LINE",
"934 392 LINE",
"926 389 LINE",
"862 166 OFFCURVE",
"793 64 OFFCURVE",
"650 64 CURVE SMOOTH",
"345 64 LINE",
"345 530 LINE",
"694 530 LINE",
"694 594 LINE",
"345 594 LINE",
"345 1091 LINE",
"620 1091 LINE SMOOTH",
"762 1091 OFFCURVE",
"795 1027 OFFCURVE",
"825 769 CURVE",
"832 763 LINE",
"866 768 LINE",
"866 1155 LINE",
"225 1155 LINE",
"225 0 LINE"
);
}
);
width = 1066;
},
{
background = {
hints = (
{
origin = "{0, 0}";
type = Corner;
name = _corner.CapRightSerif;
},
{
origin = "{0, 1}";
type = Corner;
name = _corner.CapLeftSerif;
},
{
origin = "{0, 2}";
type = Corner;
name = _corner.CapRightSerif;
},
{
origin = "{0, 3}";
type = Corner;
name = _corner.CapLeftSerif;
},
{
origin = "{1, 0}";
type = Corner;
name = _corner.CapRightSerif;
},
{
origin = "{1, 1}";
type = Corner;
name = _corner.CapLeftSerif;
},
{
origin = "{1, 2}";
type = Corner;
name = _corner.CapRightSerif;
},
{
origin = "{1, 3}";
type = Corner;
name = _corner.CapLeftSerif;
}
);
paths = (
{
closed = 1;
nodes = (
"1033 0 LINE",
"1033 1155 LINE",
"873 1155 LINE",
"873 0 LINE"
);
},
{
closed = 1;
nodes = (
"268 0 LINE",
"268 1155 LINE",
"108 1155 LINE",
"108 0 LINE"
);
},
{
closed = 1;
nodes = (
"897 528 LINE",
"897 643 LINE",
"232 643 LINE",
"232 528 LINE"
);
}
);
};
hints = (
{
origin = "{0, 1}";
type = Corner;
name = _corner.CapRightSerif;
options = 1;
},
{
origin = "{0, 12}";
type = Corner;
name = _corner.CapLeftSerif;
},
{
origin = "{0, 13}";
type = Corner;
name = _corner.CapRightSerif;
},
{
origin = "{0, 2}";
type = Corner;
name = _corner.CapLeftSerif;
}
);
layerId = "CFF67ECA-3B2D-433B-B605-F38590C8F106";
paths = (
{
closed = 1;
nodes = (
"885 1155 LINE",
"266 1145 LINE",
"21 -10 LINE {GSCorner = {name = _corner.CapLeftSerif;};}",
"671 0 LINE",
"798 362 LINE",
"749 373 LINE",
"740 375 LINE",
"622 169 OFFCURVE",
"517 108 OFFCURVE",
"411 107 CURVE SMOOTH",
"203 106 LINE",
"293 526 LINE",
"634 526 LINE",
"655 628 LINE",
"314 628 LINE",
"404 1049 LINE",
"683 1049 LINE SMOOTH",
"748 1049 OFFCURVE",
"786 1008 OFFCURVE",
"773 846 CURVE",
"779 836 LINE",
"831 843 LINE",
"894 1145 LINE"
);
}
);
width = 868;
}
);
leftMetricsKey = H;
unicode = 0045;
},
{
glyphname = F;
lastChange = "2020-02-19 12:04:24 +0000";
layers = (
{
hints = (
{
origin = "{0, 14}";
type = Corner;
name = _corner.CapLeftSerif;
},
{
origin = "{0, 0}";
type = Corner;
name = _corner.CapRightSerif;
},
{
origin = "{0, 2}";
scale = "{1.5, 1}";
type = Corner;
name = _corner.CapLeftSerif;
},
{
origin = "{0, 3}";
scale = "{1.5, 1}";
type = Corner;
name = _corner.CapRightSerif;
},
{
origin = "{0, 13}";
type = Corner;
name = _corner.CapRightSerif;
}
);
layerId = "6B6AD122-EF8D-49FE-8C69-4BDE8C56BDD8";
paths = (
{
closed = 1;
nodes = (
"405 0 LINE",
"405 490 LINE",
"764 490 LINE",
"764 629 LINE",
"405 629 LINE",
"405 1011 LINE",
"513 1011 LINE SMOOTH",
"604 1011 OFFCURVE",
"734 988 OFFCURVE",
"823 866 CURVE",
"834 866 LINE",
"899 889 LINE",
"899 1155 LINE",
"163 1155 LINE",
"163 0 LINE"
);
}
);
width = 974;
},
{
hints = (
{
origin = "{0, 0}";
scale = "{0.81649, 0.74227}";
type = Corner;
name = _corner.CapRightSerif;
},
{
origin = "{0, 2}";
scale = "{0.74227, 0.74227}";
type = Corner;
name = _corner.CapLeftSerif;
},
{
origin = "{0, 3}";
scale = "{0.74227, 0.74227}";
type = Corner;
name = _corner.CapRightSerif;
},
{
origin = "{0, 14}";
scale = "{0.74227, 0.74227}";
type = Corner;
name = _corner.CapLeftSerif;
},
{
origin = "{0, 13}";
scale = "{0.74227, 0.74227}";
type = Corner;
name = _corner.CapRightSerif;
}
);
layerId = "34301EF7-A2BE-469F-9697-D6100B11FDFE";
paths = (
{
closed = 1;
nodes = (
"345 0 LINE",
"345 520 LINE",
"710 520 LINE",
"710 588 LINE",
"345 588 LINE",
"345 1091 LINE",
"640 1091 LINE SMOOTH",
"782 1091 OFFCURVE",
"798 1032 OFFCURVE",
"835 769 CURVE",
"842 763 LINE",
"876 768 LINE",
"876 1155 LINE",
"225 1155 LINE",
"225 0 LINE"
);
}
);
width = 976;
},
{
hints = (
{
origin = "{0, 5}";
type = Corner;
name = _corner.CapLeftSerif;
},
{
origin = "{0, 6}";
type = Corner;
name = _corner.CapRightSerif;
},
{
origin = "{0, 3}";
scale = "{1.2, 1}";
type = Corner;
name = _corner.CapRightSerif;
},
{
origin = "{0, 2}";
type = Corner;
name = _corner.CapLeftSerif;
},
{
origin = "{0, 1}";
type = Corner;
name = _corner.CapRightSerif;
}
);
layerId = "CFF67ECA-3B2D-433B-B605-F38590C8F106";
paths = (
{
closed = 1;
nodes = (
"919 1155 LINE",
"249 1155 LINE",
"249 0 LINE",
"409 0 LINE",
"409 530 LINE",
"791 530 LINE",
"791 632 LINE",
"409 632 LINE",
"409 1049 LINE",
"733 1049 LINE SMOOTH",
"798 1049 OFFCURVE",
"849 1002 OFFCURVE",
"871 840 CURVE",
"878 836 LINE",
"930 844 LINE",
"930 1145 LINE"
);
}
);
width = 1010;
}
);
leftMetricsKey = H;
unicode = 0046;
},
{
glyphname = G;
lastChange = "2020-02-19 18:07:24 +0000";
layers = (
{
hints = (
{
origin = "{0, 4}";
scale = "{1.4, 1}";
type = Corner;
name = _corner.CapRightSerif;
},
{
origin = "{0, 3}";
type = Corner;
name = _corner.CapLeftSerif;
}
);
layerId = "6B6AD122-EF8D-49FE-8C69-4BDE8C56BDD8";
paths = (
{
closed = 1;
nodes = (
"788 -41 OFFCURVE",
"938 -3 OFFCURVE",
"1064 41 CURVE",
"1064 558 LINE",
"825 559 LINE",
"825 146 LINE",
"788 125 OFFCURVE",
"746 111 OFFCURVE",
"696 111 CURVE SMOOTH",
"492 111 OFFCURVE",
"345 335 OFFCURVE",
"345 615 CURVE SMOOTH",
"345 871 OFFCURVE",
"460 1029 OFFCURVE",
"635 1029 CURVE SMOOTH",
"783 1029 OFFCURVE",
"865 919 OFFCURVE",
"900 843 CURVE",
"992 847 LINE",
"992 1136 LINE",
"885 1169 OFFCURVE",
"783 1185 OFFCURVE",
"703 1185 CURVE SMOOTH",
"399 1185 OFFCURVE",
"80 945 OFFCURVE",
"80 552 CURVE SMOOTH",
"80 255 OFFCURVE",
"251 -41 OFFCURVE",
"648 -41 CURVE SMOOTH"
);
}
);
width = 1227;
},
{
hints = (
{
origin = "{0, 3}";
scale = "{0.51959, 0.74227}";
type = Corner;
name = _corner.CapLeftSerif;
},
{
origin = "{0, 4}";
scale = "{0.74227, 0.74227}";
type = Corner;
name = _corner.CapRightSerif;
}
);
layerId = "34301EF7-A2BE-469F-9697-D6100B11FDFE";
paths = (
{
closed = 1;
nodes = (
"738 -41 OFFCURVE",
"864 -10 OFFCURVE",
"990 56 CURVE",
"990 538 LINE",
"869 538 LINE",
"869 96 LINE",
"813 49 OFFCURVE",
"726 15 OFFCURVE",
"632 15 CURVE SMOOTH",
"354 15 OFFCURVE",
"218 319 OFFCURVE",
"218 606 CURVE SMOOTH",
"218 900 OFFCURVE",
"374 1125 OFFCURVE",
"622 1125 CURVE SMOOTH",
"785 1125 OFFCURVE",
"877 1028 OFFCURVE",
"922 765 CURVE",
"964 765 LINE",
"964 1094 LINE",
"879 1158 OFFCURVE",
"763 1185 OFFCURVE",
"654 1185 CURVE SMOOTH",
"332 1185 OFFCURVE",
"80 950 OFFCURVE",
"80 564 CURVE SMOOTH",
"80 239 OFFCURVE",
"289 -41 OFFCURVE",
"618 -41 CURVE SMOOTH"
);
}
);
width = 1151;
},
{
hints = (
{
origin = "{0, 4}";
type = Corner;
name = _corner.CapRightSerif;
},
{
origin = "{0, 3}";
scale = "{0.7, 1}";
type = Corner;
name = _corner.CapLeftSerif;
}
);
layerId = "CFF67ECA-3B2D-433B-B605-F38590C8F106";
paths = (
{
closed = 1;
nodes = (
"766 -30 OFFCURVE",
"903 0 OFFCURVE",
"1038 61 CURVE",
"1038 557 LINE",
"878 557 LINE",
"878 122 LINE",
"826 87 OFFCURVE",
"752 61 OFFCURVE",
"676 61 CURVE SMOOTH",
"430 61 OFFCURVE",
"270 337 OFFCURVE",
"270 613 CURVE SMOOTH",
"270 882 OFFCURVE",
"405 1076 OFFCURVE",
"630 1076 CURVE SMOOTH",
"816 1076 OFFCURVE",
"896 947 OFFCURVE",
"926 811 CURVE",
"986 815 LINE",
"986 1132 LINE",
"875 1167 OFFCURVE",
"769 1185 OFFCURVE",
"682 1185 CURVE SMOOTH",
"364 1185 OFFCURVE",
"98 948 OFFCURVE",
"98 574 CURVE SMOOTH",
"98 256 OFFCURVE",
"294 -30 OFFCURVE",
"645 -30 CURVE SMOOTH"
);
}
);
width = 1242;
}
);
leftMetricsKey = O;
unicode = 0047;
},
{
glyphname = H;
lastChange = "2020-02-21 10:34:18 +0000";
layers = (
{
hints = (
{
origin = "{0, 0}";
type = Corner;
name = _corner.CapRightSerif;
},
{
origin = "{0, 2}";
type = Corner;
name = _corner.CapRightSerif;
},
{
origin = "{1, 0}";
type = Corner;
name = _corner.CapRightSerif;
},
{
origin = "{1, 2}";
type = Corner;
name = _corner.CapRightSerif;
},
{
origin = "{0, 3}";
type = Corner;
name = _corner.CapLeftSerif;
},
{
origin = "{0, 1}";
type = Corner;
name = _corner.CapLeftSerif;
},
{
origin = "{1, 3}";
type = Corner;
name = _corner.CapLeftSerif;
},
{
origin = "{1, 1}";
type = Corner;
name = _corner.CapLeftSerif;
}
);
layerId = "6B6AD122-EF8D-49FE-8C69-4BDE8C56BDD8";
paths = (
{
closed = 1;
nodes = (
"1118 0 LINE",
"1118 1155 LINE",
"877 1155 LINE",
"877 0 LINE"
);
},
{
closed = 1;
nodes = (
"405 0 LINE",
"405 1155 LINE",
"163 1155 LINE",
"163 0 LINE"
);
},
{
closed = 1;
nodes = (
"944 520 LINE",
"944 666 LINE",
"303 666 LINE",
"303 520 LINE"
);
}
);
width = 1281;
},
{
hints = (
{
origin = "{0, 0}";
scale = "{0.74227, 0.74227}";
type = Corner;
name = _corner.CapRightSerif;
},
{
origin = "{0, 1}";
scale = "{0.74227, 0.74227}";
type = Corner;
name = _corner.CapLeftSerif;
},
{
origin = "{0, 2}";
scale = "{0.74227, 0.74227}";
type = Corner;
name = _corner.CapRightSerif;
},
{
origin = "{0, 3}";
scale = "{0.74227, 0.74227}";
type = Corner;
name = _corner.CapLeftSerif;
},
{
origin = "{1, 0}";
scale = "{0.74227, 0.74227}";
type = Corner;
name = _corner.CapRightSerif;
},
{
origin = "{1, 1}";
scale = "{0.74227, 0.74227}";
type = Corner;
name = _corner.CapLeftSerif;
},
{
origin = "{1, 2}";
scale = "{0.74227, 0.74227}";
type = Corner;
name = _corner.CapRightSerif;
},
{
origin = "{1, 3}";
scale = "{0.74227, 0.74227}";
type = Corner;
name = _corner.CapLeftSerif;
}
);
layerId = "34301EF7-A2BE-469F-9697-D6100B11FDFE";
paths = (
{
closed = 1;
nodes = (
"1088 0 LINE",
"1088 1155 LINE",
"968 1155 LINE",
"968 0 LINE"
);
},
{
closed = 1;
nodes = (
"345 0 LINE",
"345 1155 LINE",
"225 1155 LINE",
"225 0 LINE"
);
},
{
closed = 1;
nodes = (
"983 573 LINE",
"983 637 LINE",
"326 637 LINE",
"326 573 LINE"
);
}
);
width = 1313;
},
{
hints = (
{
origin = "{1, 0}";
type = Corner;
name = _corner.CapRightSerif;
},
{
origin = "{1, 1}";
type = Corner;
name = _corner.CapLeftSerif;
},
{
origin = "{1, 2}";
type = Corner;
name = _corner.CapRightSerif;
},
{
origin = "{1, 3}";
type = Corner;
name = _corner.CapLeftSerif;
},
{
origin = "{0, 0}";
type = Corner;
name = _corner.CapRightSerif;
},
{
origin = "{0, 1}";
type = Corner;
name = _corner.CapLeftSerif;
},
{
origin = "{0, 2}";
type = Corner;
name = _corner.CapRightSerif;
},
{
origin = "{0, 3}";
type = Corner;
name = _corner.CapLeftSerif;
}
);
layerId = "CFF67ECA-3B2D-433B-B605-F38590C8F106";
paths = (
{
closed = 1;
nodes = (
"1174 0 LINE",
"1174 1155 LINE",
"1014 1155 LINE",
"1014 0 LINE"
);
},
{
closed = 1;
nodes = (
"409 0 LINE",
"409 1155 LINE",
"249 1155 LINE",
"249 0 LINE"
);
},
{
closed = 1;
nodes = (
"1038 528 LINE",
"1038 643 LINE",
"373 643 LINE",
"373 528 LINE"
);
}
);
width = 1423;
}
);
unicode = 0048;
},
{
glyphname = I;
lastChange = "2020-02-19 08:23:52 +0000";
layers = (
{
hints = (
{
origin = "{0, 0}";
type = Corner;
name = _corner.CapRightSerif;
},
{
origin = "{0, 2}";
type = Corner;
name = _corner.CapRightSerif;
},
{
origin = "{0, 3}";
type = Corner;
name = _corner.CapLeftSerif;
},
{
origin = "{0, 1}";
type = Corner;
name = _corner.CapLeftSerif;
}
);
layerId = "6B6AD122-EF8D-49FE-8C69-4BDE8C56BDD8";
paths = (
{
closed = 1;
nodes = (
"405 0 LINE",
"405 1155 LINE",
"163 1155 LINE",
"163 0 LINE"
);
}
);
width = 568;
},
{
hints = (
{
origin = "{0, 0}";
scale = "{0.74227, 0.74227}";
type = Corner;
name = _corner.CapRightSerif;
},
{
origin = "{0, 1}";
scale = "{0.74227, 0.74227}";
type = Corner;
name = _corner.CapLeftSerif;
},
{
origin = "{0, 2}";
scale = "{0.74227, 0.74227}";
type = Corner;
name = _corner.CapRightSerif;
},
{
origin = "{0, 3}";
scale = "{0.74227, 0.74227}";
type = Corner;
name = _corner.CapLeftSerif;
}
);
layerId = "34301EF7-A2BE-469F-9697-D6100B11FDFE";
paths = (
{
closed = 1;
nodes = (
"345 0 LINE",
"345 1155 LINE",
"225 1155 LINE",
"225 0 LINE"
);
}
);
width = 570;
},
{
hints = (
{
origin = "{0, 0}";
type = Corner;
name = _corner.CapRightSerif;
},
{
origin = "{0, 2}";
type = Corner;
name = _corner.CapRightSerif;
},
{
origin = "{0, 3}";
type = Corner;
name = _corner.CapLeftSerif;
},
{
origin = "{0, 1}";
type = Corner;
name = _corner.CapLeftSerif;
}
);
layerId = "CFF67ECA-3B2D-433B-B605-F38590C8F106";
paths = (
{
closed = 1;
nodes = (
"409 0 LINE",
"409 1155 LINE",
"249 1155 LINE",
"249 0 LINE"
);
}
);
width = 658;
}
);
leftMetricsKey = H;
rightMetricsKey = H;
unicode = 0049;
},
{
glyphname = J;
lastChange = "2020-02-13 14:31:57 +0000";
layers = (
{
hints = (
{
origin = "{0, 3}";
type = Corner;
name = _corner.CapLeftSerif;
},
{
origin = "{0, 4}";
type = Corner;
name = _corner.CapRightSerif;
}
);
layerId = "6B6AD122-EF8D-49FE-8C69-4BDE8C56BDD8";
paths = (
{
closed = 1;
nodes = (
"504 -30 OFFCURVE",
"695 62 OFFCURVE",
"695 264 CURVE SMOOTH",
"695 1186 LINE",
"453 1186 LINE",
"453 221 LINE SMOOTH",
"453 157 OFFCURVE",
"434 111 OFFCURVE",
"369 111 CURVE SMOOTH",
"308 111 OFFCURVE",
"272 154 OFFCURVE",
"272 209 CURVE SMOOTH",
"272 235 OFFCURVE",
"280 265 OFFCURVE",
"291 295 CURVE",
"289 309 LINE",
"246 341 OFFCURVE",
"203 354 OFFCURVE",
"165 354 CURVE SMOOTH",
"73 354 OFFCURVE",
"10 281 OFFCURVE",
"10 191 CURVE SMOOTH",
"10 67 OFFCURVE",
"119 -30 OFFCURVE",
"312 -30 CURVE SMOOTH"
);
}
);
width = 858;
},
{
hints = (
{
origin = "{0, 3}";
scale = "{0.74227, 0.74227}";
type = Corner;
name = _corner.CapLeftSerif;
},
{
origin = "{0, 4}";
scale = "{0.74227, 0.74227}";
type = Corner;
name = _corner.CapRightSerif;
}
);
layerId = "34301EF7-A2BE-469F-9697-D6100B11FDFE";
paths = (
{
closed = 1;
nodes = (
"463 -30 OFFCURVE",
"595 44 OFFCURVE",
"595 244 CURVE SMOOTH",
"595 1155 LINE",
"475 1155 LINE",
"475 238 LINE SMOOTH",
"475 138 OFFCURVE",
"440 27 OFFCURVE",
"325 27 CURVE SMOOTH",
"258 27 OFFCURVE",
"202 64 OFFCURVE",
"202 128 CURVE SMOOTH",
"202 164 OFFCURVE",
"219 195 OFFCURVE",
"243 214 CURVE",
"248 227 LINE",
"231 249 OFFCURVE",
"208 256 OFFCURVE",
"188 256 CURVE SMOOTH",
"127 256 OFFCURVE",
"80 201 OFFCURVE",
"80 134 CURVE SMOOTH",
"80 48 OFFCURVE",
"158 -30 OFFCURVE",
"322 -30 CURVE SMOOTH"
);
}
);
width = 819;
},
{
hints = (
{
origin = "{0, 4}";
type = Corner;
name = _corner.CapRightSerif;
},
{
origin = "{0, 3}";
type = Corner;
name = _corner.CapLeftSerif;
}
);
layerId = "CFF67ECA-3B2D-433B-B605-F38590C8F106";
paths = (
{
closed = 1;
nodes = (
"417 -30 OFFCURVE",
"583 23 OFFCURVE",
"583 294 CURVE SMOOTH",
"583 1155 LINE",
"422 1155 LINE",
"422 306 LINE SMOOTH",
"422 161 OFFCURVE",
"372 70 OFFCURVE",
"277 70 CURVE SMOOTH",
"235 70 OFFCURVE",
"182 88 OFFCURVE",
"182 151 CURVE SMOOTH",
"182 182 OFFCURVE",
"195 209 OFFCURVE",
"214 232 CURVE",
"214 246 LINE",
"190 269 OFFCURVE",
"165 277 OFFCURVE",
"142 277 CURVE SMOOTH",
"75 277 OFFCURVE",
"20 212 OFFCURVE",
"20 138 CURVE SMOOTH",
"20 51 OFFCURVE",
"98 -30 OFFCURVE",
"271 -30 CURVE SMOOTH"
);
}
);
width = 832;
}
);
rightMetricsKey = H;
unicode = 004A;
},
{
glyphname = K;
lastChange = "2020-02-19 12:09:14 +0000";
layers = (
{
hints = (
{
origin = "{1, 0}";
scale = "{0.96, 0.96}";
type = Corner;
name = _corner.CapRightSerif;
},
{
origin = "{1, 2}";
scale = "{0.96, 0.96}";
type = Corner;
name = _corner.CapRightSerif;
},
{
origin = "{1, 3}";
scale = "{0.96, 0.96}";
type = Corner;
name = _corner.CapLeftSerif;
},
{
origin = "{1, 1}";
scale = "{0.96, 0.96}";
type = Corner;
name = _corner.CapLeftSerif;
}
);
layerId = "6B6AD122-EF8D-49FE-8C69-4BDE8C56BDD8";
paths = (
{
closed = 1;
nodes = (
"940 988 LINE SMOOTH",
"984 1029 OFFCURVE",
"1043 1069 OFFCURVE",
"1116 1095 CURVE",
"1116 1106 LINE",
"1106 1155 LINE",
"772 1155 LINE",
"739 1109 LINE",
"739 1099 LINE",
"759 1060 OFFCURVE",
"756 1009 OFFCURVE",
"677 934 CURVE SMOOTH",
"382 653 LINE",
"377 461 LINE"
);
},
{
closed = 1;
nodes = (
"403 0 LINE",
"403 1155 LINE",
"161 1155 LINE",
"161 0 LINE"
);
},
{
closed = 1;
nodes = (
"1113 0 LINE",
"1126 48 LINE",
"1126 62 LINE",
"1092 80 OFFCURVE",
"1025 117 OFFCURVE",
"983 188 CURVE SMOOTH",
"642 766 LINE",
"490 596 LINE",
"698 197 LINE SMOOTH",
"739 119 OFFCURVE",
"748 86 OFFCURVE",
"711 55 CURVE",
"711 44 LINE",
"733 0 LINE"
);
}
);
width = 1131;
},
{
hints = (
{
origin = "{1, 0}";
scale = "{0.74227, 0.74227}";
type = Corner;
name = _corner.CapRightSerif;
},
{
origin = "{1, 1}";
scale = "{0.74227, 0.74227}";
type = Corner;
name = _corner.CapLeftSerif;
},
{
origin = "{1, 2}";
scale = "{0.74227, 0.74227}";
type = Corner;
name = _corner.CapRightSerif;
},
{
origin = "{1, 3}";
scale = "{0.74227, 0.74227}";
type = Corner;
name = _corner.CapLeftSerif;
}
);
layerId = "34301EF7-A2BE-469F-9697-D6100B11FDFE";
paths = (
{
closed = 1;
nodes = (
"885 980 LINE SMOOTH",
"991 1075 OFFCURVE",
"1072 1108 OFFCURVE",
"1107 1117 CURVE",
"1111 1122 LINE",
"1105 1155 LINE",
"741 1155 LINE",
"738 1122 LINE",
"742 1117 LINE",
"846 1101 OFFCURVE",
"866 1051 OFFCURVE",
"790 983 CURVE SMOOTH",
"295 538 LINE",
"295 449 LINE"
);
},
{
closed = 1;
nodes = (
"345 0 LINE",
"345 1155 LINE",
"225 1155 LINE",
"225 0 LINE"
);
},
{
closed = 1;
nodes = (
"1127 0 LINE",
"1134 32 LINE",
"1131 38 LINE",
"1085 49 OFFCURVE",
"1025 86 OFFCURVE",
"956 186 CURVE SMOOTH",
"580 731 LINE",
"494 641 LINE",
"832 146 LINE SMOOTH",
"884 70 OFFCURVE",
"863 53 OFFCURVE",
"744 38 CURVE",
"740 33 LINE",
"743 0 LINE"
);
}
);
width = 1104;
},
{
hints = (
{
origin = "{1, 0}";
type = Corner;
name = _corner.CapRightSerif;
},
{
origin = "{1, 1}";
type = Corner;
name = _corner.CapLeftSerif;
},
{
origin = "{1, 2}";
type = Corner;
name = _corner.CapRightSerif;
},
{
origin = "{1, 3}";
type = Corner;
name = _corner.CapLeftSerif;
}
);
layerId = "CFF67ECA-3B2D-433B-B605-F38590C8F106";
paths = (
{
closed = 1;
nodes = (
"954 979 LINE SMOOTH",
"1028 1050 OFFCURVE",
"1079 1078 OFFCURVE",
"1149 1103 CURVE",
"1155 1111 LINE",
"1150 1155 LINE",
"744 1155 LINE",
"740 1112 LINE",
"745 1105 LINE",
"880 1080 OFFCURVE",
"878 1048 OFFCURVE",
"801 972 CURVE SMOOTH",
"398 577 LINE",
"398 442 LINE"
);
},
{
closed = 1;
nodes = (
"409 0 LINE",
"409 1155 LINE",
"249 1155 LINE",
"249 0 LINE"
);
},
{
closed = 1;
nodes = (
"1174 0 LINE",
"1178 49 LINE",
"1173 56 LINE",
"1113 71 OFFCURVE",
"1033 116 OFFCURVE",
"977 196 CURVE SMOOTH",
"624 703 LINE",
"501 590 LINE",
"799 156 LINE SMOOTH",
"844 90 OFFCURVE",
"835 72 OFFCURVE",
"733 51 CURVE",
"728 44 LINE",
"733 0 LINE"
);
}
);
width = 1188;
}
);
leftMetricsKey = H;
unicode = 004B;
},
{
glyphname = L;
lastChange = "2020-02-28 19:50:51 +0000";
layers = (
{
hints = (
{
origin = "{0, 9}";
scale = "{0.96, 0.96}";
type = Corner;
name = _corner.CapRightSerif;
},
{
origin = "{0, 10}";
scale = "{0.96, 0.96}";
type = Corner;
name = _corner.CapLeftSerif;
},
{
origin = "{0, 8}";
scale = "{0.96, 0.96}";
type = Corner;
name = _corner.CapLeftSerif;
}
);
layerId = "6B6AD122-EF8D-49FE-8C69-4BDE8C56BDD8";
paths = (
{
closed = 1;
nodes = (
"892 -2 LINE",
"946 299 LINE",
"874 344 LINE",
"861 344 LINE",
"758 240 OFFCURVE",
"645 140 OFFCURVE",
"481 140 CURVE SMOOTH",
"403 140 LINE",
"403 1155 LINE",
"161 1155 LINE",
"161 -2 LINE"
);
}
);
width = 996;
},
{
hints = (
{
origin = "{0, 8}";
scale = "{0.74227, 0.74227}";
type = Corner;
name = _corner.CapLeftSerif;
},
{
origin = "{0, 9}";
scale = "{0.74227, 0.74227}";
type = Corner;
name = _corner.CapRightSerif;
},
{
origin = "{0, 10}";
scale = "{0.74227, 0.74227}";
type = Corner;
name = _corner.CapLeftSerif;
}
);
layerId = "34301EF7-A2BE-469F-9697-D6100B11FDFE";
paths = (
{
closed = 1;
nodes = (
"927 0 LINE",
"1013 411 LINE",
"981 422 LINE",
"973 419 LINE",
"885 188 OFFCURVE",
"820 64 OFFCURVE",
"677 64 CURVE SMOOTH",
"345 64 LINE",
"345 1155 LINE",
"225 1155 LINE",
"225 0 LINE"
);
}
);
width = 1053;
},
{
hints = (
{
origin = "{0, 10}";
type = Corner;
name = _corner.CapLeftSerif;
},
{
origin = "{0, 8}";
type = Corner;
name = _corner.CapLeftSerif;
},
{
origin = "{0, 9}";
type = Corner;
name = _corner.CapRightSerif;
options = 1;
}
);
layerId = "CFF67ECA-3B2D-433B-B605-F38590C8F106";
paths = (
{
closed = 1;
nodes = (
"812 0 LINE",
"939 361 LINE",
"890 372 LINE",
"881 374 LINE",
"763 168 OFFCURVE",
"657 106 OFFCURVE",
"551 106 CURVE SMOOTH",
"344 106 LINE",
"567 1155 LINE",
"417 1155 LINE",
"172 0 LINE"
);
}
);
width = 991;
}
);
leftMetricsKey = H;
unicode = 004C;
},
{
glyphname = M;
lastChange = "2020-02-19 12:03:46 +0000";
layers = (
{
hints = (
{
origin = "{0, 5}";
type = Corner;
name = _corner.CapLeftSerif;
},
{
origin = "{0, 12}";
type = Corner;
name = _corner.CapLeftSerif;
},
{
origin = "{0, 6}";
type = Corner;
name = _corner.CapRightSerif;
},
{
origin = "{0, 0}";
type = Corner;
name = _corner.CapRightSerif;
},
{
origin = "{0, 11}";
type = Corner;
name = _corner.CapRightSerif;
},
{
origin = "{0, 7}";
type = Corner;
name = _corner.CapLeftSerif;
}
);
layerId = "6B6AD122-EF8D-49FE-8C69-4BDE8C56BDD8";
paths = (
{
closed = 1;
nodes = (
"315 0 LINE",
"315 793 LINE",
"617 0 LINE",
"798 0 LINE",
"1074 833 LINE",
"1074 0 LINE",
"1315 0 LINE",
"1315 1155 LINE",
"1033 1155 LINE",
"752 304 LINE",
"441 1155 LINE",
"163 1155 LINE",
"163 0 LINE"
);
}
);
width = 1478;
},
{
hints = (
{
origin = "{0, 0}";
scale = "{0.74227, 0.74227}";
type = Corner;
name = _corner.CapRightSerif;
},
{
origin = "{0, 11}";
scale = "{0.74227, 0.74227}";
type = Corner;
name = _corner.CapRightSerif;
},
{
origin = "{0, 12}";
scale = "{0.74227, 0.74227}";
type = Corner;
name = _corner.CapLeftSerif;
},
{
origin = "{0, 6}";
scale = "{0.74227, 0.74227}";
type = Corner;
name = _corner.CapRightSerif;
},
{
origin = "{0, 7}";
scale = "{0.74227, 0.74227}";
type = Corner;
name = _corner.CapLeftSerif;
},
{
origin = "{0, 5}";
scale = "{0.74227, 0.74227}";
type = Corner;
name = _corner.CapLeftSerif;
}
);
layerId = "34301EF7-A2BE-469F-9697-D6100B11FDFE";
paths = (
{
closed = 1;
nodes = (
"296 0 LINE",
"296 996 LINE",
"730 0 LINE",
"796 0 LINE",
"1208 979 LINE",
"1208 0 LINE",
"1328 0 LINE",
"1328 1155 LINE",
"1208 1155 LINE",
"800 164 LINE",
"374 1155 LINE",
"225 1155 LINE",
"225 0 LINE"
);
}
);
width = 1553;
},
{
hints = (
{
origin = "{0, 3}";
type = Corner;
name = _corner.CapRightSerif;
},
{
origin = "{0, 8}";
type = Corner;
name = _corner.CapRightSerif;
},
{
origin = "{0, 10}";
type = Corner;
name = _corner.CapRightSerif;
},
{
origin = "{0, 4}";
type = Corner;
name = _corner.CapLeftSerif;
},
{
origin = "{0, 9}";
type = Corner;
name = _corner.CapLeftSerif;
},
{
origin = "{0, 2}";
type = Corner;
name = _corner.CapLeftSerif;
},
{
origin = "{0, 2}";
type = Corner;
name = _corner.CapLeftSerif;
},
{
origin = "{0, 3}";
type = Corner;
name = _corner.CapRightSerif;
},
{
origin = "{0, 4}";
type = Corner;
name = _corner.CapLeftSerif;
},
{
origin = "{0, 8}";
type = Corner;
name = _corner.CapRightSerif;
},
{
origin = "{0, 9}";
type = Corner;
name = _corner.CapLeftSerif;
},
{
origin = "{0, 10}";
type = Corner;
name = _corner.CapRightSerif;
}
);
layerId = "CFF67ECA-3B2D-433B-B605-F38590C8F106";
paths = (
{
closed = 1;
nodes = (
"1186 938 LINE",
"1175 778 LINE",
"1175 0 LINE",
"1333 0 LINE",
"1333 1155 LINE",
"1146 1155 LINE",
"810 228 LINE",
"445 1155 LINE",
"249 1155 LINE",
"249 0 LINE",
"363 0 LINE",
"363 920 LINE",
"371 920 LINE",
"405 793 LINE",
"726 0 LINE",
"840 0 LINE",
"1179 938 LINE"
);
}
);
width = 1582;
}
);
leftMetricsKey = H;
rightMetricsKey = H;
unicode = 004D;
},
{
glyphname = N;
lastChange = "2020-02-19 17:17:52 +0000";
layers = (
{
hints = (
{
origin = "{0, 0}";
type = Corner;
name = _corner.CapRightSerif;
},
{
origin = "{0, 8}";
type = Corner;
name = _corner.CapRightSerif;
},
{
origin = "{0, 9}";
type = Corner;
name = _corner.CapLeftSerif;
},
{
origin = "{0, 5}";
type = Corner;
name = _corner.CapRightSerif;
},
{
origin = "{0, 4}";
type = Corner;
name = _corner.CapLeftSerif;
}
);
layerId = "6B6AD122-EF8D-49FE-8C69-4BDE8C56BDD8";
paths = (
{
closed = 1;
nodes = (
"315 0 LINE",
"315 855 LINE",
"886 0 LINE",
"1049 0 LINE",
"1049 1155 LINE",
"897 1155 LINE",
"897 427 LINE",
"424 1155 LINE",
"163 1155 LINE",
"163 0 LINE"
);
}
);
width = 1212;
},
{
hints = (
{
origin = "{0, 0}";
scale = "{0.74227, 0.74227}";
type = Corner;
name = _corner.CapRightSerif;
},
{
origin = "{0, 8}";
scale = "{0.74227, 0.74227}";
type = Corner;
name = _corner.CapRightSerif;
},
{
origin = "{0, 9}";
scale = "{0.74227, 0.74227}";
type = Corner;
name = _corner.CapLeftSerif;
},
{
origin = "{0, 5}";
scale = "{0.74227, 0.74227}";
type = Corner;
name = _corner.CapRightSerif;
},
{
origin = "{0, 4}";
scale = "{0.74227, 0.74227}";
type = Corner;
name = _corner.CapLeftSerif;
}
);
layerId = "34301EF7-A2BE-469F-9697-D6100B11FDFE";
paths = (
{
closed = 1;
nodes = (
"296 0 LINE",
"296 972 LINE",
"1031 0 LINE",
"1072 0 LINE",
"1072 1155 LINE",
"1001 1155 LINE",
"1001 239 LINE",
"313 1155 LINE",
"225 1155 LINE",
"225 0 LINE"
);
}
);
width = 1296;
},
{
hints = (
{
origin = "{0, 11}";
type = Corner;
name = _corner.CapLeftSerif;
},
{
origin = "{0, 4}";
type = Corner;
name = _corner.CapLeftSerif;
},
{
origin = "{0, 12}";
type = Corner;
name = _corner.CapRightSerif;
},
{
origin = "{0, 3}";
type = Corner;
name = _corner.CapRightSerif;
},
{
origin = "{0, 5}";
type = Corner;
name = _corner.CapRightSerif;
}
);
layerId = "CFF67ECA-3B2D-433B-B605-F38590C8F106";
paths = (
{
closed = 1;
nodes = (
"997 293 LINE",
"960 374 LINE",
"410 1155 LINE",
"249 1155 LINE",
"249 0 LINE",
"363 0 LINE",
"363 936 LINE",
"370 936 LINE",
"411 851 LINE",
"1025 0 LINE",
"1118 0 LINE",
"1118 1155 LINE",
"1004 1155 LINE",
"1004 293 LINE"
);
}
);
width = 1367;
}
);
leftMetricsKey = H;
rightMetricsKey = H;
unicode = 004E;
},
{
glyphname = O;
lastChange = "2020-02-13 14:30:14 +0000";
layers = (
{
layerId = "6B6AD122-EF8D-49FE-8C69-4BDE8C56BDD8";
paths = (
{
closed = 1;
nodes = (
"913 -33 OFFCURVE",
"1138 197 OFFCURVE",
"1138 575 CURVE SMOOTH",
"1138 941 OFFCURVE",
"913 1183 OFFCURVE",
"610 1183 CURVE SMOOTH",
"308 1183 OFFCURVE",
"80 941 OFFCURVE",
"80 575 CURVE SMOOTH",
"80 197 OFFCURVE",
"308 -33 OFFCURVE",
"610 -33 CURVE SMOOTH"
);
},
{
closed = 1;
nodes = (
"450 114 OFFCURVE",
"343 403 OFFCURVE",
"343 641 CURVE SMOOTH",
"343 873 OFFCURVE",
"438 1037 OFFCURVE",
"579 1037 CURVE SMOOTH",
"769 1037 OFFCURVE",
"875 747 OFFCURVE",
"875 507 CURVE SMOOTH",
"875 276 OFFCURVE",
"781 114 OFFCURVE",
"640 114 CURVE SMOOTH"
);
}
);
width = 1218;
},
{
layerId = "34301EF7-A2BE-469F-9697-D6100B11FDFE";
paths = (
{
closed = 1;
nodes = (
"883 -30 OFFCURVE",
"1114 212 OFFCURVE",
"1114 578 CURVE SMOOTH",
"1114 933 OFFCURVE",
"883 1185 OFFCURVE",
"598 1185 CURVE SMOOTH",
"313 1185 OFFCURVE",
"80 933 OFFCURVE",
"80 578 CURVE SMOOTH",
"80 212 OFFCURVE",
"313 -30 OFFCURVE",
"598 -30 CURVE SMOOTH"
);
},
{
closed = 1;
nodes = (
"388 33 OFFCURVE",
"218 249 OFFCURVE",
"218 578 CURVE SMOOTH",
"218 916 OFFCURVE",
"388 1122 OFFCURVE",
"598 1122 CURVE SMOOTH",
"807 1122 OFFCURVE",
"976 916 OFFCURVE",
"976 578 CURVE SMOOTH",
"976 249 OFFCURVE",
"807 33 OFFCURVE",
"598 33 CURVE SMOOTH"
);
}
);
width = 1194;
},
{
layerId = "CFF67ECA-3B2D-433B-B605-F38590C8F106";
paths = (
{
closed = 1;
nodes = (
"931 -33 OFFCURVE",
"1156 219 OFFCURVE",
"1156 575 CURVE SMOOTH",
"1156 931 OFFCURVE",
"931 1183 OFFCURVE",
"628 1183 CURVE SMOOTH",
"326 1183 OFFCURVE",
"98 931 OFFCURVE",
"98 575 CURVE SMOOTH",
"98 219 OFFCURVE",
"326 -33 OFFCURVE",
"628 -33 CURVE SMOOTH"
);
},
{
closed = 1;
nodes = (
"407 73 OFFCURVE",
"269 337 OFFCURVE",
"269 609 CURVE SMOOTH",
"269 883 OFFCURVE",
"413 1077 OFFCURVE",
"613 1077 CURVE SMOOTH",
"848 1077 OFFCURVE",
"985 813 OFFCURVE",
"985 541 CURVE SMOOTH",
"985 267 OFFCURVE",
"842 73 OFFCURVE",
"643 73 CURVE SMOOTH"
);
}
);
width = 1254;
}
);
note = "Remeber to Make out side circle round and tilt inner";
unicode = 004F;
},
{
glyphname = P;
lastChange = "2020-02-13 14:32:41 +0000";
layers = (
{
hints = (
{
origin = "{0, 0}";
scale = "{1.35, 1}";
type = Corner;
name = _corner.CapRightSerif;
},
{
origin = "{0, 11}";
scale = "{0.96, 1}";
type = Corner;
name = _corner.CapRightSerif;
},
{
origin = "{0, 12}";
scale = "{0.96, 1}";
type = Corner;
name = _corner.CapLeftSerif;
}
);
layerId = "6B6AD122-EF8D-49FE-8C69-4BDE8C56BDD8";
paths = (
{
closed = 1;
nodes = (
"403 0 LINE",
"403 411 LINE",
"453 399 OFFCURVE",
"503 395 OFFCURVE",
"546 395 CURVE SMOOTH",
"778 395 OFFCURVE",
"963 545 OFFCURVE",
"963 775 CURVE SMOOTH",
"963 941 OFFCURVE",
"862 1155 OFFCURVE",
"572 1155 CURVE SMOOTH",
"161 1155 LINE",
"161 0 LINE"
);
},
{
closed = 1;
nodes = (
"503 519 OFFCURVE",
"462 532 OFFCURVE",
"403 548 CURVE",
"403 1013 LINE",
"477 1013 LINE SMOOTH",
"638 1013 OFFCURVE",
"717 903 OFFCURVE",
"717 746 CURVE SMOOTH",
"717 634 OFFCURVE",
"676 519 OFFCURVE",
"550 519 CURVE SMOOTH"
);
}
);
width = 1038;
},
{
hints = (
{
origin = "{0, 0}";
scale = "{0.81649, 0.74227}";
type = Corner;
name = _corner.CapRightSerif;
},
{
origin = "{0, 11}";
scale = "{0.74227, 0.74227}";
type = Corner;
name = _corner.CapRightSerif;
},
{
origin = "{0, 12}";
scale = "{0.74227, 0.74227}";
type = Corner;
name = _corner.CapLeftSerif;
}
);
layerId = "34301EF7-A2BE-469F-9697-D6100B11FDFE";
paths = (
{
closed = 1;
nodes = (
"345 0 LINE",
"345 448 LINE",
"411 431 OFFCURVE",
"475 426 OFFCURVE",
"520 426 CURVE SMOOTH",
"797 426 OFFCURVE",
"921 616 OFFCURVE",
"921 798 CURVE SMOOTH",
"921 974 OFFCURVE",
"807 1155 OFFCURVE",
"535 1155 CURVE SMOOTH",
"225 1155 LINE",
"225 0 LINE"
);
},
{
closed = 1;
nodes = (
"486 486 OFFCURVE",
"414 498 OFFCURVE",
"345 523 CURVE",
"345 1095 LINE",
"504 1095 LINE SMOOTH",
"751 1095 OFFCURVE",
"793 918 OFFCURVE",
"793 789 CURVE SMOOTH",
"793 646 OFFCURVE",
"740 486 OFFCURVE",
"541 486 CURVE SMOOTH"
);
}
);
width = 986;
},
{
hints = (
{
origin = "{0, 11}";
type = Corner;
name = _corner.CapRightSerif;
},
{
origin = "{0, 0}";
type = Corner;
name = _corner.CapRightSerif;
},
{
origin = "{0, 12}";
type = Corner;
name = _corner.CapLeftSerif;
}
);
layerId = "CFF67ECA-3B2D-433B-B605-F38590C8F106";
paths = (
{
closed = 1;
nodes = (
"409 0 LINE",
"409 433 LINE",
"470 419 OFFCURVE",
"525 414 OFFCURVE",
"569 414 CURVE SMOOTH",
"816 414 OFFCURVE",
"969 588 OFFCURVE",
"969 791 CURVE SMOOTH",
"969 961 OFFCURVE",
"866 1155 OFFCURVE",
"610 1155 CURVE SMOOTH",
"249 1155 LINE",
"249 0 LINE"
);
},
{
closed = 1;
nodes = (
"542 514 OFFCURVE",
"476 527 OFFCURVE",
"409 548 CURVE",
"409 1050 LINE",
"511 1050 LINE SMOOTH",
"732 1050 OFFCURVE",
"805 922 OFFCURVE",
"805 776 CURVE SMOOTH",
"805 651 OFFCURVE",
"751 514 OFFCURVE",
"593 514 CURVE SMOOTH"
);
}
);
width = 1029;
}
);
leftMetricsKey = H;
unicode = 0050;
},
{
glyphname = Q;
lastChange = "2020-02-13 14:33:42 +0000";
layers = (
{
components = (
{
name = O;
}
);
layerId = "6B6AD122-EF8D-49FE-8C69-4BDE8C56BDD8";
paths = (
{
closed = 1;
nodes = (
"1245 -158 LINE",
"1243 -93 LINE",
"1217 -90 OFFCURVE",
"1191 -87 OFFCURVE",
"1167 -82 CURVE SMOOTH",
"1039 -57 OFFCURVE",
"937 0 OFFCURVE",
"895 118 CURVE",
"660 8 LINE",
"779 -207 OFFCURVE",
"960 -256 OFFCURVE",
"1048 -256 CURVE"
);
}
);
width = 1198;
},
{
components = (
{
name = O;
}
);
layerId = "34301EF7-A2BE-469F-9697-D6100B11FDFE";
paths = (
{
closed = 1;
nodes = (
"1316 -102 LINE",
"1299 -76 LINE",
"1261 -90 OFFCURVE",
"1228 -95 OFFCURVE",
"1177 -95 CURVE SMOOTH",
"1040 -95 OFFCURVE",
"959 -27 OFFCURVE",
"874 81 CURVE",
"788 51 LINE",
"900 -151 OFFCURVE",
"1041 -210 OFFCURVE",
"1189 -210 CURVE"
);
}
);
width = 1196;
},
{
components = (
{
name = O;
}
);
layerId = "CFF67ECA-3B2D-433B-B605-F38590C8F106";
paths = (
{
closed = 1;
nodes = (
"1245 -188 LINE",
"1243 -127 LINE",
"1220 -127 OFFCURVE",
"1198 -126 OFFCURVE",
"1176 -124 CURVE SMOOTH",
"1044 -113 OFFCURVE",
"938 -63 OFFCURVE",
"895 58 CURVE",
"710 -2 LINE",
"839 -217 OFFCURVE",
"960 -256 OFFCURVE",
"1098 -256 CURVE"
);
}
);
width = 1225;
}
);
leftMetricsKey = O;
unicode = 0051;
},
{
glyphname = R;
lastChange = "2020-02-19 12:11:24 +0000";
layers = (
{
hints = (
{
origin = "{0, 0}";
scale = "{1.152, 1}";
type = Corner;
name = _corner.CapRightSerif;
},
{
origin = "{0, 24}";
type = Corner;
name = _corner.CapRightSerif;
},
{
origin = "{0, 25}";
type = Corner;
name = _corner.CapLeftSerif;
}
);
layerId = "6B6AD122-EF8D-49FE-8C69-4BDE8C56BDD8";
paths = (
{
closed = 1;
nodes = (
"405 0 LINE",
"405 464 LINE",
"450 463 OFFCURVE",
"481 461 OFFCURVE",
"510 461 CURVE SMOOTH",
"598 461 OFFCURVE",
"632 400 OFFCURVE",
"651 343 CURVE SMOOTH",
"763 0 LINE",
"1063 0 LINE",
"1074 56 LINE",
"1072 64 LINE",
"1008 100 LINE",
"901 349 LINE SMOOTH",
"864 435 OFFCURVE",
"809 479 OFFCURVE",
"744 501 CURVE",
"744 508 LINE",
"894 572 OFFCURVE",
"964 694 OFFCURVE",
"964 832 CURVE SMOOTH",
"964 990 OFFCURVE",
"874 1155 OFFCURVE",
"563 1155 CURVE SMOOTH",
"163 1155 LINE",
"163 0 LINE"
);
},
{
closed = 1;
nodes = (
"498 593 OFFCURVE",
"459 593 OFFCURVE",
"405 598 CURVE",
"405 1012 LINE",
"469 1012 LINE SMOOTH",
"649 1012 OFFCURVE",
"723 936 OFFCURVE",
"723 810 CURVE SMOOTH",
"723 700 OFFCURVE",
"668 593 OFFCURVE",
"533 593 CURVE SMOOTH"
);
}
);
width = 1122;
},
{
hints = (
{
origin = "{0, 0}";
scale = "{0.81649, 0.74227}";
type = Corner;
name = _corner.CapRightSerif;
},
{
origin = "{0, 24}";
scale = "{0.74227, 0.74227}";
type = Corner;
name = _corner.CapRightSerif;
},
{
origin = "{0, 25}";
scale = "{0.74227, 0.74227}";
type = Corner;
name = _corner.CapLeftSerif;
}
);
layerId = "34301EF7-A2BE-469F-9697-D6100B11FDFE";
paths = (
{
closed = 1;
nodes = (
"344 0 LINE",
"344 562 LINE",
"395 553 OFFCURVE",
"441 551 OFFCURVE",
"476 551 CURVE SMOOTH",
"570 551 OFFCURVE",
"644 504 OFFCURVE",
"685 399 CURVE SMOOTH",
"842 0 LINE",
"1040 0 LINE",
"1049 42 LINE",
"1046 47 LINE",
"946 75 LINE",
"813 402 LINE SMOOTH",
"762 528 OFFCURVE",
"688 549 OFFCURVE",
"608 567 CURVE",
"608 570 LINE",
"753 612 OFFCURVE",
"846 725 OFFCURVE",
"846 858 CURVE SMOOTH",
"846 1015 OFFCURVE",
"713 1155 OFFCURVE",
"518 1155 CURVE SMOOTH",
"225 1155 LINE",
"225 0 LINE"
);
},
{
closed = 1;
nodes = (
"443 607 OFFCURVE",
"395 615 OFFCURVE",
"344 630 CURVE",
"344 1095 LINE",
"497 1095 LINE SMOOTH",
"656 1095 OFFCURVE",
"717 984 OFFCURVE",
"717 852 CURVE SMOOTH",
"717 744 OFFCURVE",
"675 601 OFFCURVE",
"494 606 CURVE SMOOTH"
);
}
);
width = 1101;
},
{
hints = (
{
origin = "{0, 0}";
type = Corner;
name = _corner.CapRightSerif;
},
{
origin = "{0, 24}";
type = Corner;
name = _corner.CapRightSerif;
options = 2;
},
{
origin = "{0, 25}";
type = Corner;
name = _corner.CapLeftSerif;
}
);
layerId = "CFF67ECA-3B2D-433B-B605-F38590C8F106";
paths = (
{
closed = 1;
nodes = (
"409 0 LINE",
"409 509 LINE",
"467 505 OFFCURVE",
"525 503 OFFCURVE",
"592 503 CURVE SMOOTH",
"675 503 OFFCURVE",
"702 461 OFFCURVE",
"725 398 CURVE SMOOTH",
"872 0 LINE",
"1119 0 LINE",
"1127 42 LINE",
"1123 52 LINE",
"1020 87 LINE",
"897 401 LINE SMOOTH",
"859 500 OFFCURVE",
"807 532 OFFCURVE",
"737 541 CURVE",
"737 546 LINE",
"864 595 OFFCURVE",
"975 712 OFFCURVE",
"975 862 CURVE SMOOTH",
"975 996 OFFCURVE",
"885 1155 OFFCURVE",
"628 1155 CURVE SMOOTH",
"249 1155 LINE",
"249 0 LINE"
);
},
{
closed = 1;
nodes = (
"526 605 OFFCURVE",
"467 605 OFFCURVE",
"409 612 CURVE",
"409 1047 LINE",
"511 1047 LINE SMOOTH",
"752 1047 OFFCURVE",
"809 940 OFFCURVE",
"809 834 CURVE SMOOTH",
"809 710 OFFCURVE",
"731 605 OFFCURVE",
"584 605 CURVE SMOOTH"
);
}
);
width = 1176;
}
);
leftMetricsKey = H;
unicode = 0052;
},
{
glyphname = S;
lastChange = "2020-02-19 12:12:36 +0000";
layers = (
{
layerId = "6B6AD122-EF8D-49FE-8C69-4BDE8C56BDD8";
paths = (
{
closed = 1;
nodes = (
"701 -30 OFFCURVE",
"871 92 OFFCURVE",
"871 315 CURVE SMOOTH",
"871 716 OFFCURVE",
"303 648 OFFCURVE",
"303 886 CURVE SMOOTH",
"303 963 OFFCURVE",
"362 1026 OFFCURVE",
"456 1026 CURVE SMOOTH",
"595 1026 OFFCURVE",
"687 892 OFFCURVE",
"713 840 CURVE",
"799 857 LINE",
"799 1143 LINE",
"746 1164 OFFCURVE",
"651 1185 OFFCURVE",
"551 1185 CURVE SMOOTH",
"287 1185 OFFCURVE",
"90 1064 OFFCURVE",
"90 819 CURVE SMOOTH",
"90 428 OFFCURVE",
"626 530 OFFCURVE",
"637 251 CURVE SMOOTH",
"641 153 OFFCURVE",
"573 117 OFFCURVE",
"500 117 CURVE SMOOTH",
"355 117 OFFCURVE",
"270 255 OFFCURVE",
"193 366 CURVE",
"99 347 LINE",
"129 19 LINE",
"181 3 OFFCURVE",
"298 -30 OFFCURVE",
"432 -30 CURVE SMOOTH"
);
}
);
width = 951;
},
{
layerId = "34301EF7-A2BE-469F-9697-D6100B11FDFE";
paths = (
{
closed = 1;
nodes = (
"603 -41 OFFCURVE",
"746 91 OFFCURVE",
"746 277 CURVE SMOOTH",
"746 660 OFFCURVE",
"155 568 OFFCURVE",
"155 897 CURVE SMOOTH",
"155 1030 OFFCURVE",
"248 1117 OFFCURVE",
"390 1117 CURVE SMOOTH",
"514 1117 OFFCURVE",
"614 1045 OFFCURVE",
"643 751 CURVE",
"686 755 LINE",
"680 1089 LINE",
"591 1155 OFFCURVE",
"496 1175 OFFCURVE",
"421 1175 CURVE SMOOTH",
"231 1175 OFFCURVE",
"53 1053 OFFCURVE",
"53 848 CURVE SMOOTH",
"53 467 OFFCURVE",
"642 555 OFFCURVE",
"642 222 CURVE SMOOTH",
"642 60 OFFCURVE",
"500 17 OFFCURVE",
"392 17 CURVE SMOOTH",
"253 17 OFFCURVE",
"154 89 OFFCURVE",
"82 382 CURVE",
"40 378 LINE",
"88 29 LINE",
"178 -19 OFFCURVE",
"271 -41 OFFCURVE",
"366 -41 CURVE SMOOTH"
);
}
);
width = 786;
},
{
layerId = "CFF67ECA-3B2D-433B-B605-F38590C8F106";
paths = (
{
closed = 1;
nodes = (
"682 -37 OFFCURVE",
"834 107 OFFCURVE",
"834 302 CURVE SMOOTH",
"834 697 OFFCURVE",
"248 588 OFFCURVE",
"248 883 CURVE SMOOTH",
"248 992 OFFCURVE",
"332 1070 OFFCURVE",
"465 1070 CURVE SMOOTH",
"595 1070 OFFCURVE",
"689 995 OFFCURVE",
"718 797 CURVE",
"780 805 LINE",
"780 1114 LINE",
"700 1160 OFFCURVE",
"598 1179 OFFCURVE",
"515 1179 CURVE SMOOTH",
"292 1179 OFFCURVE",
"107 1051 OFFCURVE",
"107 835 CURVE SMOOTH",
"107 446 OFFCURVE",
"676 556 OFFCURVE",
"676 253 CURVE SMOOTH",
"676 115 OFFCURVE",
"554 72 OFFCURVE",
"451 72 CURVE SMOOTH",
"313 72 OFFCURVE",
"210 148 OFFCURVE",
"141 356 CURVE",
"80 348 LINE",
"123 15 LINE",
"218 -17 OFFCURVE",
"320 -37 OFFCURVE",
"418 -37 CURVE SMOOTH"
);
}
);
width = 914;
}
);
unicode = 0053;
},
{
glyphname = T;
lastChange = "2020-02-28 19:51:14 +0000";
layers = (
{
hints = (
{
origin = "{0, 0}";
scale = "{0.96, 0.96}";
type = Corner;
name = _corner.CapRightSerif;
},
{
origin = "{0, 3}";
scale = "{0.96, 0.96}";
type = Corner;
name = _corner.CapLeftSerif;
}
);
layerId = "6B6AD122-EF8D-49FE-8C69-4BDE8C56BDD8";
paths = (
{
closed = 1;
nodes = (
"618 0 LINE",
"618 1155 LINE",
"377 1155 LINE",
"377 0 LINE"
);
},
{
closed = 1;
nodes = (
"109 844 LINE",
"211 976 OFFCURVE",
"272 1013 OFFCURVE",
"357 1013 CURVE SMOOTH",
"638 1013 LINE SMOOTH",
"723 1013 OFFCURVE",
"784 976 OFFCURVE",
"886 844 CURVE",
"893 840 LINE",
"965 847 LINE",
"965 1148 LINE",
"931 1169 LINE",
"884 1164 OFFCURVE",
"836 1160 OFFCURVE",
"789 1155 CURVE",
"206 1155 LINE",
"159 1160 OFFCURVE",
"111 1164 OFFCURVE",
"64 1169 CURVE",
"30 1148 LINE",
"30 847 LINE",
"102 840 LINE"
);
}
);
width = 995;
},
{
hints = (
{
origin = "{0, 0}";
scale = "{0.74227, 0.74227}";
type = Corner;
name = _corner.CapRightSerif;
},
{
origin = "{0, 3}";
scale = "{0.74227, 0.74227}";
type = Corner;
name = _corner.CapLeftSerif;
}
);
layerId = "34301EF7-A2BE-469F-9697-D6100B11FDFE";
paths = (
{
closed = 1;
nodes = (
"567 0 LINE",
"567 1155 LINE",
"447 1155 LINE",
"447 0 LINE"
);
},
{
closed = 1;
nodes = (
"39 772 LINE",
"81 1024 OFFCURVE",
"132 1091 OFFCURVE",
"217 1091 CURVE SMOOTH",
"798 1091 LINE SMOOTH",
"883 1091 OFFCURVE",
"934 1024 OFFCURVE",
"976 772 CURVE",
"983 768 LINE",
"1015 775 LINE",
"1015 1178 LINE",
"1001 1189 LINE",
"968 1182 OFFCURVE",
"908 1155 OFFCURVE",
"839 1155 CURVE SMOOTH",
"176 1155 LINE SMOOTH",
"107 1155 OFFCURVE",
"47 1182 OFFCURVE",
"14 1189 CURVE",
"0 1178 LINE",
"0 775 LINE",
"32 768 LINE"
);
}
);
width = 1015;
},
{
hints = (
{
origin = "{0, 0}";
type = Corner;
name = _corner.CapRightSerif;
options = 1;
},
{
origin = "{0, 3}";
type = Corner;
name = _corner.CapLeftSerif;
}
);
layerId = "CFF67ECA-3B2D-433B-B605-F38590C8F106";
paths = (
{
closed = 1;
nodes = (
"480 10 LINE",
"723 1155 LINE",
"573 1155 LINE",
"330 10 LINE"
);
},
{
closed = 1;
nodes = (
"172 760 LINE",
"273 992 OFFCURVE",
"340 1049 OFFCURVE",
"405 1049 CURVE SMOOTH",
"866 1049 LINE SMOOTH",
"931 1049 OFFCURVE",
"968 1004 OFFCURVE",
"971 772 CURVE",
"977 762 LINE",
"1028 769 LINE",
"1083 1178 LINE",
"1067 1190 LINE",
"1035 1183 OFFCURVE",
"918 1155 OFFCURVE",
"899 1155 CURVE SMOOTH",
"396 1155 LINE SMOOTH",
"377 1155 OFFCURVE",
"273 1181 OFFCURVE",
"241 1188 CURVE",
"228 1178 LINE",
"113 769 LINE",
"164 762 LINE"
);
}
);
width = 985;
}
);
unicode = 0054;
},
{
glyphname = U;
lastChange = "2020-02-19 10:00:48 +0000";
layers = (
{
hints = (
{
origin = "{0, 10}";
type = Corner;
name = _corner.CapRightSerif;
},
{
origin = "{0, 9}";
type = Corner;
name = _corner.CapLeftSerif;
},
{
origin = "{0, 1}";
type = Corner;
name = _corner.CapRightSerif;
},
{
origin = "{0, 0}";
type = Corner;
name = _corner.CapLeftSerif;
}
);
layerId = "6B6AD122-EF8D-49FE-8C69-4BDE8C56BDD8";
paths = (
{
closed = 1;
nodes = (
"405 1157 LINE",
"163 1157 LINE",
"163 371 LINE SMOOTH",
"163 120 OFFCURVE",
"334 -30 OFFCURVE",
"600 -30 CURVE SMOOTH",
"824 -30 OFFCURVE",
"1054 89 OFFCURVE",
"1054 387 CURVE SMOOTH",
"1054 1157 LINE",
"902 1157 LINE",
"902 377 LINE SMOOTH",
"902 217 OFFCURVE",
"793 127 OFFCURVE",
"648 127 CURVE SMOOTH",
"501 127 OFFCURVE",
"405 216 OFFCURVE",
"405 411 CURVE SMOOTH"
);
}
);
width = 1217;
},
{
hints = (
{
origin = "{0, 0}";
scale = "{0.74227, 0.74227}";
type = Corner;
name = _corner.CapLeftSerif;
},
{
origin = "{0, 1}";
scale = "{0.74227, 0.74227}";
type = Corner;
name = _corner.CapRightSerif;
},
{
origin = "{0, 9}";
scale = "{0.74227, 0.74227}";
type = Corner;
name = _corner.CapLeftSerif;
},
{
origin = "{0, 10}";
scale = "{0.74227, 0.74227}";
type = Corner;
name = _corner.CapRightSerif;
}
);
layerId = "34301EF7-A2BE-469F-9697-D6100B11FDFE";
paths = (
{
closed = 1;
nodes = (
"345 1155 LINE",
"225 1155 LINE",
"225 351 LINE SMOOTH",
"225 121 OFFCURVE",
"377 -30 OFFCURVE",
"634 -30 CURVE SMOOTH",
"866 -30 OFFCURVE",
"1067 94 OFFCURVE",
"1067 397 CURVE SMOOTH",
"1067 1155 LINE",
"995 1155 LINE",
"995 389 LINE SMOOTH",
"995 156 OFFCURVE",
"840 47 OFFCURVE",
"659 47 CURVE SMOOTH",
"505 47 OFFCURVE",
"345 126 OFFCURVE",
"345 381 CURVE SMOOTH"
);
}
);
width = 1291;
},
{
hints = (
{
origin = "{0, 1}";
type = Corner;
name = _corner.CapRightSerif;
},
{
origin = "{0, 10}";
type = Corner;
name = _corner.CapRightSerif;
},
{
origin = "{0, 0}";
type = Corner;
name = _corner.CapLeftSerif;
},
{
origin = "{0, 9}";
type = Corner;
name = _corner.CapLeftSerif;
}
);
layerId = "CFF67ECA-3B2D-433B-B605-F38590C8F106";
paths = (
{
closed = 1;
nodes = (
"413 1155 LINE",
"249 1155 LINE",
"249 343 LINE SMOOTH",
"249 113 OFFCURVE",
"404 -38 OFFCURVE",
"675 -38 CURVE SMOOTH",
"914 -38 OFFCURVE",
"1130 80 OFFCURVE",
"1130 377 CURVE SMOOTH",
"1130 1155 LINE",
"1008 1155 LINE",
"1008 371 LINE SMOOTH",
"1008 165 OFFCURVE",
"872 74 OFFCURVE",
"704 74 CURVE SMOOTH",
"556 74 OFFCURVE",
"413 142 OFFCURVE",
"413 373 CURVE SMOOTH"
);
}
);
width = 1379;
}
);
leftMetricsKey = H;
rightMetricsKey = H;
unicode = 0055;
},
{
glyphname = V;
lastChange = "2020-02-19 13:51:54 +0000";
layers = (
{
layerId = "6B6AD122-EF8D-49FE-8C69-4BDE8C56BDD8";
paths = (
{
closed = 1;
nodes = (
"637 0 LINE",
"657 97 LINE",
"393 909 LINE SMOOTH",
"370 980 OFFCURVE",
"363 1042 OFFCURVE",
"423 1100 CURVE",
"423 1111 LINE",
"411 1155 LINE",
"12 1155 LINE",
"0 1111 LINE",
"0 1100 LINE",
"47 1073 OFFCURVE",
"68 1035 OFFCURVE",
"97 957 CURVE SMOOTH",
"448 0 LINE"
);
},
{
closed = 1;
nodes = (
"648 0 LINE",
"936 897 LINE SMOOTH",
"966 989 OFFCURVE",
"1011 1064 OFFCURVE",
"1066 1095 CURVE",
"1066 1106 LINE",
"1053 1155 LINE",
"773 1155 LINE",
"758 1111 LINE",
"758 1100 LINE",
"812 1047 OFFCURVE",
"800 975 OFFCURVE",
"783 921 CURVE SMOOTH",
"497 0 LINE"
);
}
);
width = 1066;
},
{
layerId = "34301EF7-A2BE-469F-9697-D6100B11FDFE";
paths = (
{
closed = 1;
nodes = (
"586 0 LINE",
"616 95 LINE",
"273 986 LINE SMOOTH",
"238 1078 OFFCURVE",
"287 1106 OFFCURVE",
"409 1117 CURVE",
"414 1123 LINE",
"412 1155 LINE",
"3 1155 LINE",
"0 1119 LINE",
"5 1113 LINE",
"37 1107 OFFCURVE",
"96 1093 OFFCURVE",
"139 980 CURVE SMOOTH",
"514 0 LINE"
);
},
{
closed = 1;
nodes = (
"608 0 LINE",
"981 993 LINE SMOOTH",
"1019 1093 OFFCURVE",
"1075 1108 OFFCURVE",
"1118 1114 CURVE",
"1124 1121 LINE",
"1120 1155 LINE",
"762 1155 LINE",
"759 1122 LINE",
"764 1116 LINE",
"902 1104 OFFCURVE",
"940 1091 OFFCURVE",
"901 986 CURVE SMOOTH",
"534 0 LINE"
);
}
);
width = 1128;
},
{
layerId = "CFF67ECA-3B2D-433B-B605-F38590C8F106";
paths = (
{
closed = 1;
nodes = (
"612 0 LINE",
"623 131 LINE",
"308 952 LINE SMOOTH",
"277 1034 OFFCURVE",
"298 1073 OFFCURVE",
"429 1103 CURVE",
"434 1112 LINE",
"429 1155 LINE",
"10 1155 LINE",
"5 1110 LINE",
"10 1101 LINE",
"43 1087 OFFCURVE",
"85 1059 OFFCURVE",
"117 976 CURVE SMOOTH",
"493 0 LINE"
);
},
{
closed = 1;
nodes = (
"650 0 LINE",
"994 980 LINE SMOOTH",
"1021 1058 OFFCURVE",
"1064 1084 OFFCURVE",
"1102 1101 CURVE",
"1106 1107 LINE",
"1101 1155 LINE",
"746 1155 LINE",
"740 1111 LINE",
"745 1104 LINE",
"882 1075 OFFCURVE",
"895 1044 OFFCURVE",
"863 953 CURVE SMOOTH",
"529 0 LINE"
);
}
);
width = 1101;
}
);
unicode = 0056;
},
{
glyphname = W;
lastChange = "2020-02-19 17:46:46 +0000";
layers = (
{
layerId = "6B6AD122-EF8D-49FE-8C69-4BDE8C56BDD8";
paths = (
{
closed = 1;
nodes = (
"637 0 LINE",
"657 97 LINE",
"393 909 LINE SMOOTH",
"370 980 OFFCURVE",
"363 1042 OFFCURVE",
"423 1100 CURVE",
"423 1111 LINE",
"411 1155 LINE",
"12 1155 LINE",
"0 1111 LINE",
"0 1100 LINE",
"47 1073 OFFCURVE",
"68 1035 OFFCURVE",
"97 957 CURVE SMOOTH",
"448 0 LINE"
);
},
{
closed = 1;
nodes = (
"648 0 LINE",
"872 697 LINE",
"770 867 LINE",
"501 0 LINE"
);
},
{
closed = 1;
nodes = (
"1237 0 LINE",
"1257 97 LINE",
"993 909 LINE SMOOTH",
"970 980 OFFCURVE",
"963 1042 OFFCURVE",
"1023 1100 CURVE",
"1023 1111 LINE",
"1011 1155 LINE",
"612 1155 LINE",
"600 1111 LINE",
"600 1100 LINE",
"647 1073 OFFCURVE",
"668 1035 OFFCURVE",
"697 957 CURVE SMOOTH",
"1048 0 LINE"
);
},
{
closed = 1;
nodes = (
"1248 0 LINE",
"1516 897 LINE SMOOTH",
"1544 989 OFFCURVE",
"1591 1069 OFFCURVE",
"1636 1100 CURVE",
"1636 1111 LINE",
"1623 1155 LINE",
"1349 1155 LINE",
"1334 1111 LINE",
"1334 1100 LINE",
"1388 1047 OFFCURVE",
"1375 975 OFFCURVE",
"1359 921 CURVE SMOOTH",
"1093 0 LINE"
);
}
);
width = 1636;
},
{
layerId = "34301EF7-A2BE-469F-9697-D6100B11FDFE";
paths = (
{
closed = 1;
nodes = (
"536 0 LINE",
"566 95 LINE",
"273 986 LINE SMOOTH",
"243 1078 OFFCURVE",
"287 1106 OFFCURVE",
"409 1117 CURVE",
"414 1123 LINE",
"412 1155 LINE",
"3 1155 LINE",
"0 1119 LINE",
"5 1113 LINE",
"37 1107 OFFCURVE",
"101 1093 OFFCURVE",
"139 980 CURVE SMOOTH",
"464 0 LINE"
);
},
{
closed = 1;
nodes = (
"555 0 LINE",
"887 1065 LINE",
"880 1169 LINE",
"841 1169 LINE",
"479 0 LINE"
);
},
{
closed = 1;
nodes = (
"1186 0 LINE",
"1221 95 LINE",
"883 1169 LINE",
"841 1169 LINE",
"806 977 LINE",
"1114 0 LINE"
);
},
{
closed = 1;
nodes = (
"1208 0 LINE",
"1531 993 LINE SMOOTH",
"1564 1093 OFFCURVE",
"1625 1108 OFFCURVE",
"1668 1114 CURVE",
"1674 1121 LINE",
"1670 1155 LINE",
"1312 1155 LINE",
"1309 1122 LINE",
"1314 1116 LINE",
"1452 1104 OFFCURVE",
"1485 1091 OFFCURVE",
"1451 986 CURVE SMOOTH",
"1131 0 LINE"
);
}
);
width = 1678;
},
{
layerId = "CFF67ECA-3B2D-433B-B605-F38590C8F106";
paths = (
{
closed = 1;
nodes = (
"535 0 LINE",
"552 131 LINE",
"308 952 LINE SMOOTH",
"284 1034 OFFCURVE",
"298 1073 OFFCURVE",
"439 1103 CURVE",
"444 1112 LINE",
"439 1155 LINE",
"10 1155 LINE",
"5 1111 LINE",
"10 1102 LINE",
"43 1087 OFFCURVE",
"92 1059 OFFCURVE",
"117 976 CURVE SMOOTH",
"416 0 LINE"
);
},
{
closed = 1;
nodes = (
"573 0 LINE",
"892 1034 LINE",
"872 1174 LINE",
"811 1174 LINE",
"452 0 LINE"
);
},
{
closed = 1;
nodes = (
"1205 0 LINE",
"1216 142 LINE",
"872 1174 LINE",
"811 1174 LINE",
"776 923 LINE",
"1086 0 LINE"
);
},
{
closed = 1;
nodes = (
"1243 0 LINE",
"1497 980 LINE SMOOTH",
"1517 1058 OFFCURVE",
"1567 1084 OFFCURVE",
"1605 1102 CURVE",
"1609 1108 LINE",
"1604 1155 LINE",
"1239 1155 LINE",
"1233 1111 LINE",
"1238 1104 LINE",
"1385 1075 OFFCURVE",
"1389 1044 OFFCURVE",
"1366 953 CURVE SMOOTH",
"1122 0 LINE"
);
}
);
width = 1604;
}
);
leftMetricsKey = V;
rightMetricsKey = V;
unicode = 0057;
},
{
glyphname = X;
lastChange = "2020-02-19 14:03:18 +0000";
layers = (
{
layerId = "6B6AD122-EF8D-49FE-8C69-4BDE8C56BDD8";
paths = (
{
closed = 1;
nodes = (
"1054 0 LINE",
"1066 44 LINE",
"1066 55 LINE",
"1019 82 OFFCURVE",
"978 126 OFFCURVE",
"929 198 CURVE SMOOTH",
"446 909 LINE SMOOTH",
"399 978 OFFCURVE",
"416 1044 OFFCURVE",
"453 1102 CURVE",
"453 1113 LINE",
"434 1155 LINE",
"30 1155 LINE",
"18 1111 LINE",
"18 1100 LINE",
"65 1073 OFFCURVE",
"96 1029 OFFCURVE",
"145 957 CURVE SMOOTH",
"628 246 LINE SMOOTH",
"675 177 OFFCURVE",
"658 111 OFFCURVE",
"618 53 CURVE",
"618 42 LINE",
"638 0 LINE"
);
},
{
closed = 1;
nodes = (
"343 0 LINE",
"361 42 LINE",
"361 53 LINE",
"337 90 OFFCURVE",
"331 155 OFFCURVE",
"371 223 CURVE SMOOTH",
"615 634 LINE",
"508 699 LINE",
"221 258 LINE SMOOTH",
"169 178 OFFCURVE",
"95 91 OFFCURVE",
"30 60 CURVE",
"30 49 LINE",
"43 0 LINE"
);
},
{
closed = 1;
nodes = (
"858 897 LINE SMOOTH",
"910 977 OFFCURVE",
"980 1064 OFFCURVE",
"1042 1095 CURVE",
"1042 1106 LINE",
"1029 1155 LINE",
"729 1155 LINE",
"709 1113 LINE",
"709 1102 LINE",
"734 1029 OFFCURVE",
"714 951 OFFCURVE",
"680 892 CURVE SMOOTH",
"464 521 LINE",
"571 456 LINE"
);
}
);
width = 1076;
},
{
layerId = "CFF67ECA-3B2D-433B-B605-F38590C8F106";
paths = (
{
closed = 1;
nodes = (
"1085 0 LINE",
"1090 44 LINE",
"1085 54 LINE",
"1018 79 OFFCURVE",
"959 115 OFFCURVE",
"919 183 CURVE SMOOTH",
"438 1000 LINE SMOOTH",
"408 1051 OFFCURVE",
"405 1079 OFFCURVE",
"505 1104 CURVE",
"511 1112 LINE",
"503 1155 LINE",
"98 1155 LINE",
"92 1114 LINE",
"97 1104 LINE",
"168 1076 OFFCURVE",
"221 1041 OFFCURVE",
"261 973 CURVE SMOOTH",
"742 155 LINE SMOOTH",
"777 95 OFFCURVE",
"771 74 OFFCURVE",
"671 54 CURVE",
"667 44 LINE",
"675 0 LINE"
);
},
{
closed = 1;
nodes = (
"436 0 LINE",
"442 44 LINE",
"438 54 LINE",
"341 82 OFFCURVE",
"354 94 OFFCURVE",
"387 155 CURVE SMOOTH",
"575 499 LINE",
"516 583 LINE",
"249 165 LINE SMOOTH",
"216 113 OFFCURVE",
"168 79 OFFCURVE",
"86 54 CURVE",
"80 44 LINE",
"86 0 LINE"
);
},
{
closed = 1;
nodes = (
"912 991 LINE SMOOTH",
"948 1047 OFFCURVE",
"1001 1080 OFFCURVE",
"1084 1104 CURVE",
"1088 1114 LINE",
"1084 1155 LINE",
"729 1155 LINE",
"722 1111 LINE",
"728 1104 LINE",
"826 1073 OFFCURVE",
"810 1049 OFFCURVE",
"782 1000 CURVE SMOOTH",
"571 626 LINE",
"666 606 LINE"
);
}
);
width = 1170;
},
{
layerId = "34301EF7-A2BE-469F-9697-D6100B11FDFE";
paths = (
{
closed = 1;
nodes = (
"1004 0 LINE",
"1005 32 LINE",
"999 41 LINE",
"955 50 OFFCURVE",
"905 97 OFFCURVE",
"853 175 CURVE SMOOTH",
"312 986 LINE SMOOTH",
"258 1067 OFFCURVE",
"323 1105 OFFCURVE",
"420 1116 CURVE",
"427 1125 LINE",
"425 1155 LINE",
"24 1155 LINE",
"23 1121 LINE",
"29 1114 LINE",
"67 1104 OFFCURVE",
"112 1065 OFFCURVE",
"169 980 CURVE SMOOTH",
"710 169 LINE SMOOTH",
"764 88 OFFCURVE",
"700 50 OFFCURVE",
"605 39 CURVE",
"595 29 LINE",
"597 0 LINE"
);
},
{
closed = 1;
nodes = (
"372 0 LINE",
"374 32 LINE",
"368 39 LINE",
"257 52 OFFCURVE",
"201 79 OFFCURVE",
"259 169 CURVE SMOOTH",
"500 545 LINE",
"484 641 LINE",
"180 162 LINE SMOOTH",
"134 89 OFFCURVE",
"85 50 OFFCURVE",
"41 41 CURVE",
"36 33 LINE",
"38 0 LINE"
);
},
{
closed = 1;
nodes = (
"837 993 LINE SMOOTH",
"884 1067 OFFCURVE",
"933 1105 OFFCURVE",
"975 1114 CURVE",
"981 1123 LINE",
"979 1155 LINE",
"647 1155 LINE",
"645 1125 LINE",
"652 1116 LINE",
"762 1103 OFFCURVE",
"800 1055 OFFCURVE",
"756 986 CURVE SMOOTH",
"517 608 LINE",
"537 520 LINE"
);
}
);
width = 1022;
}
);
unicode = 0058;
},
{
glyphname = Y;
lastChange = "2020-02-19 14:00:30 +0000";
layers = (
{
hints = (
{
origin = "{0, 0}";
scale = "{0.96, 0.96}";
type = Corner;
name = _corner.CapRightSerif;
},
{
origin = "{0, 28}";
scale = "{0.96, 0.96}";
type = Corner;
name = _corner.CapLeftSerif;
}
);
layerId = "6B6AD122-EF8D-49FE-8C69-4BDE8C56BDD8";
paths = (
{
closed = 1;
nodes = (
"648 0 LINE",
"648 453 LINE",
"870 870 LINE SMOOTH",
"940 1002 OFFCURVE",
"1018 1073 OFFCURVE",
"1053 1098 CURVE",
"1053 1109 LINE",
"1037 1155 LINE",
"733 1155 LINE",
"721 1110 LINE",
"721 1100 LINE",
"755 1071 OFFCURVE",
"752 1008 OFFCURVE",
"718 935 CURVE SMOOTH",
"565 610 LINE",
"383 956 LINE SMOOTH",
"354 1011 OFFCURVE",
"364 1071 OFFCURVE",
"400 1100 CURVE",
"400 1110 LINE",
"388 1155 LINE",
"17 1155 LINE",
"0 1111 LINE",
"0 1100 LINE",
"26 1084 OFFCURVE",
"102 1007 OFFCURVE",
"158 905 CURVE SMOOTH",
"406 455 LINE",
"406 0 LINE"
);
}
);
width = 1053;
},
{
hints = (
{
origin = "{0, 6}";
type = Corner;
name = _corner.CapRightSerif;
},
{
origin = "{0, 5}";
type = Corner;
name = _corner.CapLeftSerif;
}
);
layerId = "CFF67ECA-3B2D-433B-B605-F38590C8F106";
paths = (
{
closed = 1;
nodes = (
"10 1103 LINE",
"41 1088 OFFCURVE",
"72 1067 OFFCURVE",
"109 1000 CURVE SMOOTH",
"407 460 LINE",
"407 0 LINE",
"567 0 LINE",
"567 494 LINE",
"855 995 LINE SMOOTH",
"897 1069 OFFCURVE",
"925 1089 OFFCURVE",
"965 1103 CURVE",
"970 1109 LINE",
"964 1155 LINE",
"628 1155 LINE",
"622 1110 LINE",
"626 1103 LINE",
"757 1080 OFFCURVE",
"760 1048 OFFCURVE",
"726 987 CURVE SMOOTH",
"508 601 LINE",
"308 965 LINE SMOOTH",
"264 1046 OFFCURVE",
"266 1076 OFFCURVE",
"391 1103 CURVE",
"395 1110 LINE",
"389 1155 LINE",
"12 1155 LINE",
"5 1109 LINE"
);
}
);
width = 965;
},
{
hints = (
{
origin = "{0, 0}";
scale = "{0.74227, 0.74227}";
type = Corner;
name = _corner.CapRightSerif;
},
{
origin = "{0, 29}";
scale = "{0.74227, 0.74227}";
type = Corner;
name = _corner.CapLeftSerif;
}
);
layerId = "34301EF7-A2BE-469F-9697-D6100B11FDFE";
paths = (
{
closed = 1;
nodes = (
"534 0 LINE",
"534 464 LINE",
"808 1033 LINE SMOOTH",
"837 1094 OFFCURVE",
"885 1105 OFFCURVE",
"926 1114 CURVE",
"929 1120 LINE",
"925 1155 LINE",
"612 1155 LINE",
"609 1122 LINE",
"612 1117 LINE",
"752 1106 OFFCURVE",
"764 1094 OFFCURVE",
"739 1043 CURVE SMOOTH",
"468 485 LINE",
"531 485 LINE",
"249 1043 LINE SMOOTH",
"224 1093 OFFCURVE",
"243 1109 OFFCURVE",
"369 1117 CURVE",
"372 1122 LINE",
"369 1155 LINE",
"4 1155 LINE",
"0 1122 LINE",
"5 1116 LINE",
"30 1108 OFFCURVE",
"84 1093 OFFCURVE",
"114 1033 CURVE SMOOTH",
"414 439 LINE",
"414 0 LINE"
);
}
);
width = 933;
}
);
leftMetricsKey = V;
rightMetricsKey = V;
unicode = 0059;
},
{
glyphname = Z;
lastChange = "2020-02-13 14:34:41 +0000";
layers = (
{
layerId = "6B6AD122-EF8D-49FE-8C69-4BDE8C56BDD8";
paths = (
{
closed = 1;
nodes = (
"99 0 LINE",
"900 0 LINE",
"954 321 LINE",
"882 366 LINE",
"869 366 LINE",
"766 262 OFFCURVE",
"663 142 OFFCURVE",
"499 142 CURVE SMOOTH",
"419 142 LINE",
"928 1104 LINE",
"905 1155 LINE",
"109 1155 LINE",
"109 822 LINE",
"198 818 LINE",
"277 930 OFFCURVE",
"381 1013 OFFCURVE",
"532 1013 CURVE SMOOTH",
"607 1013 LINE",
"95 52 LINE"
);
}
);
width = 1044;
},
{
layerId = "34301EF7-A2BE-469F-9697-D6100B11FDFE";
paths = (
{
closed = 1;
nodes = (
"67 0 LINE",
"837 0 LINE",
"906 404 LINE",
"870 416 LINE",
"863 413 LINE",
"779 119 OFFCURVE",
"699 64 OFFCURVE",
"547 64 CURVE SMOOTH",
"237 64 LINE",
"861 1145 LINE",
"857 1155 LINE",
"95 1155 LINE",
"95 759 LINE",
"136 756 LINE",
"173 1047 OFFCURVE",
"234 1093 OFFCURVE",
"382 1093 CURVE SMOOTH",
"686 1093 LINE",
"60 12 LINE"
);
}
);
width = 976;
},
{
layerId = "CFF67ECA-3B2D-433B-B605-F38590C8F106";
paths = (
{
closed = 1;
nodes = (
"103 0 LINE",
"847 0 LINE",
"897 361 LINE",
"847 372 LINE",
"839 368 LINE",
"764 162 OFFCURVE",
"675 106 OFFCURVE",
"569 106 CURVE SMOOTH",
"317 106 LINE",
"887 1118 LINE",
"870 1155 LINE",
"118 1155 LINE",
"118 808 LINE",
"168 805 LINE",
"222 1000 OFFCURVE",
"292 1053 OFFCURVE",
"441 1053 CURVE SMOOTH",
"663 1053 LINE",
"89 38 LINE"
);
}
);
width = 1011;
}
);
unicode = 005A;
},
{
glyphname = a;
lastChange = "2020-03-07 10:32:59 +0000";
layers = (
{
layerId = "6B6AD122-EF8D-49FE-8C69-4BDE8C56BDD8";
paths = (
{
closed = 1;
nodes = (
"18 121 OFFCURVE",
"47 -30 OFFCURVE",
"198 -30 CURVE SMOOTH",
"301 -30 OFFCURVE",
"518 136 OFFCURVE",
"573 288 CURVE",
"539 415 LINE",
"675 701 LINE",
"608 796 OFFCURVE",
"513 861 OFFCURVE",
"442 861 CURVE SMOOTH",
"284 861 OFFCURVE",
"18 539 OFFCURVE",
"18 229 CURVE SMOOTH"
);
},
{
closed = 1;
nodes = (
"229 504 OFFCURVE",
"269 699 OFFCURVE",
"368 699 CURVE SMOOTH",
"457 699 OFFCURVE",
"563 542 OFFCURVE",
"537 416 CURVE SMOOTH",
"495 213 OFFCURVE",
"413 153 OFFCURVE",
"338 153 CURVE SMOOTH",
"246 153 OFFCURVE",
"229 235 OFFCURVE",
"229 371 CURVE SMOOTH"
);
},
{
closed = 1;
nodes = (
"832 826 LINE",
"774 861 LINE",
"613 776 LINE",
"477 129 LINE SMOOTH",
"477 129 OFFCURVE",
"477 128 OFFCURVE",
"477 128 CURVE",
"465 66 OFFCURVE",
"549 -30 OFFCURVE",
"604 -30 CURVE SMOOTH",
"706 -30 OFFCURVE",
"823 106 OFFCURVE",
"878 195 CURVE",
"878 209 LINE",
"834 260 LINE",
"820 260 LINE",
"759 205 OFFCURVE",
"738 200 OFFCURVE",
"717 200 CURVE SMOOTH",
"707 200 OFFCURVE",
"702 209 OFFCURVE",
"705 223 CURVE SMOOTH"
);
}
);
width = 948;
},
{
background = {
paths = (
{
closed = 1;
nodes = (
"229 -30 OFFCURVE",
"338 80 OFFCURVE",
"511 304 CURVE",
"478 392 LINE",
"444 229 OFFCURVE",
"242 80 OFFCURVE",
"180 80 CURVE SMOOTH",
"138 80 OFFCURVE",
"129 139 OFFCURVE",
"129 192 CURVE SMOOTH",
"129 351 OFFCURVE",
"198 694 OFFCURVE",
"305 694 CURVE SMOOTH",
"379 694 OFFCURVE",
"467 678 OFFCURVE",
"561 648 CURVE",
"634 740 LINE",
"508 769 OFFCURVE",
"445 780 OFFCURVE",
"389 780 CURVE SMOOTH",
"151 780 OFFCURVE",
"27 418 OFFCURVE",
"27 123 CURVE SMOOTH",
"27 29 OFFCURVE",
"65 -30 OFFCURVE",
"133 -30 CURVE SMOOTH"
);
},
{
closed = 1;
nodes = (
"634 740 LINE",
"545 721 LINE",
"405 60 LINE",
"399 31 OFFCURVE",
"454 -30 OFFCURVE",
"486 -30 CURVE SMOOTH",
"487 -30 LINE SMOOTH",
"531 -30 OFFCURVE",
"611 25 OFFCURVE",
"724 114 CURVE",
"724 126 LINE",
"712 149 LINE",
"700 149 LINE",
"596 82 OFFCURVE",
"528 45 OFFCURVE",
"511 45 CURVE SMOOTH",
"499 45 OFFCURVE",
"494 57 OFFCURVE",
"496 68 CURVE",
"638 733 LINE"
);
}
);
};
layerId = "34301EF7-A2BE-469F-9697-D6100B11FDFE";
paths = (
{
closed = 1;
nodes = (
"456 210 LINE",
"338 106 OFFCURVE",
"233 55 OFFCURVE",
"175 55 CURVE SMOOTH",
"133 55 OFFCURVE",
"124 134 OFFCURVE",
"124 187 CURVE SMOOTH",
"124 346 OFFCURVE",
"198 694 OFFCURVE",
"305 694 CURVE SMOOTH",
"379 694 OFFCURVE",
"467 679 OFFCURVE",
"561 654 CURVE",
"634 740 LINE",
"508 769 OFFCURVE",
"445 780 OFFCURVE",
"389 780 CURVE SMOOTH",
"151 780 OFFCURVE",
"27 418 OFFCURVE",
"27 123 CURVE SMOOTH",
"27 29 OFFCURVE",
"65 -30 OFFCURVE",
"140 -30 CURVE SMOOTH",
"204 -30 OFFCURVE",
"305 13 OFFCURVE",
"484 189 CURVE"
);
},
{
closed = 1;
nodes = (
"634 740 LINE",
"545 721 LINE",
"405 60 LINE",
"399 31 OFFCURVE",
"454 -30 OFFCURVE",
"486 -30 CURVE SMOOTH",
"487 -30 LINE SMOOTH",
"531 -30 OFFCURVE",
"611 25 OFFCURVE",
"724 114 CURVE",
"724 126 LINE",
"712 149 LINE",
"700 149 LINE",
"596 82 OFFCURVE",
"528 45 OFFCURVE",
"511 45 CURVE SMOOTH",
"499 45 OFFCURVE",
"494 57 OFFCURVE",
"496 68 CURVE",
"638 733 LINE"
);
}
);
width = 749;
},
{
background = {
paths = (
{
closed = 1;
nodes = (
"855 59 LINE",
"855 97 LINE",
"847 104 LINE",
"807 107 OFFCURVE",
"773 114 OFFCURVE",
"746 128 CURVE SMOOTH",
"710 146 OFFCURVE",
"690 178 OFFCURVE",
"690 231 CURVE SMOOTH",
"693 592 LINE SMOOTH",
"694 735 OFFCURVE",
"613 851 OFFCURVE",
"405 851 CURVE SMOOTH",
"309 851 OFFCURVE",
"201 827 OFFCURVE",
"108 783 CURVE",
"108 657 LINE",
"124 647 LINE",
"189 678 OFFCURVE",
"285 706 OFFCURVE",
"368 706 CURVE SMOOTH",
"449 706 OFFCURVE",
"560 679 OFFCURVE",
"557 528 CURVE SMOOTH",
"550 162 LINE SMOOTH",
"548 39 OFFCURVE",
"649 -30 OFFCURVE",
"735 -30 CURVE"
);
},
{
closed = 1;
nodes = (
"383 -30 OFFCURVE",
"474 13 OFFCURVE",
"567 125 CURVE",
"565 209 LINE",
"507 145 OFFCURVE",
"421 75 OFFCURVE",
"337 75 CURVE SMOOTH",
"283 75 OFFCURVE",
"236 101 OFFCURVE",
"236 177 CURVE SMOOTH",
"236 262 OFFCURVE",
"296 357 OFFCURVE",
"584 476 CURVE",
"568 569 LINE",
"405 495 LINE SMOOTH",
"167 387 OFFCURVE",
"85 266 OFFCURVE",
"85 154 CURVE SMOOTH",
"85 48 OFFCURVE",
"152 -30 OFFCURVE",
"284 -30 CURVE SMOOTH"
);
}
);
};
layerId = "CFF67ECA-3B2D-433B-B605-F38590C8F106";
paths = (
{
closed = 1;
nodes = (
"334 -30 OFFCURVE",
"507 176 OFFCURVE",
"629 478 CURVE",
"607 639 LINE",
"524 250 OFFCURVE",
"297 99 OFFCURVE",
"233 99 CURVE SMOOTH",
"190 99 OFFCURVE",
"179 205 OFFCURVE",
"179 266 CURVE SMOOTH",
"179 434 OFFCURVE",
"271 732 OFFCURVE",
"442 732 CURVE SMOOTH",
"494 732 OFFCURVE",
"553 697 OFFCURVE",
"647 619 CURVE",
"681 761 LINE",
"605 821 OFFCURVE",
"549 851 OFFCURVE",
"479 851 CURVE SMOOTH",
"247 851 OFFCURVE",
"45 487 OFFCURVE",
"45 198 CURVE SMOOTH",
"45 80 OFFCURVE",
"80 -30 OFFCURVE",
"189 -30 CURVE SMOOTH"
);
},
{
closed = 1;
nodes = (
"852 254 LINE",
"819 290 LINE",
"810 290 LINE",
"714 170 OFFCURVE",
"663 135 OFFCURVE",
"642 135 CURVE SMOOTH",
"634 135 OFFCURVE",
"630 140 OFFCURVE",
"630 149 CURVE SMOOTH",
"630 154 OFFCURVE",
"631 159 OFFCURVE",
"632 165 CURVE SMOOTH",
"772 821 LINE",
"736 851 LINE",
"638 787 LINE",
"492 97 LINE SMOOTH",
"475 19 OFFCURVE",
"539 -30 OFFCURVE",
"587 -30 CURVE SMOOTH",
"656 -30 OFFCURVE",
"781 127 OFFCURVE",
"852 247 CURVE"
);
}
);
width = 897;
}
);
leftMetricsKey = "=o+5";
unicode = 0061;
},
{
glyphname = b;
lastChange = "2020-03-07 10:15:49 +0000";
layers = (
{
background = {
paths = (
{
closed = 1;
nodes = (
"530 -30 OFFCURVE",
"770 178 OFFCURVE",
"828 453 CURVE SMOOTH",
"873 664 OFFCURVE",
"804 861 OFFCURVE",
"600 861 CURVE SMOOTH",
"465 861 OFFCURVE",
"357 770 OFFCURVE",
"279 712 CURVE",
"304 631 LINE",
"337 657 OFFCURVE",
"372 691 OFFCURVE",
"436 691 CURVE SMOOTH",
"573 691 OFFCURVE",
"616 545 OFFCURVE",
"580 372 CURVE SMOOTH",
"545 211 OFFCURVE",
"472 115 OFFCURVE",
"338 115 CURVE SMOOTH",
"258 115 OFFCURVE",
"216 146 OFFCURVE",
"197 172 CURVE",
"-36 31 LINE",
"65 -4 OFFCURVE",
"173 -30 OFFCURVE",
"267 -30 CURVE SMOOTH"
);
},
{
closed = 1;
nodes = (
"204 179 LINE",
"428 1249 LINE",
"413 1266 LINE",
"124 1159 LINE",
"117 1108 LINE",
"151 1031 LINE",
"-57 54 LINE",
"-36 28 LINE"
);
}
);
};
layerId = "6B6AD122-EF8D-49FE-8C69-4BDE8C56BDD8";
paths = (
{
closed = 1;
nodes = (
"473 1208 LINE",
"406 1266 LINE",
"98 1161 LINE",
"82 1072 LINE",
"92 1059 LINE",
"302 1089 LINE",
"251 1143 LINE",
"41 147 LINE SMOOTH",
"25 70 OFFCURVE",
"159 -30 OFFCURVE",
"300 -30 CURVE SMOOTH",
"539 -30 OFFCURVE",
"825 312 OFFCURVE",
"825 602 CURVE SMOOTH",
"825 710 OFFCURVE",
"796 861 OFFCURVE",
"684 861 CURVE SMOOTH",
"572 861 OFFCURVE",
"305 685 OFFCURVE",
"250 453 CURVE",
"294 357 LINE",
"339 564 OFFCURVE",
"442 678 OFFCURVE",
"536 678 CURVE SMOOTH",
"599 678 OFFCURVE",
"614 626 OFFCURVE",
"614 540 CURVE SMOOTH",
"614 357 OFFCURVE",
"513 112 OFFCURVE",
"386 112 CURVE SMOOTH",
"335 112 OFFCURVE",
"250 150 OFFCURVE",
"266 225 CURVE SMOOTH"
);
}
);
width = 851;
},
{
background = {
paths = (
{
closed = 1;
nodes = (
"364 1266 LINE",
"71 1131 LINE",
"64 1088 LINE",
"73 1084 LINE",
"315 1173 LINE",
"273 1187 LINE",
"38 56 LINE SMOOTH",
"27 5 OFFCURVE",
"156 -30 OFFCURVE",
"232 -30 CURVE SMOOTH",
"490 -30 OFFCURVE",
"648 328 OFFCURVE",
"648 583 CURVE SMOOTH",
"648 717 OFFCURVE",
"608 780 OFFCURVE",
"521 780 CURVE SMOOTH",
"444 780 OFFCURVE",
"371 738 OFFCURVE",
"180 566 CURVE",
"193 528 LINE",
"348 647 OFFCURVE",
"436 688 OFFCURVE",
"476 688 CURVE SMOOTH",
"540 688 OFFCURVE",
"555 616 OFFCURVE",
"555 563 CURVE SMOOTH",
"555 404 OFFCURVE",
"478 53 OFFCURVE",
"284 53 CURVE SMOOTH",
"227 53 OFFCURVE",
"135 87 OFFCURVE",
"143 124 CURVE SMOOTH",
"377 1254 LINE"
);
}
);
};
layerId = "34301EF7-A2BE-469F-9697-D6100B11FDFE";
paths = (
{
closed = 1;
nodes = (
"364 1266 LINE",
"71 1131 LINE",
"64 1088 LINE",
"73 1084 LINE",
"315 1173 LINE",
"273 1187 LINE",
"38 56 LINE SMOOTH",
"27 5 OFFCURVE",
"156 -30 OFFCURVE",
"232 -30 CURVE SMOOTH",
"490 -30 OFFCURVE",
"648 328 OFFCURVE",
"648 583 CURVE SMOOTH",
"648 717 OFFCURVE",
"608 780 OFFCURVE",
"524 780 CURVE SMOOTH",
"454 780 OFFCURVE",
"371 738 OFFCURVE",
"180 566 CURVE",
"193 528 LINE",
"348 647 OFFCURVE",
"441 693 OFFCURVE",
"487 693 CURVE SMOOTH",
"545 693 OFFCURVE",
"560 621 OFFCURVE",
"560 568 CURVE SMOOTH",
"560 409 OFFCURVE",
"466 42 OFFCURVE",
"272 42 CURVE SMOOTH",
"215 42 OFFCURVE",
"131 70 OFFCURVE",
"139 107 CURVE SMOOTH",
"377 1254 LINE"
);
}
);
width = 675;
},
{
background = {
paths = (
{
closed = 1;
nodes = (
"498 851 OFFCURVE",
"325 645 OFFCURVE",
"203 343 CURVE",
"225 182 LINE",
"308 571 OFFCURVE",
"535 722 OFFCURVE",
"599 722 CURVE SMOOTH",
"642 722 OFFCURVE",
"653 616 OFFCURVE",
"653 555 CURVE SMOOTH",
"653 387 OFFCURVE",
"561 89 OFFCURVE",
"390 89 CURVE SMOOTH",
"338 89 OFFCURVE",
"279 124 OFFCURVE",
"185 202 CURVE",
"151 60 LINE",
"227 0 OFFCURVE",
"283 -30 OFFCURVE",
"353 -30 CURVE SMOOTH",
"585 -30 OFFCURVE",
"787 334 OFFCURVE",
"787 623 CURVE SMOOTH",
"787 741 OFFCURVE",
"752 851 OFFCURVE",
"643 851 CURVE SMOOTH"
);
},
{
closed = 1;
nodes = (
"-55 502 LINE",
"-22 466 LINE",
"-13 466 LINE",
"118 651 OFFCURVE",
"169 686 OFFCURVE",
"190 686 CURVE SMOOTH",
"198 686 OFFCURVE",
"202 681 OFFCURVE",
"202 672 CURVE SMOOTH",
"202 667 OFFCURVE",
"201 662 OFFCURVE",
"200 656 CURVE SMOOTH",
"60 0 LINE",
"96 -30 LINE",
"194 34 LINE",
"340 724 LINE SMOOTH",
"357 802 OFFCURVE",
"293 851 OFFCURVE",
"245 851 CURVE SMOOTH",
"176 851 OFFCURVE",
"51 694 OFFCURVE",
"-55 509 CURVE"
);
}
);
};
layerId = "CFF67ECA-3B2D-433B-B605-F38590C8F106";
paths = (
{
closed = 1;
nodes = (
"110 110 LINE",
"172 25 OFFCURVE",
"265 -26 OFFCURVE",
"357 -26 CURVE SMOOTH",
"604 -26 OFFCURVE",
"791 328 OFFCURVE",
"791 617 CURVE SMOOTH",
"791 735 OFFCURVE",
"756 851 OFFCURVE",
"647 851 CURVE SMOOTH",
"502 851 OFFCURVE",
"329 645 OFFCURVE",
"207 343 CURVE",
"226 214 LINE",
"309 563 OFFCURVE",
"539 722 OFFCURVE",
"596 722 CURVE SMOOTH",
"646 722 OFFCURVE",
"660 608 OFFCURVE",
"660 547 CURVE SMOOTH",
"660 379 OFFCURVE",
"556 88 OFFCURVE",
"385 88 CURVE SMOOTH",
"295 88 OFFCURVE",
"199 174 OFFCURVE",
"142 236 CURVE",
"198 84 LINE",
"452 1236 LINE",
"416 1266 LINE",
"85 1141 LINE",
"79 1081 LINE",
"95 1067 LINE",
"349 1126 LINE",
"306 1143 LINE",
"62 -3 LINE",
"93 -32 LINE",
"217 60 LINE"
);
}
);
width = 824;
}
);
leftMetricsKey = l;
rightMetricsKey = "=o+5";
unicode = 0062;
},
{
glyphname = c;
lastChange = "2020-03-07 10:31:51 +0000";
layers = (
{
background = {
paths = (
{
closed = 1;
nodes = (
"30 121 OFFCURVE",
"59 -30 OFFCURVE",
"210 -30 CURVE SMOOTH",
"303 -30 OFFCURVE",
"530 196 OFFCURVE",
"585 328 CURVE",
"551 415 LINE",
"687 701 LINE",
"620 796 OFFCURVE",
"525 861 OFFCURVE",
"454 861 CURVE SMOOTH",
"296 861 OFFCURVE",
"30 539 OFFCURVE",
"30 229 CURVE SMOOTH"
);
},
{
closed = 1;
nodes = (
"241 484 OFFCURVE",
"281 699 OFFCURVE",
"380 699 CURVE SMOOTH",
"469 699 OFFCURVE",
"575 541 OFFCURVE",
"549 416 CURVE SMOOTH",
"523 289 OFFCURVE",
"385 153 OFFCURVE",
"320 153 CURVE SMOOTH",
"258 153 OFFCURVE",
"241 199 OFFCURVE",
"241 321 CURVE SMOOTH"
);
},
{
closed = 1;
nodes = (
"476 67 OFFCURVE",
"561 -30 OFFCURVE",
"616 -30 CURVE SMOOTH",
"718 -30 OFFCURVE",
"835 106 OFFCURVE",
"890 195 CURVE",
"890 209 LINE",
"846 260 LINE",
"832 260 LINE",
"771 205 OFFCURVE",
"750 200 OFFCURVE",
"729 200 CURVE SMOOTH",
"719 200 OFFCURVE",
"714 209 OFFCURVE",
"717 223 CURVE SMOOTH",
"925 1208 LINE",
"858 1266 LINE",
"550 1161 LINE",
"534 1072 LINE",
"544 1059 LINE",
"754 1089 LINE",
"703 1143 LINE",
"489 129 LINE SMOOTH"
);
}
);
};
layerId = "6B6AD122-EF8D-49FE-8C69-4BDE8C56BDD8";
paths = (
{
closed = 1;
nodes = (
"640 208 LINE",
"598 268 LINE",
"579 268 LINE",
"483 196 OFFCURVE",
"436 155 OFFCURVE",
"366 155 CURVE SMOOTH",
"271 155 OFFCURVE",
"203 231 OFFCURVE",
"203 374 CURVE SMOOTH",
"203 499 OFFCURVE",
"256 681 OFFCURVE",
"410 681 CURVE SMOOTH",
"459 681 OFFCURVE",
"508 662 OFFCURVE",
"567 582 CURVE",
"590 582 LINE",
"716 733 LINE",
"716 756 LINE",
"636 842 OFFCURVE",
"588 861 OFFCURVE",
"526 861 CURVE SMOOTH",
"265 861 OFFCURVE",
"21 547 OFFCURVE",
"21 271 CURVE SMOOTH",
"21 89 OFFCURVE",
"124 -30 OFFCURVE",
"265 -30 CURVE SMOOTH",
"391 -30 OFFCURVE",
"496 56 OFFCURVE",
"640 190 CURVE"
);
}
);
width = 711;
},
{
background = {
paths = (
{
closed = 1;
nodes = (
"188 684 OFFCURVE",
"114 434 OFFCURVE",
"114 233 CURVE SMOOTH",
"114 105 OFFCURVE",
"154 34 OFFCURVE",
"257 34 CURVE SMOOTH",
"330 34 OFFCURVE",
"399 73 OFFCURVE",
"538 213 CURVE",
"549 211 LINE",
"560 201 LINE",
"560 188 LINE",
"463 53 OFFCURVE",
"349 -30 OFFCURVE",
"228 -30 CURVE SMOOTH",
"102 -30 OFFCURVE",
"17 45 OFFCURVE",
"17 230 CURVE SMOOTH",
"17 506 OFFCURVE",
"217 780 OFFCURVE",
"459 774 CURVE SMOOTH",
"509 773 OFFCURVE",
"538 767 OFFCURVE",
"598 739 CURVE",
"605 729 LINE",
"592 636 LINE",
"585 628 LINE",
"515 667 OFFCURVE",
"444 684 OFFCURVE",
"394 684 CURVE SMOOTH"
);
}
);
};
layerId = "34301EF7-A2BE-469F-9697-D6100B11FDFE";
paths = (
{
closed = 1;
nodes = (
"185 690 OFFCURVE",
"127 440 OFFCURVE",
"127 254 CURVE SMOOTH",
"127 110 OFFCURVE",
"173 38 OFFCURVE",
"259 38 CURVE SMOOTH",
"322 38 OFFCURVE",
"391 73 OFFCURVE",
"530 213 CURVE",
"541 211 LINE",
"552 201 LINE",
"552 188 LINE",
"455 53 OFFCURVE",
"341 -30 OFFCURVE",
"226 -30 CURVE SMOOTH",
"121 -30 OFFCURVE",
"33 35 OFFCURVE",
"33 224 CURVE SMOOTH",
"33 502 OFFCURVE",
"213 789 OFFCURVE",
"471 780 CURVE SMOOTH",
"501 779 OFFCURVE",
"540 773 OFFCURVE",
"604 742 CURVE",
"604 732 LINE",
"555 637 LINE",
"545 637 LINE",
"477 673 OFFCURVE",
"436 690 OFFCURVE",
"380 690 CURVE SMOOTH"
);
}
);
width = 609;
},
{
background = {
paths = (
{
closed = 1;
nodes = (
"189 454 OFFCURVE",
"245 723 OFFCURVE",
"391 723 CURVE SMOOTH",
"437 723 OFFCURVE",
"515 714 OFFCURVE",
"606 674 CURVE",
"622 674 LINE",
"681 785 LINE",
"681 801 LINE",
"583 857 OFFCURVE",
"493 851 OFFCURVE",
"453 851 CURVE SMOOTH",
"221 851 OFFCURVE",
"52 509 OFFCURVE",
"52 234 CURVE SMOOTH",
"52 68 OFFCURVE",
"119 -30 OFFCURVE",
"248 -30 CURVE SMOOTH",
"369 -30 OFFCURVE",
"501 53 OFFCURVE",
"608 158 CURVE",
"608 171 LINE",
"578 219 LINE",
"567 221 LINE",
"456 132 OFFCURVE",
"368 94 OFFCURVE",
"305 94 CURVE SMOOTH",
"199 94 OFFCURVE",
"189 205 OFFCURVE",
"189 283 CURVE SMOOTH"
);
},
{
closed = 1;
nodes = (
"30 -30 OFFCURVE",
"140 33 OFFCURVE",
"164 156 CURVE SMOOTH",
"234 522 LINE SMOOTH",
"264 673 OFFCURVE",
"387 706 OFFCURVE",
"472 706 CURVE SMOOTH",
"551 706 OFFCURVE",
"641 681 OFFCURVE",
"699 650 CURVE",
"713 657 LINE",
"734 780 LINE",
"651 824 OFFCURVE",
"548 851 OFFCURVE",
"447 851 CURVE SMOOTH",
"244 851 OFFCURVE",
"144 741 OFFCURVE",
"115 598 CURVE SMOOTH",
"41 237 LINE SMOOTH",
"30 184 OFFCURVE",
"-2 149 OFFCURVE",
"-45 135 CURVE SMOOTH",
"-71 118 OFFCURVE",
"-108 107 OFFCURVE",
"-149 104 CURVE",
"-155 97 LINE",
"-160 59 LINE",
"-54 -30 LINE"
);
}
);
};
layerId = "CFF67ECA-3B2D-433B-B605-F38590C8F106";
paths = (
{
closed = 1;
nodes = (
"189 454 OFFCURVE",
"248 723 OFFCURVE",
"418 723 CURVE SMOOTH",
"449 723 OFFCURVE",
"512 715 OFFCURVE",
"600 687 CURVE",
"616 687 LINE",
"663 793 LINE",
"663 809 LINE",
"584 846 OFFCURVE",
"493 851 OFFCURVE",
"460 851 CURVE SMOOTH",
"191 851 OFFCURVE",
"52 509 OFFCURVE",
"52 234 CURVE SMOOTH",
"52 68 OFFCURVE",
"119 -30 OFFCURVE",
"248 -30 CURVE SMOOTH",
"369 -30 OFFCURVE",
"501 53 OFFCURVE",
"608 158 CURVE",
"608 171 LINE",
"578 219 LINE",
"567 221 LINE",
"456 132 OFFCURVE",
"368 94 OFFCURVE",
"305 94 CURVE SMOOTH",
"199 94 OFFCURVE",
"189 205 OFFCURVE",
"189 283 CURVE SMOOTH"
);
}
);
width = 662;
}
);
leftMetricsKey = o;
unicode = 0063;
},
{
glyphname = d;
lastChange = "2020-03-07 10:32:44 +0000";
layers = (
{
background = {
paths = (
{
closed = 1;
nodes = (
"28 121 OFFCURVE",
"57 -30 OFFCURVE",
"208 -30 CURVE SMOOTH",
"281 -30 OFFCURVE",
"528 136 OFFCURVE",
"583 328 CURVE",
"549 415 LINE",
"685 701 LINE",
"618 796 OFFCURVE",
"523 861 OFFCURVE",
"452 861 CURVE SMOOTH",
"294 861 OFFCURVE",
"28 539 OFFCURVE",
"28 229 CURVE SMOOTH"
);
},
{
closed = 1;
nodes = (
"239 504 OFFCURVE",
"279 699 OFFCURVE",
"378 699 CURVE SMOOTH",
"467 699 OFFCURVE",
"573 542 OFFCURVE",
"547 416 CURVE SMOOTH",
"505 213 OFFCURVE",
"423 153 OFFCURVE",
"348 153 CURVE SMOOTH",
"256 153 OFFCURVE",
"239 235 OFFCURVE",
"239 371 CURVE SMOOTH"
);
},
{
closed = 1;
nodes = (
"474 67 OFFCURVE",
"559 -30 OFFCURVE",
"614 -30 CURVE SMOOTH",
"721 -30 OFFCURVE",
"875 150 OFFCURVE",
"941 235 CURVE",
"889 310 LINE",
"880 310 LINE",
"799 235 OFFCURVE",
"748 200 OFFCURVE",
"727 200 CURVE SMOOTH",
"713 200 OFFCURVE",
"714 214 OFFCURVE",
"717 230 CURVE SMOOTH",
"923 1208 LINE",
"856 1266 LINE",
"548 1161 LINE",
"532 1072 LINE",
"542 1059 LINE",
"752 1089 LINE",
"701 1143 LINE",
"487 129 LINE SMOOTH"
);
}
);
};
layerId = "6B6AD122-EF8D-49FE-8C69-4BDE8C56BDD8";
paths = (
{
closed = 1;
nodes = (
"28 121 OFFCURVE",
"57 -30 OFFCURVE",
"208 -30 CURVE SMOOTH",
"331 -30 OFFCURVE",
"528 196 OFFCURVE",
"583 288 CURVE",
"549 415 LINE",
"685 701 LINE",
"618 796 OFFCURVE",
"523 861 OFFCURVE",
"452 861 CURVE SMOOTH",
"294 861 OFFCURVE",
"28 539 OFFCURVE",
"28 229 CURVE SMOOTH"
);
},
{
closed = 1;
nodes = (
"239 484 OFFCURVE",
"279 699 OFFCURVE",
"378 699 CURVE SMOOTH",
"467 699 OFFCURVE",
"573 541 OFFCURVE",
"547 416 CURVE SMOOTH",
"521 289 OFFCURVE",
"383 153 OFFCURVE",
"318 153 CURVE SMOOTH",
"256 153 OFFCURVE",
"239 199 OFFCURVE",
"239 321 CURVE SMOOTH"
);
},
{
closed = 1;
nodes = (
"474 67 OFFCURVE",
"559 -30 OFFCURVE",
"614 -30 CURVE SMOOTH",
"716 -30 OFFCURVE",
"833 106 OFFCURVE",
"888 195 CURVE",
"888 209 LINE",
"844 260 LINE",
"830 260 LINE",
"769 205 OFFCURVE",
"748 200 OFFCURVE",
"727 200 CURVE SMOOTH",
"717 200 OFFCURVE",
"712 209 OFFCURVE",
"715 223 CURVE SMOOTH",
"923 1208 LINE",
"856 1266 LINE",
"548 1161 LINE",
"532 1072 LINE",
"542 1059 LINE",
"752 1089 LINE",
"701 1143 LINE",
"487 129 LINE SMOOTH"
);
}
);
width = 940;
},
{
layerId = "34301EF7-A2BE-469F-9697-D6100B11FDFE";
paths = (
{
closed = 1;
nodes = (
"735 1266 LINE",
"442 1131 LINE",
"435 1088 LINE",
"444 1084 LINE",
"686 1173 LINE",
"644 1187 LINE",
"407 60 LINE",
"401 31 OFFCURVE",
"456 -30 OFFCURVE",
"488 -30 CURVE SMOOTH",
"489 -30 LINE SMOOTH",
"533 -30 OFFCURVE",
"613 25 OFFCURVE",
"726 114 CURVE",
"726 126 LINE",
"714 149 LINE",
"702 149 LINE",
"598 82 OFFCURVE",
"530 45 OFFCURVE",
"513 45 CURVE SMOOTH",
"501 45 OFFCURVE",
"496 57 OFFCURVE",
"498 68 CURVE",
"748 1254 LINE"
);
},
{
closed = 1;
nodes = (
"456 210 LINE",
"338 106 OFFCURVE",
"228 52 OFFCURVE",
"170 52 CURVE SMOOTH",
"128 52 OFFCURVE",
"119 131 OFFCURVE",
"119 184 CURVE SMOOTH",
"119 343 OFFCURVE",
"198 694 OFFCURVE",
"305 694 CURVE SMOOTH",
"399 694 OFFCURVE",
"468 680 OFFCURVE",
"565 655 CURVE",
"634 740 LINE",
"508 769 OFFCURVE",
"445 780 OFFCURVE",
"389 780 CURVE SMOOTH",
"151 780 OFFCURVE",
"27 418 OFFCURVE",
"27 123 CURVE SMOOTH",
"27 29 OFFCURVE",
"65 -30 OFFCURVE",
"140 -30 CURVE SMOOTH",
"204 -30 OFFCURVE",
"305 13 OFFCURVE",
"484 189 CURVE"
);
}
);
width = 751;
},
{
background = {
paths = (
{
closed = 1;
nodes = (
"425 -30 OFFCURVE",
"518 62 OFFCURVE",
"569 115 CURVE",
"566 231 LINE",
"545 187 OFFCURVE",
"448 80 OFFCURVE",
"340 80 CURVE SMOOTH",
"211 80 OFFCURVE",
"116 214 OFFCURVE",
"116 428 CURVE SMOOTH",
"116 650 OFFCURVE",
"226 735 OFFCURVE",
"358 735 CURVE SMOOTH",
"461 735 OFFCURVE",
"534 684 OFFCURVE",
"567 616 CURVE",
"572 785 LINE",
"526 817 OFFCURVE",
"459 851 OFFCURVE",
"365 851 CURVE SMOOTH",
"155 851 OFFCURVE",
"-47 678 OFFCURVE",
"-47 384 CURVE SMOOTH",
"-47 128 OFFCURVE",
"96 -30 OFFCURVE",
"288 -30 CURVE SMOOTH"
);
},
{
closed = 1;
nodes = (
"444 1171 LINE",
"444 1122 LINE",
"561 1077 LINE",
"561 149 LINE",
"603 -26 LINE",
"623 -36 LINE",
"838 35 LINE",
"838 83 LINE",
"760 110 OFFCURVE",
"712 129 OFFCURVE",
"712 178 CURVE SMOOTH",
"712 1254 LINE",
"688 1266 LINE"
);
}
);
};
layerId = "CFF67ECA-3B2D-433B-B605-F38590C8F106";
paths = (
{
closed = 1;
nodes = (
"334 -30 OFFCURVE",
"507 176 OFFCURVE",
"629 478 CURVE",
"607 639 LINE",
"524 250 OFFCURVE",
"297 99 OFFCURVE",
"233 99 CURVE SMOOTH",
"190 99 OFFCURVE",
"179 205 OFFCURVE",
"179 266 CURVE SMOOTH",
"179 434 OFFCURVE",
"271 732 OFFCURVE",
"442 732 CURVE SMOOTH",
"494 732 OFFCURVE",
"553 697 OFFCURVE",
"647 619 CURVE",
"681 761 LINE",
"605 821 OFFCURVE",
"549 851 OFFCURVE",
"479 851 CURVE SMOOTH",
"247 851 OFFCURVE",
"45 487 OFFCURVE",
"45 198 CURVE SMOOTH",
"45 80 OFFCURVE",
"80 -30 OFFCURVE",
"189 -30 CURVE SMOOTH"
);
},
{
closed = 1;
nodes = (
"845 254 LINE",
"812 293 LINE",
"803 293 LINE",
"718 173 OFFCURVE",
"665 135 OFFCURVE",
"644 135 CURVE SMOOTH",
"636 135 OFFCURVE",
"632 140 OFFCURVE",
"632 149 CURVE SMOOTH",
"632 154 OFFCURVE",
"633 159 OFFCURVE",
"634 165 CURVE SMOOTH",
"860 1236 LINE",
"824 1266 LINE",
"493 1141 LINE",
"487 1081 LINE",
"503 1067 LINE",
"757 1126 LINE",
"714 1143 LINE",
"492 97 LINE SMOOTH",
"477 28 OFFCURVE",
"537 -30 OFFCURVE",
"595 -30 CURVE SMOOTH",
"664 -30 OFFCURVE",
"796 128 OFFCURVE",
"845 246 CURVE"
);
}
);
width = 898;
}
);
leftMetricsKey = a;
note = "Fix foot to have cut in it!!";
rightMetricsKey = l;
unicode = 0064;
},
{
glyphname = e;
lastChange = "2020-02-29 12:46:01 +0000";
layers = (
{
background = {
paths = (
{
closed = 1;
nodes = (
"637 763 OFFCURVE",
"559 861 OFFCURVE",
"437 861 CURVE SMOOTH",
"266 861 OFFCURVE",
"18 551 OFFCURVE",
"18 255 CURVE SMOOTH",
"18 93 OFFCURVE",
"105 -30 OFFCURVE",
"237 -30 CURVE SMOOTH",
"372 -30 OFFCURVE",
"521 73 OFFCURVE",
"655 237 CURVE",
"655 255 LINE",
"619 298 LINE",
"600 298 LINE",
"504 206 OFFCURVE",
"436 145 OFFCURVE",
"349 145 CURVE SMOOTH",
"251 145 OFFCURVE",
"195 226 OFFCURVE",
"195 336 CURVE SMOOTH",
"195 494 OFFCURVE",
"301 705 OFFCURVE",
"391 705 CURVE SMOOTH",
"434 705 OFFCURVE",
"450 659 OFFCURVE",
"450 617 CURVE SMOOTH",
"450 548 OFFCURVE",
"405 462 OFFCURVE",
"158 368 CURVE",
"154 259 LINE",
"557 412 OFFCURVE",
"637 508 OFFCURVE",
"637 652 CURVE SMOOTH"
);
}
);
};
layerId = "6B6AD122-EF8D-49FE-8C69-4BDE8C56BDD8";
paths = (
{
closed = 1;
nodes = (
"629 763 OFFCURVE",
"559 861 OFFCURVE",
"451 861 CURVE SMOOTH",
"256 861 OFFCURVE",
"18 540 OFFCURVE",
"18 254 CURVE SMOOTH",
"18 82 OFFCURVE",
"105 -30 OFFCURVE",
"239 -30 CURVE SMOOTH",
"372 -30 OFFCURVE",
"521 73 OFFCURVE",
"655 237 CURVE",
"655 255 LINE",
"619 298 LINE",
"600 298 LINE",
"504 206 OFFCURVE",
"436 145 OFFCURVE",
"349 145 CURVE SMOOTH",
"251 145 OFFCURVE",
"195 226 OFFCURVE",
"195 336 CURVE SMOOTH",
"195 494 OFFCURVE",
"301 705 OFFCURVE",
"391 705 CURVE SMOOTH",
"434 705 OFFCURVE",
"450 659 OFFCURVE",
"450 617 CURVE SMOOTH",
"450 548 OFFCURVE",
"405 439 OFFCURVE",
"158 345 CURVE",
"174 234 LINE",
"537 387 OFFCURVE",
"629 498 OFFCURVE",
"629 642 CURVE SMOOTH"
);
}
);
width = 693;
},
{
background = {
paths = (
{
closed = 1;
nodes = (
"219 698 OFFCURVE",
"128 434 OFFCURVE",
"128 250 CURVE SMOOTH",
"128 110 OFFCURVE",
"177 38 OFFCURVE",
"268 38 CURVE SMOOTH",
"331 38 OFFCURVE",
"400 73 OFFCURVE",
"539 212 CURVE",
"550 212 LINE",
"561 201 LINE",
"561 188 LINE",
"464 53 OFFCURVE",
"350 -30 OFFCURVE",
"235 -30 CURVE SMOOTH",
"125 -30 OFFCURVE",
"34 45 OFFCURVE",
"34 230 CURVE SMOOTH",
"34 506 OFFCURVE",
"218 781 OFFCURVE",
"426 781 CURVE SMOOTH",
"534 781 OFFCURVE",
"575 707 OFFCURVE",
"575 639 CURVE SMOOTH",
"575 509 OFFCURVE",
"428 430 OFFCURVE",
"127 341 CURVE",
"127 392 LINE",
"388 486 OFFCURVE",
"476 531 OFFCURVE",
"476 614 CURVE SMOOTH",
"476 647 OFFCURVE",
"462 698 OFFCURVE",
"389 698 CURVE SMOOTH"
);
}
);
};
layerId = "34301EF7-A2BE-469F-9697-D6100B11FDFE";
paths = (
{
closed = 1;
nodes = (
"249 698 OFFCURVE",
"128 434 OFFCURVE",
"128 250 CURVE SMOOTH",
"128 110 OFFCURVE",
"177 38 OFFCURVE",
"268 38 CURVE SMOOTH",
"331 38 OFFCURVE",
"400 73 OFFCURVE",
"539 212 CURVE",
"550 212 LINE",
"561 201 LINE",
"561 188 LINE",
"464 53 OFFCURVE",
"350 -30 OFFCURVE",
"235 -30 CURVE SMOOTH",
"125 -30 OFFCURVE",
"34 45 OFFCURVE",
"34 230 CURVE SMOOTH",
"34 506 OFFCURVE",
"218 781 OFFCURVE",
"379 781 CURVE SMOOTH",
"474 781 OFFCURVE",
"545 687 OFFCURVE",
"545 614 CURVE SMOOTH",
"545 509 OFFCURVE",
"398 460 OFFCURVE",
"127 301 CURVE",
"127 371 LINE",
"358 506 OFFCURVE",
"454 547 OFFCURVE",
"454 600 CURVE SMOOTH",
"454 633 OFFCURVE",
"402 698 OFFCURVE",
"359 698 CURVE SMOOTH"
);
}
);
width = 596;
},
{
background = {
paths = (
{
closed = 1;
nodes = (
"154 427 LINE",
"481 496 OFFCURVE",
"647 559 OFFCURVE",
"647 694 CURVE SMOOTH",
"647 787 OFFCURVE",
"566 851 OFFCURVE",
"467 851 CURVE SMOOTH",
"235 851 OFFCURVE",
"43 495 OFFCURVE",
"43 236 CURVE SMOOTH",
"43 68 OFFCURVE",
"123 -30 OFFCURVE",
"252 -30 CURVE SMOOTH",
"373 -30 OFFCURVE",
"505 53 OFFCURVE",
"612 128 CURVE",
"612 141 LINE",
"582 189 LINE",
"571 191 LINE",
"460 132 OFFCURVE",
"372 94 OFFCURVE",
"304 94 CURVE SMOOTH",
"203 94 OFFCURVE",
"180 205 OFFCURVE",
"180 293 CURVE SMOOTH",
"180 503 OFFCURVE",
"310 755 OFFCURVE",
"443 755 CURVE SMOOTH",
"495 755 OFFCURVE",
"519 717 OFFCURVE",
"519 684 CURVE SMOOTH",
"519 601 OFFCURVE",
"363 562 OFFCURVE",
"154 502 CURVE"
);
}
);
};
layerId = "CFF67ECA-3B2D-433B-B605-F38590C8F106";
paths = (
{
closed = 1;
nodes = (
"134 347 LINE",
"435 456 OFFCURVE",
"621 579 OFFCURVE",
"621 697 CURVE SMOOTH",
"621 777 OFFCURVE",
"540 851 OFFCURVE",
"454 851 CURVE SMOOTH",
"265 851 OFFCURVE",
"43 495 OFFCURVE",
"43 224 CURVE SMOOTH",
"43 68 OFFCURVE",
"110 -30 OFFCURVE",
"239 -30 CURVE SMOOTH",
"360 -30 OFFCURVE",
"492 53 OFFCURVE",
"599 158 CURVE",
"599 171 LINE",
"569 219 LINE",
"558 221 LINE",
"447 132 OFFCURVE",
"359 94 OFFCURVE",
"296 94 CURVE SMOOTH",
"190 94 OFFCURVE",
"180 205 OFFCURVE",
"180 263 CURVE SMOOTH",
"180 503 OFFCURVE",
"340 757 OFFCURVE",
"426 757 CURVE SMOOTH",
"459 757 OFFCURVE",
"483 717 OFFCURVE",
"483 684 CURVE SMOOTH",
"483 591 OFFCURVE",
"395 536 OFFCURVE",
"134 422 CURVE"
);
}
);
width = 663;
}
);
leftMetricsKey = o;
unicode = 0065;
},
{
glyphname = f;
lastChange = "2020-03-07 10:33:29 +0000";
layers = (
{
background = {
paths = (
{
closed = 1;
nodes = (
"508 1137 LINE",
"437 1042 OFFCURVE",
"412 926 OFFCURVE",
"400 826 CURVE",
"578 853 LINE",
"596 839 LINE",
"560 684 LINE",
"397 684 LINE",
"270 -77 LINE SMOOTH",
"229 -324 OFFCURVE",
"32 -424 OFFCURVE",
"-109 -424 CURVE SMOOTH",
"-153 -424 OFFCURVE",
"-218 -414 OFFCURVE",
"-258 -379 CURVE",
"-258 -357 LINE",
"-198 -207 LINE",
"-168 -207 LINE",
"-127 -230 OFFCURVE",
"-85 -252 OFFCURVE",
"-43 -252 CURVE SMOOTH",
"12 -252 OFFCURVE",
"38 -212 OFFCURVE",
"47 -162 CURVE SMOOTH",
"191 688 LINE",
"58 688 LINE",
"82 811 LINE",
"218 838 LINE",
"223 869 LINE SMOOTH",
"258 1106 OFFCURVE",
"464 1266 OFFCURVE",
"626 1266 CURVE SMOOTH",
"711 1266 OFFCURVE",
"698 1131 OFFCURVE",
"695 1068 CURVE",
"722 1075 OFFCURVE",
"752 1093 OFFCURVE",
"786 1109 CURVE",
"794 1107 LINE",
"813 1069 LINE",
"811 1062 LINE",
"755 1010 OFFCURVE",
"676 943 OFFCURVE",
"615 943 CURVE SMOOTH",
"561 943 OFFCURVE",
"505 995 OFFCURVE",
"526 1137 CURVE"
);
}
);
};
layerId = "6B6AD122-EF8D-49FE-8C69-4BDE8C56BDD8";
paths = (
{
closed = 1;
nodes = (
"806 1171 LINE",
"676 997 LINE",
"642 997 LINE",
"611 1033 OFFCURVE",
"565 1075 OFFCURVE",
"515 1075 CURVE SMOOTH",
"451 1075 OFFCURVE",
"423 1006 OFFCURVE",
"400 834 CURVE",
"578 861 LINE",
"596 847 LINE",
"560 692 LINE",
"397 692 LINE",
"263 -77 LINE SMOOTH",
"223 -303 OFFCURVE",
"22 -424 OFFCURVE",
"-116 -424 CURVE SMOOTH",
"-153 -424 OFFCURVE",
"-211 -415 OFFCURVE",
"-258 -379 CURVE",
"-258 -357 LINE",
"-198 -207 LINE",
"-168 -207 LINE",
"-127 -230 OFFCURVE",
"-85 -252 OFFCURVE",
"-43 -252 CURVE SMOOTH",
"12 -252 OFFCURVE",
"70 -212 OFFCURVE",
"77 -162 CURVE SMOOTH",
"191 696 LINE",
"58 696 LINE",
"82 819 LINE",
"218 846 LINE",
"223 877 LINE SMOOTH",
"258 1106 OFFCURVE",
"464 1266 OFFCURVE",
"626 1266 CURVE SMOOTH",
"697 1266 OFFCURVE",
"760 1235 OFFCURVE",
"806 1204 CURVE"
);
}
);
width = 553;
},
{
background = {
hints = (
{
origin = "{0, 0}";
scale = "{0.96495, 0.74227}";
type = Corner;
name = _corner.RightSerif;
},
{
origin = "{0, 26}";
scale = "{0.74227, 0.74227}";
type = Corner;
name = _corner.LeftSerif;
}
);
paths = (
{
closed = 1;
nodes = (
"157 0 LINE",
"304 692 LINE",
"552 692 LINE",
"565 750 LINE",
"316 745 LINE",
"333 829 OFFCURVE",
"351 914 OFFCURVE",
"376 1031 CURVE SMOOTH",
"406 1166 OFFCURVE",
"475 1213 OFFCURVE",
"542 1213 CURVE SMOOTH",
"665 1213 OFFCURVE",
"668 1062 OFFCURVE",
"653 978 CURVE",
"690 973 LINE",
"740 1218 LINE",
"699 1250 OFFCURVE",
"639 1266 OFFCURVE",
"585 1266 CURVE SMOOTH",
"464 1266 OFFCURVE",
"299 1199 OFFCURVE",
"251 975 CURVE SMOOTH",
"204 750 LINE",
"25 729 LINE",
"20 704 LINE",
"190 686 LINE",
"44 0 LINE"
);
}
);
};
layerId = "34301EF7-A2BE-469F-9697-D6100B11FDFE";
paths = (
{
closed = 1;
nodes = (
"565 769 LINE",
"548 697 LINE",
"300 697 LINE",
"98 -266 LINE SMOOTH",
"79 -357 OFFCURVE",
"-29 -424 OFFCURVE",
"-101 -424 CURVE SMOOTH",
"-166 -424 OFFCURVE",
"-238 -372 OFFCURVE",
"-278 -291 CURVE",
"-278 -270 LINE",
"-232 -222 LINE",
"-211 -222 LINE",
"-181 -278 OFFCURVE",
"-116 -364 OFFCURVE",
"-62 -364 CURVE SMOOTH",
"-36 -364 OFFCURVE",
"-17 -344 OFFCURVE",
"-10 -312 CURVE SMOOTH",
"205 697 LINE",
"31 697 LINE",
"37 729 LINE",
"216 750 LINE",
"263 966 LINE SMOOTH",
"314 1199 OFFCURVE",
"444 1266 OFFCURVE",
"543 1266 CURVE SMOOTH",
"601 1266 OFFCURVE",
"649 1244 OFFCURVE",
"709 1183 CURVE",
"709 1162 LINE",
"663 1114 LINE",
"642 1114 LINE",
"601 1153 OFFCURVE",
"562 1206 OFFCURVE",
"494 1206 CURVE SMOOTH",
"452 1206 OFFCURVE",
"402 1176 OFFCURVE",
"381 1079 CURVE SMOOTH",
"311 753 LINE",
"556 779 LINE"
);
}
);
width = 458;
},
{
background = {
paths = (
{
closed = 1;
nodes = (
"-258 -357 LINE",
"-207 -258 LINE",
"-177 -258 LINE",
"-146 -281 OFFCURVE",
"-114 -303 OFFCURVE",
"-58 -303 CURVE SMOOTH",
"13 -303 OFFCURVE",
"51 -243 OFFCURVE",
"61 -183 CURVE SMOOTH",
"219 744 LINE",
"67 744 LINE",
"81 809 LINE",
"236 836 LINE",
"246 899 LINE SMOOTH",
"285 1146 OFFCURVE",
"424 1266 OFFCURVE",
"550 1266 CURVE SMOOTH",
"614 1266 OFFCURVE",
"691 1239 OFFCURVE",
"728 1156 CURVE",
"686 1055 LINE",
"656 1055 LINE",
"625 1108 OFFCURVE",
"570 1145 OFFCURVE",
"514 1145 CURVE SMOOTH",
"428 1145 OFFCURVE",
"375 1070 OFFCURVE",
"348 824 CURVE",
"586 849 LINE",
"595 837 LINE",
"569 740 LINE",
"343 740 LINE",
"207 -77 LINE SMOOTH",
"166 -324 OFFCURVE",
"32 -424 OFFCURVE",
"-109 -424 CURVE SMOOTH",
"-153 -424 OFFCURVE",
"-218 -414 OFFCURVE",
"-258 -379 CURVE"
);
},
{
closed = 0;
nodes = (
"325 571 LINE SMOOTH",
"395 937 LINE SMOOTH",
"425 1088 OFFCURVE",
"548 1121 OFFCURVE",
"633 1121 CURVE SMOOTH",
"712 1121 OFFCURVE",
"802 1096 OFFCURVE",
"860 1065 CURVE",
"874 1072 LINE",
"895 1195 LINE",
"812 1239 OFFCURVE",
"709 1266 OFFCURVE",
"608 1266 CURVE SMOOTH",
"405 1266 OFFCURVE",
"305 1156 OFFCURVE",
"276 1013 CURVE SMOOTH",
"202 652 LINE SMOOTH"
);
}
);
};
layerId = "CFF67ECA-3B2D-433B-B605-F38590C8F106";
paths = (
{
closed = 1;
nodes = (
"-18 -313 OFFCURVE",
"53 -279 OFFCURVE",
"71 -167 CURVE SMOOTH",
"219 744 LINE",
"67 744 LINE",
"81 809 LINE",
"236 836 LINE",
"256 939 LINE SMOOTH",
"303 1180 OFFCURVE",
"434 1266 OFFCURVE",
"584 1266 CURVE SMOOTH",
"630 1266 OFFCURVE",
"693 1258 OFFCURVE",
"783 1231 CURVE",
"783 1219 LINE",
"736 1113 LINE",
"712 1109 LINE",
"644 1130 OFFCURVE",
"592 1139 OFFCURVE",
"542 1139 CURVE SMOOTH",
"476 1139 OFFCURVE",
"389 1126 OFFCURVE",
"348 824 CURVE",
"586 849 LINE",
"595 837 LINE",
"569 740 LINE",
"343 740 LINE",
"193 -127 LINE SMOOTH",
"156 -339 OFFCURVE",
"27 -424 OFFCURVE",
"-101 -424 CURVE SMOOTH",
"-149 -424 OFFCURVE",
"-204 -412 OFFCURVE",
"-289 -383 CURVE",
"-289 -371 LINE",
"-252 -280 LINE",
"-229 -280 LINE",
"-170 -307 OFFCURVE",
"-119 -313 OFFCURVE",
"-89 -313 CURVE SMOOTH"
);
}
);
width = 540;
}
);
unicode = 0066;
},
{
glyphname = g;
lastChange = "2020-03-07 10:38:18 +0000";
layers = (
{
background = {
paths = (
{
closed = 1;
nodes = (
"573 291 OFFCURVE",
"707 416 OFFCURVE",
"707 571 CURVE SMOOTH",
"707 732 OFFCURVE",
"563 851 OFFCURVE",
"397 851 CURVE SMOOTH",
"222 851 OFFCURVE",
"79 725 OFFCURVE",
"79 571 CURVE SMOOTH",
"79 409 OFFCURVE",
"231 291 OFFCURVE",
"397 291 CURVE SMOOTH"
);
},
{
closed = 1;
nodes = (
"295 383 OFFCURVE",
"237 496 OFFCURVE",
"237 600 CURVE SMOOTH",
"237 688 OFFCURVE",
"283 759 OFFCURVE",
"382 759 CURVE SMOOTH",
"504 759 OFFCURVE",
"559 647 OFFCURVE",
"559 545 CURVE SMOOTH",
"559 457 OFFCURVE",
"516 383 OFFCURVE",
"414 383 CURVE SMOOTH"
);
},
{
closed = 1;
nodes = (
"840 711 LINE",
"840 835 LINE",
"823 851 LINE",
"546 808 LINE",
"558 711 LINE"
);
},
{
closed = 1;
nodes = (
"305 82 LINE",
"174 -11 LINE SMOOTH",
"69 -86 OFFCURVE",
"26 -154 OFFCURVE",
"26 -232 CURVE SMOOTH",
"26 -347 OFFCURVE",
"122 -424 OFFCURVE",
"353 -424 CURVE SMOOTH",
"626 -424 OFFCURVE",
"790 -318 OFFCURVE",
"790 -158 CURVE SMOOTH",
"790 -47 OFFCURVE",
"712 20 OFFCURVE",
"581 64 CURVE SMOOTH",
"428 116 LINE SMOOTH",
"384 131 OFFCURVE",
"357 140 OFFCURVE",
"357 175 CURVE SMOOTH",
"357 192 OFFCURVE",
"363 214 OFFCURVE",
"421 299 CURVE",
"350 332 LINE",
"263 231 OFFCURVE",
"215 171 OFFCURVE",
"215 108 CURVE SMOOTH",
"215 60 OFFCURVE",
"245 -3 OFFCURVE",
"332 -30 CURVE SMOOTH",
"452 -67 LINE SMOOTH",
"608 -115 OFFCURVE",
"649 -146 OFFCURVE",
"649 -191 CURVE SMOOTH",
"649 -262 OFFCURVE",
"544 -322 OFFCURVE",
"370 -322 CURVE SMOOTH",
"210 -322 OFFCURVE",
"163 -269 OFFCURVE",
"163 -200 CURVE SMOOTH",
"163 -131 OFFCURVE",
"207 -62 OFFCURVE",
"361 27 CURVE"
);
}
);
};
layerId = "6B6AD122-EF8D-49FE-8C69-4BDE8C56BDD8";
paths = (
{
closed = 1;
nodes = (
"443 -424 OFFCURVE",
"621 -273 OFFCURVE",
"656 -100 CURVE SMOOTH",
"842 826 LINE",
"784 861 LINE",
"623 776 LINE",
"421 -231 LINE SMOOTH",
"413 -269 OFFCURVE",
"392 -285 OFFCURVE",
"352 -285 CURVE SMOOTH",
"279 -285 OFFCURVE",
"177 -233 OFFCURVE",
"53 -177 CURVE",
"23 -177 LINE",
"-47 -338 LINE",
"-47 -360 LINE",
"105 -409 OFFCURVE",
"208 -424 OFFCURVE",
"272 -424 CURVE SMOOTH"
);
},
{
closed = 1;
nodes = (
"311 -30 OFFCURVE",
"528 136 OFFCURVE",
"583 278 CURVE",
"549 415 LINE",
"685 701 LINE",
"618 796 OFFCURVE",
"523 861 OFFCURVE",
"452 861 CURVE SMOOTH",
"294 861 OFFCURVE",
"28 539 OFFCURVE",
"28 229 CURVE SMOOTH",
"28 121 OFFCURVE",
"57 -30 OFFCURVE",
"208 -30 CURVE SMOOTH"
);
},
{
closed = 1;
nodes = (
"256 153 OFFCURVE",
"239 235 OFFCURVE",
"239 371 CURVE SMOOTH",
"239 504 OFFCURVE",
"279 699 OFFCURVE",
"378 699 CURVE SMOOTH",
"467 699 OFFCURVE",
"573 542 OFFCURVE",
"547 416 CURVE SMOOTH",
"505 213 OFFCURVE",
"423 153 OFFCURVE",
"348 153 CURVE SMOOTH"
);
},
{
closed = 1;
nodes = (
"826 466 LINE",
"832 527 LINE",
"748 652 LINE",
"720 403 LINE"
);
}
);
width = 868;
},
{
layerId = "34301EF7-A2BE-469F-9697-D6100B11FDFE";
paths = (
{
closed = 1;
nodes = (
"469 210 LINE",
"351 106 OFFCURVE",
"242 54 OFFCURVE",
"184 54 CURVE SMOOTH",
"142 54 OFFCURVE",
"133 133 OFFCURVE",
"133 186 CURVE SMOOTH",
"133 345 OFFCURVE",
"211 694 OFFCURVE",
"318 694 CURVE SMOOTH",
"392 694 OFFCURVE",
"480 679 OFFCURVE",
"574 654 CURVE",
"647 740 LINE",
"521 769 OFFCURVE",
"458 780 OFFCURVE",
"402 780 CURVE SMOOTH",
"164 780 OFFCURVE",
"40 418 OFFCURVE",
"40 123 CURVE SMOOTH",
"40 29 OFFCURVE",
"78 -30 OFFCURVE",
"153 -30 CURVE SMOOTH",
"217 -30 OFFCURVE",
"318 13 OFFCURVE",
"497 189 CURVE"
);
},
{
closed = 0;
nodes = (
"651 733 LINE"
);
},
{
closed = 1;
nodes = (
"344 -290 OFFCURVE",
"282 -351 OFFCURVE",
"190 -351 CURVE SMOOTH",
"109 -351 OFFCURVE",
"35 -307 OFFCURVE",
"-31 -269 CURVE",
"-54 -269 LINE",
"-95 -329 LINE",
"-95 -352 LINE",
"-17 -394 OFFCURVE",
"57 -434 OFFCURVE",
"149 -434 CURVE SMOOTH",
"301 -434 OFFCURVE",
"433 -290 OFFCURVE",
"461 -159 CURVE SMOOTH",
"651 733 LINE",
"647 740 LINE",
"558 721 LINE",
"364 -196 LINE SMOOTH"
);
}
);
width = 650;
},
{
background = {
paths = (
{
closed = 1;
nodes = (
"536 291 OFFCURVE",
"691 410 OFFCURVE",
"722 558 CURVE SMOOTH",
"758 726 OFFCURVE",
"636 851 OFFCURVE",
"465 851 CURVE SMOOTH",
"295 851 OFFCURVE",
"131 731 OFFCURVE",
"100 584 CURVE SMOOTH",
"64 415 OFFCURVE",
"194 291 OFFCURVE",
"365 291 CURVE SMOOTH"
);
},
{
closed = 1;
nodes = (
"268 383 OFFCURVE",
"238 490 OFFCURVE",
"259 587 CURVE SMOOTH",
"279 682 OFFCURVE",
"346 759 OFFCURVE",
"450 759 CURVE SMOOTH",
"567 759 OFFCURVE",
"595 653 OFFCURVE",
"574 558 CURVE SMOOTH",
"554 463 OFFCURVE",
"489 383 OFFCURVE",
"383 383 CURVE SMOOTH"
);
},
{
closed = 1;
nodes = (
"888 711 LINE",
"913 835 LINE",
"899 851 LINE",
"615 808 LINE",
"606 711 LINE"
);
},
{
closed = 1;
nodes = (
"216 82 LINE",
"64 -7 LINE SMOOTH",
"-56 -82 OFFCURVE",
"-109 -148 OFFCURVE",
"-124 -219 CURVE SMOOTH",
"-150 -341 OFFCURVE",
"-67 -424 OFFCURVE",
"169 -424 CURVE SMOOTH",
"437 -424 OFFCURVE",
"618 -324 OFFCURVE",
"650 -171 CURVE SMOOTH",
"675 -53 OFFCURVE",
"608 18 OFFCURVE",
"486 62 CURVE SMOOTH",
"344 114 LINE SMOOTH",
"304 129 OFFCURVE",
"282 134 OFFCURVE",
"288 162 CURVE SMOOTH",
"293 186 OFFCURVE",
"307 209 OFFCURVE",
"383 294 CURVE",
"314 337 LINE",
"207 236 OFFCURVE",
"149 177 OFFCURVE",
"137 121 CURVE SMOOTH",
"126 66 OFFCURVE",
"146 -1 OFFCURVE",
"227 -28 CURVE SMOOTH",
"340 -65 LINE SMOOTH",
"485 -113 OFFCURVE",
"516 -140 OFFCURVE",
"508 -178 CURVE SMOOTH",
"491 -256 OFFCURVE",
"367 -322 OFFCURVE",
"189 -322 CURVE SMOOTH",
"33 -322 OFFCURVE",
"1 -275 OFFCURVE",
"15 -213 CURVE SMOOTH",
"31 -137 OFFCURVE",
"94 -65 OFFCURVE",
"267 24 CURVE"
);
}
);
};
layerId = "CFF67ECA-3B2D-433B-B605-F38590C8F106";
paths = (
{
closed = 1;
nodes = (
"334 -30 OFFCURVE",
"507 176 OFFCURVE",
"629 478 CURVE",
"607 639 LINE",
"524 250 OFFCURVE",
"297 99 OFFCURVE",
"233 99 CURVE SMOOTH",
"190 99 OFFCURVE",
"179 205 OFFCURVE",
"179 266 CURVE SMOOTH",
"179 434 OFFCURVE",
"271 732 OFFCURVE",
"442 732 CURVE SMOOTH",
"494 732 OFFCURVE",
"553 697 OFFCURVE",
"647 619 CURVE",
"681 761 LINE",
"605 821 OFFCURVE",
"549 851 OFFCURVE",
"479 851 CURVE SMOOTH",
"247 851 OFFCURVE",
"45 487 OFFCURVE",
"45 198 CURVE SMOOTH",
"45 80 OFFCURVE",
"80 -30 OFFCURVE",
"189 -30 CURVE SMOOTH"
);
},
{
closed = 1;
nodes = (
"-44 -358 LINE",
"105 -412 OFFCURVE",
"181 -424 OFFCURVE",
"232 -424 CURVE SMOOTH",
"386 -424 OFFCURVE",
"529 -320 OFFCURVE",
"569 -131 CURVE SMOOTH",
"772 821 LINE",
"736 851 LINE",
"638 787 LINE",
"427 -211 LINE SMOOTH",
"409 -296 OFFCURVE",
"358 -328 OFFCURVE",
"287 -328 CURVE SMOOTH",
"232 -328 OFFCURVE",
"164 -308 OFFCURVE",
"29 -230 CURVE",
"8 -230 LINE",
"-44 -338 LINE"
);
},
{
closed = 1;
nodes = (
"801 625 LINE",
"807 660 LINE",
"723 732 LINE",
"695 589 LINE"
);
}
);
width = 805;
}
);
leftMetricsKey = a;
note = ss03;
unicode = 0067;
},
{
glyphname = h;
lastChange = "2020-03-07 10:30:32 +0000";
layers = (
{
layerId = "6B6AD122-EF8D-49FE-8C69-4BDE8C56BDD8";
paths = (
{
closed = 1;
nodes = (
"905 209 LINE",
"861 260 LINE",
"847 260 LINE",
"786 205 OFFCURVE",
"765 200 OFFCURVE",
"744 200 CURVE SMOOTH",
"730 200 OFFCURVE",
"730 214 OFFCURVE",
"734 230 CURVE SMOOTH",
"846 662 LINE SMOOTH",
"868 747 OFFCURVE",
"788 861 OFFCURVE",
"710 861 CURVE SMOOTH",
"610 861 OFFCURVE",
"464 758 OFFCURVE",
"281 434 CURVE",
"304 436 LINE",
"473 1208 LINE",
"406 1266 LINE",
"98 1161 LINE",
"82 1072 LINE",
"92 1059 LINE",
"302 1089 LINE",
"260 1143 LINE",
"99 365 LINE",
"0 -4 LINE",
"16 -24 LINE",
"218 12 LINE",
"248 148 LINE SMOOTH",
"328 512 OFFCURVE",
"502 683 OFFCURVE",
"595 683 CURVE SMOOTH",
"617 683 OFFCURVE",
"633 652 OFFCURVE",
"629 636 CURVE SMOOTH",
"504 129 LINE SMOOTH",
"489 67 OFFCURVE",
"576 -30 OFFCURVE",
"631 -30 CURVE SMOOTH",
"733 -30 OFFCURVE",
"850 106 OFFCURVE",
"905 195 CURVE"
);
}
);
width = 962;
},
{
layerId = "34301EF7-A2BE-469F-9697-D6100B11FDFE";
paths = (
{
closed = 1;
nodes = (
"678 634 LINE SMOOTH",
"691 694 OFFCURVE",
"614 780 OFFCURVE",
"544 780 CURVE SMOOTH",
"483 780 OFFCURVE",
"368 714 OFFCURVE",
"195 578 CURVE",
"205 520 LINE",
"388 667 OFFCURVE",
"474 703 OFFCURVE",
"509 703 CURVE SMOOTH",
"536 703 OFFCURVE",
"593 661 OFFCURVE",
"584 619 CURVE SMOOTH",
"464 60 LINE SMOOTH",
"458 31 OFFCURVE",
"513 -30 OFFCURVE",
"545 -30 CURVE SMOOTH",
"546 -30 LINE SMOOTH",
"590 -30 OFFCURVE",
"670 25 OFFCURVE",
"783 114 CURVE",
"783 126 LINE",
"771 149 LINE",
"759 149 LINE",
"655 82 OFFCURVE",
"587 45 OFFCURVE",
"570 45 CURVE SMOOTH",
"558 45 OFFCURVE",
"553 57 OFFCURVE",
"555 68 CURVE SMOOTH"
);
},
{
closed = 1;
nodes = (
"73 1084 LINE",
"315 1173 LINE",
"273 1187 LINE",
"49 122 LINE",
"7 -1 LINE",
"19 -15 LINE",
"117 11 LINE",
"377 1254 LINE",
"364 1266 LINE",
"71 1131 LINE",
"64 1088 LINE"
);
}
);
width = 798;
},
{
layerId = "CFF67ECA-3B2D-433B-B605-F38590C8F106";
paths = (
{
closed = 1;
nodes = (
"177 15 LINE",
"254 373 LINE",
"452 1236 LINE",
"416 1266 LINE",
"85 1141 LINE",
"79 1081 LINE",
"95 1067 LINE",
"349 1116 LINE",
"305 1167 LINE",
"75 122 LINE",
"19 0 LINE",
"48 -30 LINE"
);
},
{
closed = 1;
nodes = (
"882 255 LINE",
"849 292 LINE",
"840 292 LINE",
"776 205 OFFCURVE",
"730 135 OFFCURVE",
"691 135 CURVE SMOOTH",
"683 135 OFFCURVE",
"679 140 OFFCURVE",
"679 149 CURVE SMOOTH",
"679 154 OFFCURVE",
"680 159 OFFCURVE",
"681 165 CURVE SMOOTH",
"783 583 LINE SMOOTH",
"825 753 OFFCURVE",
"749 851 OFFCURVE",
"633 851 CURVE SMOOTH",
"475 851 OFFCURVE",
"353 672 OFFCURVE",
"141 160 CURVE",
"174 125 LINE",
"406 633 OFFCURVE",
"508 727 OFFCURVE",
"577 727 CURVE SMOOTH",
"635 727 OFFCURVE",
"674 662 OFFCURVE",
"654 579 CURVE SMOOTH",
"532 85 LINE SMOOTH",
"516 21 OFFCURVE",
"571 -30 OFFCURVE",
"609 -30 CURVE SMOOTH",
"704 -30 OFFCURVE",
"814 115 OFFCURVE",
"882 247 CURVE"
);
}
);
width = 932;
}
);
leftMetricsKey = l;
rightMetricsKey = n;
unicode = 0068;
},
{
glyphname = i;
lastChange = "2020-03-07 10:31:02 +0000";
layers = (
{
background = {
hints = (
{
origin = "{0, 0}";
scale = "{0.96, 0.96}";
type = Corner;
name = _corner.RightSerif;
},
{
origin = "{0, 6}";
scale = "{0.96, 0.96}";
type = Corner;
name = _corner.LeftSerif;
}
);
paths = (
{
closed = 1;
nodes = (
"262 0 LINE",
"439 844 LINE",
"423 861 LINE",
"135 755 LINE",
"128 705 LINE",
"161 625 LINE",
"26 0 LINE"
);
},
{
closed = 1;
nodes = (
"439 975 OFFCURVE",
"511 1031 OFFCURVE",
"525 1096 CURVE SMOOTH",
"542 1179 OFFCURVE",
"487 1256 OFFCURVE",
"396 1256 CURVE SMOOTH",
"318 1256 OFFCURVE",
"245 1199 OFFCURVE",
"231 1136 CURVE SMOOTH",
"213 1051 OFFCURVE",
"270 975 OFFCURVE",
"361 975 CURVE SMOOTH"
);
}
);
};
layerId = "6B6AD122-EF8D-49FE-8C69-4BDE8C56BDD8";
paths = (
{
closed = 1;
nodes = (
"430 975 OFFCURVE",
"493 1031 OFFCURVE",
"505 1096 CURVE SMOOTH",
"520 1179 OFFCURVE",
"472 1256 OFFCURVE",
"392 1256 CURVE SMOOTH",
"323 1256 OFFCURVE",
"259 1199 OFFCURVE",
"247 1136 CURVE SMOOTH",
"231 1051 OFFCURVE",
"281 975 OFFCURVE",
"361 975 CURVE SMOOTH"
);
},
{
closed = 1;
nodes = (
"48 67 OFFCURVE",
"134 -30 OFFCURVE",
"189 -30 CURVE SMOOTH",
"291 -30 OFFCURVE",
"408 106 OFFCURVE",
"463 195 CURVE",
"463 209 LINE",
"419 260 LINE",
"405 260 LINE",
"344 205 OFFCURVE",
"323 200 OFFCURVE",
"302 200 CURVE SMOOTH",
"292 200 OFFCURVE",
"287 209 OFFCURVE",
"290 223 CURVE SMOOTH",
"422 803 LINE",
"355 861 LINE",
"47 756 LINE",
"31 667 LINE",
"41 654 LINE",
"251 684 LINE",
"200 738 LINE",
"62 129 LINE SMOOTH"
);
}
);
width = 520;
},
{
layerId = "34301EF7-A2BE-469F-9697-D6100B11FDFE";
paths = (
{
closed = 1;
nodes = (
"355 1007 OFFCURVE",
"399 1044 OFFCURVE",
"408 1087 CURVE SMOOTH",
"419 1139 OFFCURVE",
"387 1185 OFFCURVE",
"343 1185 CURVE SMOOTH",
"301 1185 OFFCURVE",
"259 1149 OFFCURVE",
"250 1105 CURVE SMOOTH",
"240 1054 OFFCURVE",
"269 1007 OFFCURVE",
"316 1007 CURVE SMOOTH"
);
},
{
closed = 1;
nodes = (
"305 780 LINE",
"12 645 LINE",
"5 602 LINE",
"14 598 LINE",
"256 687 LINE",
"214 701 LINE",
"77 60 LINE",
"71 31 OFFCURVE",
"126 -30 OFFCURVE",
"158 -30 CURVE SMOOTH",
"159 -30 LINE SMOOTH",
"203 -30 OFFCURVE",
"283 25 OFFCURVE",
"396 114 CURVE",
"396 126 LINE",
"384 149 LINE",
"372 149 LINE",
"268 82 OFFCURVE",
"200 45 OFFCURVE",
"183 45 CURVE SMOOTH",
"171 45 OFFCURVE",
"166 57 OFFCURVE",
"168 68 CURVE",
"318 768 LINE"
);
}
);
width = 411;
},
{
background = {
hints = (
{
origin = "{0, 0}";
type = Corner;
name = _corner.RightSerif;
},
{
origin = "{0, 6}";
type = Corner;
name = _corner.LeftSerif;
}
);
paths = (
{
closed = 1;
nodes = (
"319 0 LINE",
"319 839 LINE",
"295 851 LINE",
"51 765 LINE",
"51 714 LINE",
"169 669 LINE",
"169 0 LINE"
);
},
{
closed = 1;
nodes = (
"301 973 OFFCURVE",
"353 1023 OFFCURVE",
"353 1080 CURVE SMOOTH",
"353 1136 OFFCURVE",
"301 1185 OFFCURVE",
"239 1185 CURVE SMOOTH",
"175 1185 OFFCURVE",
"124 1136 OFFCURVE",
"124 1080 CURVE SMOOTH",
"124 1023 OFFCURVE",
"175 973 OFFCURVE",
"239 973 CURVE SMOOTH"
);
}
);
};
layerId = "CFF67ECA-3B2D-433B-B605-F38590C8F106";
paths = (
{
closed = 1;
nodes = (
"415 973 OFFCURVE",
"469 1017 OFFCURVE",
"480 1067 CURVE SMOOTH",
"494 1130 OFFCURVE",
"451 1185 OFFCURVE",
"394 1185 CURVE SMOOTH",
"345 1185 OFFCURVE",
"293 1142 OFFCURVE",
"282 1093 CURVE SMOOTH",
"268 1029 OFFCURVE",
"309 973 OFFCURVE",
"368 973 CURVE SMOOTH"
);
},
{
closed = 1;
nodes = (
"481 257 LINE",
"449 292 LINE",
"440 292 LINE",
"351 170 OFFCURVE",
"300 135 OFFCURVE",
"279 135 CURVE SMOOTH",
"271 135 OFFCURVE",
"267 140 OFFCURVE",
"267 149 CURVE SMOOTH",
"267 154 OFFCURVE",
"268 159 OFFCURVE",
"269 165 CURVE SMOOTH",
"409 821 LINE",
"373 851 LINE",
"42 726 LINE",
"36 666 LINE",
"52 652 LINE",
"306 711 LINE",
"275 787 LINE",
"129 97 LINE SMOOTH",
"112 19 OFFCURVE",
"176 -30 OFFCURVE",
"224 -30 CURVE SMOOTH",
"293 -30 OFFCURVE",
"418 128 OFFCURVE",
"481 247 CURVE"
);
}
);
width = 531;
}
);
leftMetricsKey = n;
rightMetricsKey = n;
unicode = 0069;
},
{
glyphname = j;
lastChange = "2020-03-07 10:31:31 +0000";
layers = (
{
layerId = "6B6AD122-EF8D-49FE-8C69-4BDE8C56BDD8";
paths = (
{
closed = 1;
nodes = (
"496 1004 OFFCURVE",
"563 1056 OFFCURVE",
"576 1115 CURVE SMOOTH",
"592 1193 OFFCURVE",
"540 1266 OFFCURVE",
"457 1266 CURVE SMOOTH",
"384 1266 OFFCURVE",
"316 1213 OFFCURVE",
"304 1155 CURVE SMOOTH",
"287 1076 OFFCURVE",
"340 1004 OFFCURVE",
"425 1004 CURVE SMOOTH"
);
},
{
closed = 1;
nodes = (
"-10 -424 LINE",
"81 -328 OFFCURVE",
"300 -95 OFFCURVE",
"346 122 CURVE SMOOTH",
"489 803 LINE",
"422 861 LINE",
"114 756 LINE",
"98 667 LINE",
"108 654 LINE",
"318 684 LINE",
"267 738 LINE",
"114 35 LINE SMOOTH",
"95 -54 OFFCURVE",
"51 -179 OFFCURVE",
"-62 -379 CURVE",
"-62 -398 LINE",
"-29 -424 LINE"
);
}
);
width = 547;
},
{
associatedMasterId = "6B6AD122-EF8D-49FE-8C69-4BDE8C56BDD8";
layerId = "C15B6B87-8A32-406C-B6EA-B2191BCD8B2B";
name = Text/Large;
paths = (
{
closed = 1;
nodes = (
"250 -420 OFFCURVE",
"434 -16 OFFCURVE",
"434 184 CURVE SMOOTH",
"434 1137 LINE",
"420 1147 LINE",
"61 1047 LINE",
"61 1016 LINE",
"281 987 LINE",
"281 102 LINE SMOOTH",
"281 -143 OFFCURVE",
"207 -315 OFFCURVE",
"113 -512 CURVE",
"162 -541 LINE"
);
},
{
closed = 1;
nodes = (
"408 1419 OFFCURVE",
"467 1475 OFFCURVE",
"467 1540 CURVE SMOOTH",
"467 1604 OFFCURVE",
"408 1659 OFFCURVE",
"338 1659 CURVE SMOOTH",
"266 1659 OFFCURVE",
"207 1604 OFFCURVE",
"207 1540 CURVE SMOOTH",
"207 1475 OFFCURVE",
"266 1419 OFFCURVE",
"338 1419 CURVE SMOOTH"
);
}
);
width = 662;
},
{
associatedMasterId = "6B6AD122-EF8D-49FE-8C69-4BDE8C56BDD8";
layerId = "C8815645-C473-45AD-B3EF-879FD1679DB8";
name = Bold/Small;
paths = (
{
closed = 1;
nodes = (
"215 -424 OFFCURVE",
"463 -98 OFFCURVE",
"463 102 CURVE SMOOTH",
"463 879 LINE",
"438 901 LINE",
"76 758 LINE",
"76 717 LINE",
"145 621 LINE",
"145 61 LINE SMOOTH",
"145 -61 OFFCURVE",
"135 -225 OFFCURVE",
"41 -494 CURVE",
"127 -545 LINE"
);
},
{
closed = 1;
nodes = (
"406 1120 OFFCURVE",
"489 1204 OFFCURVE",
"489 1298 CURVE SMOOTH",
"489 1391 OFFCURVE",
"406 1475 OFFCURVE",
"301 1475 CURVE SMOOTH",
"195 1475 OFFCURVE",
"111 1391 OFFCURVE",
"111 1298 CURVE SMOOTH",
"111 1204 OFFCURVE",
"195 1120 OFFCURVE",
"301 1120 CURVE SMOOTH"
);
}
);
width = 592;
},
{
associatedMasterId = "6B6AD122-EF8D-49FE-8C69-4BDE8C56BDD8";
layerId = "6400E7DD-72A7-4A80-ABEC-BBE29D62785D";
name = Text/Small;
paths = (
{
closed = 1;
nodes = (
"207 -420 OFFCURVE",
"391 -16 OFFCURVE",
"391 184 CURVE SMOOTH",
"391 891 LINE",
"377 901 LINE",
"41 801 LINE",
"41 770 LINE",
"238 741 LINE",
"238 102 LINE SMOOTH",
"238 -143 OFFCURVE",
"164 -315 OFFCURVE",
"70 -512 CURVE",
"119 -541 LINE"
);
},
{
closed = 1;
nodes = (
"365 1235 OFFCURVE",
"424 1290 OFFCURVE",
"424 1356 CURVE SMOOTH",
"424 1419 OFFCURVE",
"365 1475 OFFCURVE",
"295 1475 CURVE SMOOTH",
"223 1475 OFFCURVE",
"164 1419 OFFCURVE",
"164 1356 CURVE SMOOTH",
"164 1290 OFFCURVE",
"223 1235 OFFCURVE",
"295 1235 CURVE SMOOTH"
);
}
);
width = 578;
},
{
associatedMasterId = "6B6AD122-EF8D-49FE-8C69-4BDE8C56BDD8";
layerId = "221168A0-42AE-4060-A999-47FABC9AC537";
name = "new Layer";
width = 1229;
},
{
layerId = "34301EF7-A2BE-469F-9697-D6100B11FDFE";
paths = (
{
closed = 1;
nodes = (
"405 1006 OFFCURVE",
"454 1044 OFFCURVE",
"463 1087 CURVE SMOOTH",
"474 1139 OFFCURVE",
"437 1185 OFFCURVE",
"383 1185 CURVE SMOOTH",
"331 1185 OFFCURVE",
"283 1149 OFFCURVE",
"274 1105 CURVE SMOOTH",
"264 1054 OFFCURVE",
"299 1006 OFFCURVE",
"355 1006 CURVE SMOOTH"
);
},
{
closed = 1;
nodes = (
"372 768 LINE",
"359 780 LINE",
"66 645 LINE",
"59 602 LINE",
"68 598 LINE",
"310 687 LINE",
"268 701 LINE",
"131 60 LINE SMOOTH",
"92 -121 OFFCURVE",
"-16 -253 OFFCURVE",
"-116 -398 CURVE",
"-116 -405 LINE",
"-84 -428 LINE",
"0 -338 OFFCURVE",
"200 -39 OFFCURVE",
"231 109 CURVE SMOOTH"
);
}
);
width = 397;
},
{
background = {
paths = (
{
closed = 1;
nodes = (
"233 -222 OFFCURVE",
"322 -57 OFFCURVE",
"322 121 CURVE SMOOTH",
"322 839 LINE",
"299 851 LINE",
"53 763 LINE",
"53 714 LINE",
"171 669 LINE",
"171 42 LINE SMOOTH",
"171 -98 OFFCURVE",
"132 -220 OFFCURVE",
"41 -378 CURVE",
"41 -399 LINE",
"109 -424 LINE"
);
},
{
closed = 1;
nodes = (
"294 1005 OFFCURVE",
"345 1056 OFFCURVE",
"345 1112 CURVE SMOOTH",
"345 1168 OFFCURVE",
"294 1217 OFFCURVE",
"232 1217 CURVE SMOOTH",
"168 1217 OFFCURVE",
"117 1168 OFFCURVE",
"117 1112 CURVE SMOOTH",
"117 1056 OFFCURVE",
"168 1005 OFFCURVE",
"232 1005 CURVE SMOOTH"
);
}
);
};
layerId = "CFF67ECA-3B2D-433B-B605-F38590C8F106";
paths = (
{
closed = 1;
nodes = (
"-40 -416 LINE",
"103 -223 OFFCURVE",
"226 -61 OFFCURVE",
"267 155 CURVE SMOOTH",
"393 821 LINE",
"357 851 LINE",
"26 726 LINE",
"20 666 LINE",
"36 652 LINE",
"290 711 LINE",
"259 787 LINE",
"122 85 LINE SMOOTH",
"93 -62 OFFCURVE",
"-3 -215 OFFCURVE",
"-109 -368 CURVE",
"-109 -386 LINE",
"-58 -416 LINE"
);
},
{
closed = 1;
nodes = (
"410 973 OFFCURVE",
"464 1017 OFFCURVE",
"475 1067 CURVE SMOOTH",
"489 1130 OFFCURVE",
"446 1185 OFFCURVE",
"389 1185 CURVE SMOOTH",
"340 1185 OFFCURVE",
"288 1142 OFFCURVE",
"277 1093 CURVE SMOOTH",
"263 1029 OFFCURVE",
"304 973 OFFCURVE",
"363 973 CURVE SMOOTH"
);
}
);
width = 435;
}
);
unicode = 006A;
},
{
glyphname = k;
lastChange = "2020-03-07 10:20:06 +0000";
layers = (
{
background = {
hints = (
{
origin = "{0, 0}";
scale = "{0.96, 0.96}";
type = Corner;
name = _corner.RightSerif;
},
{
origin = "{0, 6}";
scale = "{0.96, 0.96}";
type = Corner;
name = _corner.LeftSerif;
}
);
paths = (
{
closed = 1;
nodes = (
"235 0 LINE",
"498 1250 LINE",
"483 1266 LINE",
"195 1160 LINE",
"187 1108 LINE",
"221 1029 LINE",
"0 0 LINE"
);
},
{
closed = 1;
nodes = (
"766 0 LINE",
"792 51 LINE",
"788 62 LINE",
"769 82 OFFCURVE",
"732 132 OFFCURVE",
"716 184 CURVE SMOOTH",
"597 584 LINE",
"384 433 LINE",
"483 150 LINE SMOOTH",
"492 115 OFFCURVE",
"476 91 OFFCURVE",
"419 65 CURVE",
"425 48 LINE",
"436 0 LINE"
);
},
{
closed = 1;
nodes = (
"393 408 LINE",
"722 649 LINE SMOOTH",
"789 701 OFFCURVE",
"884 753 OFFCURVE",
"931 774 CURVE",
"930 784 LINE",
"935 831 LINE",
"624 831 LINE",
"598 790 LINE",
"604 785 LINE",
"652 758 OFFCURVE",
"605 717 OFFCURVE",
"573 692 CURVE SMOOTH",
"301 471 LINE",
"314 408 LINE"
);
}
);
};
layerId = "6B6AD122-EF8D-49FE-8C69-4BDE8C56BDD8";
paths = (
{
closed = 1;
nodes = (
"473 1208 LINE",
"406 1266 LINE",
"98 1161 LINE",
"82 1072 LINE",
"92 1059 LINE",
"302 1089 LINE",
"260 1143 LINE",
"99 365 LINE",
"0 -4 LINE",
"16 -24 LINE",
"222 12 LINE"
);
},
{
closed = 1;
nodes = (
"824 861 LINE",
"606 861 OFFCURVE",
"413 605 OFFCURVE",
"239 368 CURVE",
"217 252 LINE",
"347 417 OFFCURVE",
"568 610 OFFCURVE",
"689 610 CURVE SMOOTH",
"713 610 OFFCURVE",
"738 596 OFFCURVE",
"766 574 CURVE",
"817 596 LINE",
"863 831 LINE"
);
},
{
closed = 1;
nodes = (
"673 -30 OFFCURVE",
"780 97 OFFCURVE",
"825 166 CURVE",
"825 180 LINE",
"781 231 LINE",
"767 231 LINE",
"715 188 OFFCURVE",
"697 175 OFFCURVE",
"678 175 CURVE SMOOTH",
"660 175 OFFCURVE",
"644 188 OFFCURVE",
"634 216 CURVE SMOOTH",
"507 566 LINE",
"351 423 LINE",
"489 36 LINE SMOOTH",
"499 7 OFFCURVE",
"586 -30 OFFCURVE",
"605 -30 CURVE SMOOTH"
);
}
);
width = 848;
},
{
background = {
hints = (
{
origin = "{0, 0}";
scale = "{0.74227, 0.742}";
type = Corner;
name = _corner.RightSerif;
},
{
origin = "{0, 6}";
scale = "{0.74227, 0.74227}";
type = Corner;
name = _corner.LeftSerif;
}
);
paths = (
{
closed = 1;
nodes = (
"134 0 LINE",
"401 1257 LINE",
"391 1266 LINE",
"110 1190 LINE",
"106 1168 LINE",
"264 1147 LINE",
"20 0 LINE"
);
},
{
closed = 1;
nodes = (
"690 0 LINE",
"698 30 LINE",
"691 35 LINE",
"623 44 OFFCURVE",
"568 53 OFFCURVE",
"546 118 CURVE SMOOTH",
"407 523 LINE",
"324 446 LINE",
"426 116 LINE SMOOTH",
"443 55 OFFCURVE",
"426 56 OFFCURVE",
"335 35 CURVE",
"331 28 LINE",
"329 0 LINE"
);
},
{
closed = 1;
nodes = (
"200 352 LINE",
"609 625 LINE SMOOTH",
"696 684 OFFCURVE",
"771 703 OFFCURVE",
"837 711 CURVE",
"840 719 LINE",
"842 750 LINE",
"482 750 LINE",
"474 719 LINE",
"480 715 LINE",
"598 695 OFFCURVE",
"588 675 OFFCURVE",
"515 625 CURVE SMOOTH",
"141 361 LINE",
"140 352 LINE"
);
}
);
};
layerId = "34301EF7-A2BE-469F-9697-D6100B11FDFE";
paths = (
{
closed = 1;
nodes = (
"73 1084 LINE",
"315 1173 LINE",
"273 1187 LINE",
"49 122 LINE",
"7 -1 LINE",
"19 -15 LINE",
"117 11 LINE",
"377 1254 LINE",
"364 1266 LINE",
"71 1131 LINE",
"64 1088 LINE"
);
},
{
closed = 1;
nodes = (
"336 507 LINE",
"280 423 LINE",
"435 15 LINE SMOOTH",
"440 2 OFFCURVE",
"481 -30 OFFCURVE",
"502 -30 CURVE SMOOTH",
"503 -30 LINE SMOOTH",
"545 -30 OFFCURVE",
"635 28 OFFCURVE",
"706 77 CURVE",
"706 89 LINE",
"694 112 LINE",
"682 112 LINE",
"620 78 OFFCURVE",
"558 45 OFFCURVE",
"532 45 CURVE SMOOTH",
"515 45 OFFCURVE",
"506 59 OFFCURVE",
"499 78 CURVE SMOOTH"
);
},
{
closed = 1;
nodes = (
"659 780 LINE",
"521 780 OFFCURVE",
"366 648 OFFCURVE",
"180 346 CURVE",
"168 259 LINE",
"375 578 OFFCURVE",
"492 651 OFFCURVE",
"569 651 CURVE SMOOTH",
"604 651 OFFCURVE",
"620 635 OFFCURVE",
"616 588 CURVE",
"639 585 LINE",
"671 768 LINE"
);
}
);
width = 714;
},
{
background = {
paths = (
{
closed = 1;
nodes = (
"182 15 LINE",
"452 1236 LINE",
"416 1266 LINE",
"85 1141 LINE",
"79 1081 LINE",
"95 1067 LINE",
"349 1116 LINE",
"305 1167 LINE",
"75 122 LINE",
"22 0 LINE",
"48 -30 LINE"
);
},
{
closed = 1;
nodes = (
"682 -30 OFFCURVE",
"770 95 OFFCURVE",
"844 200 CURVE",
"844 208 LINE",
"811 245 LINE",
"802 245 LINE",
"732 179 OFFCURVE",
"668 123 OFFCURVE",
"629 123 CURVE SMOOTH",
"613 123 OFFCURVE",
"604 131 OFFCURVE",
"599 143 CURVE SMOOTH",
"429 532 LINE",
"349 423 LINE",
"529 17 LINE SMOOTH",
"544 -17 OFFCURVE",
"594 -30 OFFCURVE",
"633 -30 CURVE SMOOTH"
);
},
{
closed = 1;
nodes = (
"501 587 OFFCURVE",
"572 724 OFFCURVE",
"704 724 CURVE SMOOTH",
"743 724 OFFCURVE",
"777 709 OFFCURVE",
"806 688 CURVE",
"830 688 LINE",
"884 793 LINE",
"884 808 LINE",
"844 833 OFFCURVE",
"790 851 OFFCURVE",
"726 851 CURVE SMOOTH",
"594 851 OFFCURVE",
"411 595 OFFCURVE",
"237 358 CURVE",
"215 242 LINE"
);
}
);
};
layerId = "CFF67ECA-3B2D-433B-B605-F38590C8F106";
paths = (
{
closed = 1;
nodes = (
"182 15 LINE",
"452 1236 LINE",
"416 1266 LINE",
"85 1141 LINE",
"79 1081 LINE",
"95 1067 LINE",
"349 1116 LINE",
"305 1167 LINE",
"75 122 LINE",
"22 0 LINE",
"48 -30 LINE"
);
},
{
closed = 1;
nodes = (
"437 514 LINE",
"349 423 LINE",
"529 17 LINE SMOOTH",
"544 -17 OFFCURVE",
"594 -30 OFFCURVE",
"633 -30 CURVE SMOOTH",
"682 -30 OFFCURVE",
"770 95 OFFCURVE",
"844 200 CURVE",
"844 208 LINE",
"811 245 LINE",
"802 245 LINE",
"732 179 OFFCURVE",
"668 123 OFFCURVE",
"629 123 CURVE SMOOTH",
"613 123 OFFCURVE",
"604 131 OFFCURVE",
"599 143 CURVE SMOOTH"
);
},
{
closed = 1;
nodes = (
"822 851 LINE",
"604 851 OFFCURVE",
"411 595 OFFCURVE",
"237 358 CURVE",
"215 242 LINE",
"345 407 OFFCURVE",
"566 674 OFFCURVE",
"677 674 CURVE SMOOTH",
"777 674 LINE",
"814 692 LINE",
"847 824 LINE"
);
}
);
width = 849;
}
);
leftMetricsKey = l;
unicode = 006B;
},
{
glyphname = l;
lastChange = "2020-03-07 10:31:00 +0000";
layers = (
{
layerId = "6B6AD122-EF8D-49FE-8C69-4BDE8C56BDD8";
paths = (
{
closed = 1;
nodes = (
"24 67 OFFCURVE",
"109 -30 OFFCURVE",
"164 -30 CURVE SMOOTH",
"266 -30 OFFCURVE",
"383 106 OFFCURVE",
"438 195 CURVE",
"438 209 LINE",
"394 260 LINE",
"380 260 LINE",
"319 205 OFFCURVE",
"298 200 OFFCURVE",
"277 200 CURVE SMOOTH",
"267 200 OFFCURVE",
"262 209 OFFCURVE",
"265 223 CURVE SMOOTH",
"473 1208 LINE",
"406 1266 LINE",
"98 1161 LINE",
"82 1072 LINE",
"92 1059 LINE",
"302 1089 LINE",
"251 1143 LINE",
"37 129 LINE SMOOTH"
);
}
);
width = 490;
},
{
layerId = "34301EF7-A2BE-469F-9697-D6100B11FDFE";
paths = (
{
closed = 1;
nodes = (
"364 1266 LINE",
"71 1131 LINE",
"64 1088 LINE",
"73 1084 LINE",
"315 1173 LINE",
"273 1187 LINE",
"36 60 LINE",
"30 31 OFFCURVE",
"85 -30 OFFCURVE",
"117 -30 CURVE SMOOTH",
"118 -30 LINE SMOOTH",
"162 -30 OFFCURVE",
"242 25 OFFCURVE",
"355 114 CURVE",
"355 126 LINE",
"343 149 LINE",
"331 149 LINE",
"227 82 OFFCURVE",
"159 45 OFFCURVE",
"142 45 CURVE SMOOTH",
"130 45 OFFCURVE",
"125 57 OFFCURVE",
"127 68 CURVE",
"377 1254 LINE"
);
}
);
width = 380;
},
{
background = {
hints = (
{
origin = "{0, 4}";
type = Corner;
name = _corner.LeftSerif;
},
{
origin = "{0, 5}";
type = Corner;
name = _corner.RightSerif;
}
);
paths = (
{
closed = 1;
nodes = (
"260 1266 LINE",
"16 1173 LINE",
"16 1123 LINE",
"134 1084 LINE",
"134 0 LINE",
"284 0 LINE",
"284 1254 LINE"
);
}
);
};
layerId = "CFF67ECA-3B2D-433B-B605-F38590C8F106";
paths = (
{
closed = 1;
nodes = (
"442 253 LINE",
"408 293 LINE",
"399 293 LINE",
"308 170 OFFCURVE",
"257 135 OFFCURVE",
"236 135 CURVE SMOOTH",
"228 135 OFFCURVE",
"224 140 OFFCURVE",
"224 149 CURVE SMOOTH",
"224 154 OFFCURVE",
"225 159 OFFCURVE",
"226 165 CURVE SMOOTH",
"452 1236 LINE",
"416 1266 LINE",
"85 1141 LINE",
"79 1081 LINE",
"95 1067 LINE",
"349 1126 LINE",
"306 1143 LINE",
"84 97 LINE SMOOTH",
"69 28 OFFCURVE",
"129 -30 OFFCURVE",
"187 -30 CURVE SMOOTH",
"257 -30 OFFCURVE",
"386 126 OFFCURVE",
"442 247 CURVE"
);
}
);
width = 495;
}
);
unicode = 006C;
},
{
glyphname = m;
lastChange = "2020-03-07 10:23:15 +0000";
layers = (
{
background = {
hints = (
{
origin = "{0, 0}";
scale = "{0.96, 0.96}";
type = Corner;
name = _corner.RightSerif;
},
{
origin = "{0, 15}";
scale = "{0.96, 0.96}";
type = Corner;
name = _corner.LeftSerif;
},
{
origin = "{1, 0}";
scale = "{0.96, 0.96}";
type = Corner;
name = _corner.RightSerif;
},
{
origin = "{1, 15}";
scale = "{0.96, 0.96}";
type = Corner;
name = _corner.LeftSerif;
},
{
origin = "{2, 0}";
type = Corner;
name = _corner.RightSerif;
},
{
origin = "{2, 8}";
type = Corner;
name = _corner.LeftSerif;
}
);
paths = (
{
closed = 1;
nodes = (
"1293 0 LINE",
"1415 577 LINE SMOOTH",
"1454 760 OFFCURVE",
"1371 861 OFFCURVE",
"1223 861 CURVE SMOOTH",
"1094 861 OFFCURVE",
"982 781 OFFCURVE",
"898 699 CURVE",
"887 585 LINE",
"947 640 OFFCURVE",
"1022 678 OFFCURVE",
"1089 678 CURVE SMOOTH",
"1168 678 OFFCURVE",
"1192 627 OFFCURVE",
"1168 516 CURVE SMOOTH",
"1059 0 LINE"
);
},
{
closed = 1;
nodes = (
"789 0 LINE",
"911 577 LINE SMOOTH",
"950 760 OFFCURVE",
"875 861 OFFCURVE",
"722 861 CURVE SMOOTH",
"581 861 OFFCURVE",
"476 775 OFFCURVE",
"392 685 CURVE",
"382 585 LINE",
"442 640 OFFCURVE",
"518 678 OFFCURVE",
"585 678 CURVE SMOOTH",
"664 678 OFFCURVE",
"688 627 OFFCURVE",
"664 516 CURVE SMOOTH",
"555 0 LINE"
);
},
{
closed = 1;
nodes = (
"283 0 LINE",
"424 666 LINE",
"430 699 LINE",
"423 861 LINE",
"376 861 LINE",
"160 774 LINE",
"153 722 LINE",
"186 638 LINE",
"48 0 LINE"
);
}
);
};
layerId = "6B6AD122-EF8D-49FE-8C69-4BDE8C56BDD8";
paths = (
{
closed = 1;
nodes = (
"865 662 LINE SMOOTH",
"887 747 OFFCURVE",
"807 861 OFFCURVE",
"729 861 CURVE SMOOTH",
"629 861 OFFCURVE",
"493 758 OFFCURVE",
"310 434 CURVE",
"333 436 LINE",
"420 803 LINE",
"359 861 LINE",
"47 756 LINE",
"31 667 LINE",
"41 654 LINE",
"316 683 LINE",
"224 718 LINE",
"140 365 LINE",
"29 -4 LINE",
"45 -24 LINE",
"247 12 LINE",
"277 148 LINE SMOOTH",
"357 512 OFFCURVE",
"521 683 OFFCURVE",
"614 683 CURVE SMOOTH",
"636 683 OFFCURVE",
"652 654 OFFCURVE",
"648 636 CURVE SMOOTH",
"585 365 LINE",
"474 -4 LINE",
"490 -24 LINE",
"692 12 LINE",
"722 148 LINE SMOOTH",
"802 512 OFFCURVE",
"970 683 OFFCURVE",
"1063 683 CURVE SMOOTH",
"1085 683 OFFCURVE",
"1102 654 OFFCURVE",
"1097 636 CURVE SMOOTH",
"959 129 LINE SMOOTH",
"942 67 OFFCURVE",
"1031 -30 OFFCURVE",
"1086 -30 CURVE SMOOTH",
"1188 -30 OFFCURVE",
"1305 106 OFFCURVE",
"1360 195 CURVE",
"1360 209 LINE",
"1316 260 LINE",
"1302 260 LINE",
"1241 205 OFFCURVE",
"1220 200 OFFCURVE",
"1199 200 CURVE SMOOTH",
"1185 200 OFFCURVE",
"1184 214 OFFCURVE",
"1189 230 CURVE SMOOTH",
"1314 662 LINE SMOOTH",
"1338 746 OFFCURVE",
"1256 861 OFFCURVE",
"1178 861 CURVE SMOOTH",
"1078 861 OFFCURVE",
"938 758 OFFCURVE",
"755 434 CURVE",
"807 439 LINE"
);
}
);
width = 1422;
},
{
layerId = "34301EF7-A2BE-469F-9697-D6100B11FDFE";
paths = (
{
closed = 1;
nodes = (
"711 634 LINE SMOOTH",
"724 694 OFFCURVE",
"647 780 OFFCURVE",
"577 780 CURVE SMOOTH",
"516 780 OFFCURVE",
"411 714 OFFCURVE",
"238 578 CURVE",
"248 528 LINE",
"431 669 OFFCURVE",
"507 703 OFFCURVE",
"542 703 CURVE SMOOTH",
"569 703 OFFCURVE",
"626 661 OFFCURVE",
"617 619 CURVE SMOOTH",
"511 122 LINE",
"469 -1 LINE",
"481 -15 LINE",
"577 10 LINE"
);
},
{
closed = 1;
nodes = (
"14 598 LINE",
"256 687 LINE",
"214 701 LINE",
"92 122 LINE",
"50 -1 LINE",
"62 -15 LINE",
"160 11 LINE",
"318 768 LINE",
"305 780 LINE",
"12 645 LINE",
"5 602 LINE"
);
},
{
closed = 1;
nodes = (
"1132 634 LINE SMOOTH",
"1145 694 OFFCURVE",
"1068 780 OFFCURVE",
"998 780 CURVE SMOOTH",
"937 780 OFFCURVE",
"832 714 OFFCURVE",
"659 578 CURVE",
"669 528 LINE",
"852 669 OFFCURVE",
"928 703 OFFCURVE",
"963 703 CURVE SMOOTH",
"990 703 OFFCURVE",
"1047 661 OFFCURVE",
"1038 619 CURVE SMOOTH",
"918 60 LINE SMOOTH",
"912 31 OFFCURVE",
"967 -30 OFFCURVE",
"999 -30 CURVE SMOOTH",
"1000 -30 LINE SMOOTH",
"1044 -30 OFFCURVE",
"1124 25 OFFCURVE",
"1237 114 CURVE",
"1237 126 LINE",
"1225 149 LINE",
"1213 149 LINE",
"1109 82 OFFCURVE",
"1041 45 OFFCURVE",
"1024 45 CURVE SMOOTH",
"1012 45 OFFCURVE",
"1007 57 OFFCURVE",
"1009 68 CURVE SMOOTH"
);
}
);
width = 1252;
},
{
background = {
hints = (
{
origin = "{0, 0}";
type = Corner;
name = _corner.RightSerif;
},
{
origin = "{0, 15}";
type = Corner;
name = _corner.LeftSerif;
},
{
origin = "{1, 0}";
type = Corner;
name = _corner.RightSerif;
},
{
origin = "{1, 15}";
type = Corner;
name = _corner.LeftSerif;
},
{
origin = "{2, 0}";
scale = "{1.3, 1.1}";
type = Corner;
name = _corner.RightSerif;
},
{
origin = "{2, 8}";
type = Corner;
name = _corner.LeftSerif;
}
);
paths = (
{
closed = 1;
nodes = (
"1376 0 LINE",
"1376 594 LINE SMOOTH",
"1376 740 OFFCURVE",
"1286 851 OFFCURVE",
"1128 851 CURVE SMOOTH",
"982 851 OFFCURVE",
"900 758 OFFCURVE",
"786 631 CURVE",
"803 542 LINE",
"913 654 OFFCURVE",
"979 713 OFFCURVE",
"1071 713 CURVE SMOOTH",
"1168 713 OFFCURVE",
"1225 647 OFFCURVE",
"1225 537 CURVE SMOOTH",
"1225 0 LINE"
);
},
{
closed = 1;
nodes = (
"846 0 LINE",
"846 594 LINE SMOOTH",
"846 740 OFFCURVE",
"756 851 OFFCURVE",
"598 851 CURVE SMOOTH",
"452 851 OFFCURVE",
"370 758 OFFCURVE",
"256 631 CURVE",
"273 542 LINE",
"383 654 OFFCURVE",
"449 713 OFFCURVE",
"541 713 CURVE SMOOTH",
"638 713 OFFCURVE",
"695 647 OFFCURVE",
"695 537 CURVE SMOOTH",
"695 0 LINE"
);
},
{
closed = 1;
nodes = (
"316 0 LINE",
"316 639 LINE",
"309 656 LINE",
"247 851 LINE",
"209 851 LINE",
"19 764 LINE",
"19 714 LINE",
"165 670 LINE",
"165 0 LINE"
);
}
);
};
layerId = "CFF67ECA-3B2D-433B-B605-F38590C8F106";
paths = (
{
closed = 1;
nodes = (
"373 851 LINE",
"42 726 LINE",
"36 666 LINE",
"52 652 LINE",
"306 701 LINE",
"262 752 LINE",
"127 122 LINE",
"71 0 LINE",
"100 -30 LINE",
"229 15 LINE",
"298 373 LINE",
"409 821 LINE"
);
},
{
closed = 1;
nodes = (
"1362 255 LINE",
"1329 292 LINE",
"1320 292 LINE",
"1256 205 OFFCURVE",
"1210 135 OFFCURVE",
"1171 135 CURVE SMOOTH",
"1163 135 OFFCURVE",
"1159 140 OFFCURVE",
"1159 149 CURVE SMOOTH",
"1159 154 OFFCURVE",
"1160 159 OFFCURVE",
"1161 165 CURVE SMOOTH",
"1263 583 LINE SMOOTH",
"1305 753 OFFCURVE",
"1229 851 OFFCURVE",
"1123 851 CURVE SMOOTH",
"975 851 OFFCURVE",
"853 672 OFFCURVE",
"641 160 CURVE",
"674 125 LINE",
"906 633 OFFCURVE",
"1008 727 OFFCURVE",
"1067 727 CURVE SMOOTH",
"1115 727 OFFCURVE",
"1154 662 OFFCURVE",
"1134 579 CURVE SMOOTH",
"1012 85 LINE SMOOTH",
"996 21 OFFCURVE",
"1051 -30 OFFCURVE",
"1089 -30 CURVE SMOOTH",
"1184 -30 OFFCURVE",
"1294 115 OFFCURVE",
"1362 247 CURVE"
);
},
{
closed = 1;
nodes = (
"522 0 LINE",
"539 -30 LINE",
"676 0 LINE",
"818 583 LINE SMOOTH",
"860 754 OFFCURVE",
"784 851 OFFCURVE",
"678 851 CURVE SMOOTH",
"530 851 OFFCURVE",
"408 672 OFFCURVE",
"196 160 CURVE",
"229 125 LINE",
"461 633 OFFCURVE",
"563 727 OFFCURVE",
"622 727 CURVE SMOOTH",
"670 727 OFFCURVE",
"709 662 OFFCURVE",
"689 579 CURVE SMOOTH",
"578 122 LINE"
);
}
);
width = 1412;
}
);
leftMetricsKey = n;
rightMetricsKey = n;
unicode = 006D;
},
{
glyphname = n;
lastChange = "2020-03-07 10:30:20 +0000";
layers = (
{
background = {
paths = (
{
closed = 0;
nodes = (
"277 148 LINE SMOOTH",
"357 512 OFFCURVE",
"531 683 OFFCURVE",
"624 683 CURVE SMOOTH",
"646 683 OFFCURVE",
"662 652 OFFCURVE",
"658 636 CURVE SMOOTH",
"533 129 LINE SMOOTH",
"518 67 OFFCURVE",
"605 -30 OFFCURVE",
"660 -30 CURVE SMOOTH",
"762 -30 OFFCURVE",
"879 106 OFFCURVE",
"934 195 CURVE",
"934 209 LINE",
"890 260 LINE",
"876 260 LINE",
"815 205 OFFCURVE",
"794 200 OFFCURVE",
"773 200 CURVE SMOOTH",
"759 200 OFFCURVE",
"759 214 OFFCURVE",
"763 230 CURVE SMOOTH",
"875 662 LINE SMOOTH",
"897 747 OFFCURVE",
"817 861 OFFCURVE",
"739 861 CURVE SMOOTH",
"639 861 OFFCURVE",
"493 758 OFFCURVE",
"310 434 CURVE",
"333 436 LINE"
);
}
);
};
layerId = "6B6AD122-EF8D-49FE-8C69-4BDE8C56BDD8";
paths = (
{
closed = 1;
nodes = (
"420 803 LINE",
"359 861 LINE",
"47 756 LINE",
"31 667 LINE",
"41 654 LINE",
"316 683 LINE",
"224 718 LINE",
"140 365 LINE",
"29 -4 LINE",
"45 -24 LINE",
"247 12 LINE",
"277 148 LINE SMOOTH",
"357 512 OFFCURVE",
"531 683 OFFCURVE",
"624 683 CURVE SMOOTH",
"646 683 OFFCURVE",
"662 652 OFFCURVE",
"658 636 CURVE SMOOTH",
"533 129 LINE SMOOTH",
"518 67 OFFCURVE",
"605 -30 OFFCURVE",
"660 -30 CURVE SMOOTH",
"762 -30 OFFCURVE",
"879 106 OFFCURVE",
"934 195 CURVE",
"934 209 LINE",
"890 260 LINE",
"876 260 LINE",
"815 205 OFFCURVE",
"794 200 OFFCURVE",
"773 200 CURVE SMOOTH",
"759 200 OFFCURVE",
"759 214 OFFCURVE",
"763 230 CURVE SMOOTH",
"875 662 LINE SMOOTH",
"897 747 OFFCURVE",
"817 861 OFFCURVE",
"739 861 CURVE SMOOTH",
"639 861 OFFCURVE",
"493 758 OFFCURVE",
"310 434 CURVE",
"333 436 LINE"
);
}
);
width = 991;
},
{
annotations = (
{
position = "{1316.398, 268.12}";
type = Circle;
width = 30;
},
{
position = "{1559.119, 286.132}";
type = Circle;
width = 30;
}
);
background = {
hints = (
{
origin = "{0, 0}";
scale = "{0.74227, 0.74227}";
type = Corner;
name = _corner.RightSerif;
},
{
origin = "{0, 15}";
scale = "{0.74227, 0.74227}";
type = Corner;
name = _corner.LeftSerif;
}
);
paths = (
{
closed = 1;
nodes = (
"659 0 LINE",
"766 503 LINE SMOOTH",
"807 694 OFFCURVE",
"706 780 OFFCURVE",
"582 780 CURVE SMOOTH",
"454 780 OFFCURVE",
"315 692 OFFCURVE",
"208 564 CURVE",
"218 506 LINE",
"353 669 OFFCURVE",
"465 712 OFFCURVE",
"540 712 CURVE SMOOTH",
"659 712 OFFCURVE",
"676 611 OFFCURVE",
"647 476 CURVE SMOOTH",
"546 0 LINE"
);
}
);
};
layerId = "34301EF7-A2BE-469F-9697-D6100B11FDFE";
paths = (
{
closed = 1;
nodes = (
"721 634 LINE SMOOTH",
"734 694 OFFCURVE",
"657 780 OFFCURVE",
"587 780 CURVE SMOOTH",
"526 780 OFFCURVE",
"411 714 OFFCURVE",
"238 578 CURVE",
"248 520 LINE",
"431 667 OFFCURVE",
"517 703 OFFCURVE",
"552 703 CURVE SMOOTH",
"579 703 OFFCURVE",
"636 661 OFFCURVE",
"627 619 CURVE SMOOTH",
"507 60 LINE SMOOTH",
"501 31 OFFCURVE",
"556 -30 OFFCURVE",
"588 -30 CURVE SMOOTH",
"589 -30 LINE SMOOTH",
"633 -30 OFFCURVE",
"713 25 OFFCURVE",
"826 114 CURVE",
"826 126 LINE",
"814 149 LINE",
"802 149 LINE",
"698 82 OFFCURVE",
"630 45 OFFCURVE",
"613 45 CURVE SMOOTH",
"601 45 OFFCURVE",
"596 57 OFFCURVE",
"598 68 CURVE SMOOTH"
);
},
{
closed = 1;
nodes = (
"14 598 LINE",
"256 687 LINE",
"214 701 LINE",
"92 122 LINE",
"50 -1 LINE",
"62 -15 LINE",
"160 11 LINE",
"318 768 LINE",
"305 780 LINE",
"12 645 LINE",
"5 602 LINE"
);
}
);
width = 841;
},
{
background = {
hints = (
{
origin = "{0, 0}";
type = Corner;
name = _corner.RightSerif;
},
{
origin = "{0, 15}";
type = Corner;
name = _corner.LeftSerif;
},
{
origin = "{1, 0}";
type = Corner;
name = _corner.RightSerif;
},
{
origin = "{1, 8}";
type = Corner;
name = _corner.LeftSerif;
}
);
paths = (
{
closed = 1;
nodes = (
"884 0 LINE",
"884 591 LINE SMOOTH",
"884 761 OFFCURVE",
"743 851 OFFCURVE",
"615 851 CURVE SMOOTH",
"488 851 OFFCURVE",
"393 763 OFFCURVE",
"304 671 CURVE",
"329 602 LINE",
"403 660 OFFCURVE",
"484 714 OFFCURVE",
"577 714 CURVE SMOOTH",
"681 714 OFFCURVE",
"733 643 OFFCURVE",
"733 542 CURVE SMOOTH",
"733 0 LINE"
);
},
{
closed = 1;
nodes = (
"336 0 LINE",
"336 639 LINE",
"327 664 LINE",
"267 851 LINE",
"229 851 LINE",
"39 764 LINE",
"39 714 LINE",
"185 670 LINE",
"185 0 LINE"
);
}
);
};
layerId = "CFF67ECA-3B2D-433B-B605-F38590C8F106";
paths = (
{
closed = 1;
nodes = (
"373 851 LINE",
"42 726 LINE",
"36 666 LINE",
"52 652 LINE",
"306 701 LINE",
"262 752 LINE",
"127 122 LINE",
"71 0 LINE",
"100 -30 LINE",
"229 15 LINE",
"298 373 LINE",
"409 821 LINE"
);
},
{
closed = 1;
nodes = (
"934 255 LINE",
"901 292 LINE",
"892 292 LINE",
"831 205 OFFCURVE",
"785 135 OFFCURVE",
"746 135 CURVE SMOOTH",
"738 135 OFFCURVE",
"734 140 OFFCURVE",
"734 149 CURVE SMOOTH",
"734 154 OFFCURVE",
"735 159 OFFCURVE",
"736 165 CURVE SMOOTH",
"838 583 LINE SMOOTH",
"880 753 OFFCURVE",
"804 851 OFFCURVE",
"688 851 CURVE SMOOTH",
"530 851 OFFCURVE",
"408 672 OFFCURVE",
"196 160 CURVE",
"229 125 LINE",
"461 633 OFFCURVE",
"563 727 OFFCURVE",
"632 727 CURVE SMOOTH",
"690 727 OFFCURVE",
"729 662 OFFCURVE",
"709 579 CURVE SMOOTH",
"587 85 LINE SMOOTH",
"571 21 OFFCURVE",
"626 -30 OFFCURVE",
"664 -30 CURVE SMOOTH",
"759 -30 OFFCURVE",
"869 115 OFFCURVE",
"934 247 CURVE"
);
}
);
width = 984;
}
);
unicode = 006E;
},
{
glyphname = o;
lastChange = "2020-02-29 12:43:05 +0000";
layers = (
{
background = {
paths = (
{
closed = 1;
nodes = (
"30 121 OFFCURVE",
"59 -30 OFFCURVE",
"210 -30 CURVE SMOOTH",
"483 -30 OFFCURVE",
"701 311 OFFCURVE",
"701 602 CURVE SMOOTH",
"701 710 OFFCURVE",
"672 861 OFFCURVE",
"521 861 CURVE SMOOTH",
"248 861 OFFCURVE",
"30 520 OFFCURVE",
"30 229 CURVE SMOOTH"
);
},
{
closed = 1;
nodes = (
"241 506 OFFCURVE",
"261 678 OFFCURVE",
"381 678 CURVE SMOOTH",
"473 678 OFFCURVE",
"490 596 OFFCURVE",
"490 460 CURVE SMOOTH",
"490 325 OFFCURVE",
"470 153 OFFCURVE",
"350 153 CURVE SMOOTH",
"258 153 OFFCURVE",
"241 235 OFFCURVE",
"241 371 CURVE SMOOTH"
);
}
);
};
layerId = "6B6AD122-EF8D-49FE-8C69-4BDE8C56BDD8";
paths = (
{
closed = 1;
nodes = (
"25 141 OFFCURVE",
"124 -30 OFFCURVE",
"273 -30 CURVE SMOOTH",
"473 -30 OFFCURVE",
"706 261 OFFCURVE",
"706 542 CURVE SMOOTH",
"706 690 OFFCURVE",
"607 861 OFFCURVE",
"459 861 CURVE SMOOTH",
"258 861 OFFCURVE",
"25 570 OFFCURVE",
"25 289 CURVE SMOOTH"
);
},
{
closed = 1;
nodes = (
"238 536 OFFCURVE",
"262 703 OFFCURVE",
"369 703 CURVE SMOOTH",
"456 703 OFFCURVE",
"493 580 OFFCURVE",
"493 431 CURVE SMOOTH",
"493 295 OFFCURVE",
"469 128 OFFCURVE",
"362 128 CURVE SMOOTH",
"275 128 OFFCURVE",
"238 251 OFFCURVE",
"238 400 CURVE SMOOTH"
);
}
);
width = 741;
},
{
background = {
paths = (
{
closed = 1;
nodes = (
"534 -30 OFFCURVE",
"726 109 OFFCURVE",
"780 365 CURVE SMOOTH",
"836 631 OFFCURVE",
"710 780 OFFCURVE",
"504 780 CURVE SMOOTH",
"310 780 OFFCURVE",
"118 641 OFFCURVE",
"64 383 CURVE SMOOTH",
"8 119 OFFCURVE",
"134 -30 OFFCURVE",
"341 -30 CURVE SMOOTH"
);
},
{
closed = 1;
nodes = (
"206 26 OFFCURVE",
"135 151 OFFCURVE",
"181 365 CURVE SMOOTH",
"229 589 OFFCURVE",
"360 724 OFFCURVE",
"503 724 CURVE SMOOTH",
"638 724 OFFCURVE",
"709 599 OFFCURVE",
"663 383 CURVE SMOOTH",
"615 161 OFFCURVE",
"484 26 OFFCURVE",
"342 26 CURVE SMOOTH"
);
}
);
};
layerId = "34301EF7-A2BE-469F-9697-D6100B11FDFE";
paths = (
{
closed = 1;
nodes = (
"454 -37 OFFCURVE",
"631 248 OFFCURVE",
"631 526 CURVE SMOOTH",
"631 715 OFFCURVE",
"539 780 OFFCURVE",
"441 783 CURVE SMOOTH",
"213 790 OFFCURVE",
"33 502 OFFCURVE",
"33 224 CURVE SMOOTH",
"33 35 OFFCURVE",
"121 -30 OFFCURVE",
"226 -30 CURVE SMOOTH"
);
},
{
closed = 1;
nodes = (
"180 45 OFFCURVE",
"127 110 OFFCURVE",
"127 254 CURVE SMOOTH",
"127 440 OFFCURVE",
"206 708 OFFCURVE",
"401 708 CURVE SMOOTH",
"487 708 OFFCURVE",
"537 640 OFFCURVE",
"537 496 CURVE SMOOTH",
"537 310 OFFCURVE",
"461 45 OFFCURVE",
"266 45 CURVE SMOOTH"
);
}
);
width = 664;
},
{
background = {
paths = (
{
closed = 1;
nodes = (
"293 704 OFFCURVE",
"223 509 OFFCURVE",
"223 361 CURVE SMOOTH",
"223 260 OFFCURVE",
"261 118 OFFCURVE",
"354 118 CURVE SMOOTH",
"478 118 OFFCURVE",
"548 313 OFFCURVE",
"548 461 CURVE SMOOTH",
"548 562 OFFCURVE",
"510 704 OFFCURVE",
"417 704 CURVE SMOOTH"
);
},
{
closed = 1;
nodes = (
"112 -30 OFFCURVE",
"59 140 OFFCURVE",
"59 278 CURVE SMOOTH",
"59 559 OFFCURVE",
"256 851 OFFCURVE",
"492 851 CURVE SMOOTH",
"659 851 OFFCURVE",
"712 681 OFFCURVE",
"712 543 CURVE SMOOTH",
"712 262 OFFCURVE",
"515 -30 OFFCURVE",
"279 -30 CURVE SMOOTH"
);
}
);
};
layerId = "CFF67ECA-3B2D-433B-B605-F38590C8F106";
paths = (
{
closed = 1;
nodes = (
"276 745 OFFCURVE",
"199 539 OFFCURVE",
"199 357 CURVE SMOOTH",
"199 212 OFFCURVE",
"259 77 OFFCURVE",
"360 77 CURVE SMOOTH",
"495 77 OFFCURVE",
"572 283 OFFCURVE",
"572 465 CURVE SMOOTH",
"572 610 OFFCURVE",
"512 745 OFFCURVE",
"411 745 CURVE SMOOTH"
);
},
{
closed = 1;
nodes = (
"132 -30 OFFCURVE",
"59 150 OFFCURVE",
"59 288 CURVE SMOOTH",
"59 569 OFFCURVE",
"236 851 OFFCURVE",
"462 851 CURVE SMOOTH",
"639 851 OFFCURVE",
"712 671 OFFCURVE",
"712 533 CURVE SMOOTH",
"712 252 OFFCURVE",
"535 -30 OFFCURVE",
"309 -30 CURVE SMOOTH"
);
}
);
width = 756;
}
);
unicode = 006F;
},
{
glyphname = p;
lastChange = "2020-03-07 10:31:37 +0000";
layers = (
{
background = {
paths = (
{
closed = 1;
nodes = (
"422 803 LINE",
"355 861 LINE",
"47 756 LINE",
"31 667 LINE",
"41 654 LINE",
"251 684 LINE",
"200 738 LINE",
"39 -40 LINE",
"-60 -409 LINE",
"-44 -429 LINE",
"158 -393 LINE"
);
},
{
closed = 1;
nodes = (
"853 710 OFFCURVE",
"824 861 OFFCURVE",
"673 861 CURVE SMOOTH",
"580 861 OFFCURVE",
"353 635 OFFCURVE",
"298 503 CURVE",
"332 416 LINE",
"196 130 LINE",
"263 35 OFFCURVE",
"358 -30 OFFCURVE",
"429 -30 CURVE SMOOTH",
"587 -30 OFFCURVE",
"853 292 OFFCURVE",
"853 602 CURVE SMOOTH"
);
},
{
closed = 1;
nodes = (
"642 347 OFFCURVE",
"602 132 OFFCURVE",
"503 132 CURVE SMOOTH",
"414 132 OFFCURVE",
"308 290 OFFCURVE",
"334 415 CURVE SMOOTH",
"360 542 OFFCURVE",
"498 678 OFFCURVE",
"563 678 CURVE SMOOTH",
"625 678 OFFCURVE",
"642 632 OFFCURVE",
"642 510 CURVE SMOOTH"
);
}
);
};
layerId = "6B6AD122-EF8D-49FE-8C69-4BDE8C56BDD8";
paths = (
{
closed = 1;
nodes = (
"422 803 LINE",
"355 861 LINE",
"47 756 LINE",
"31 667 LINE",
"41 654 LINE",
"251 684 LINE",
"200 738 LINE",
"39 -40 LINE",
"-60 -409 LINE",
"-44 -429 LINE",
"158 -393 LINE"
);
},
{
closed = 1;
nodes = (
"118 187 LINE",
"152 110 OFFCURVE",
"273 -30 OFFCURVE",
"397 -30 CURVE SMOOTH",
"593 -30 OFFCURVE",
"863 304 OFFCURVE",
"863 594 CURVE SMOOTH",
"863 702 OFFCURVE",
"830 861 OFFCURVE",
"718 861 CURVE SMOOTH",
"606 861 OFFCURVE",
"339 685 OFFCURVE",
"284 453 CURVE",
"323 357 LINE",
"368 564 OFFCURVE",
"476 678 OFFCURVE",
"570 678 CURVE SMOOTH",
"633 678 OFFCURVE",
"648 626 OFFCURVE",
"648 550 CURVE SMOOTH",
"648 357 OFFCURVE",
"551 110 OFFCURVE",
"442 110 CURVE SMOOTH",
"373 110 OFFCURVE",
"292 211 OFFCURVE",
"314 316 CURVE"
);
}
);
width = 891;
},
{
layerId = "34301EF7-A2BE-469F-9697-D6100B11FDFE";
paths = (
{
closed = 1;
nodes = (
"15 601 LINE",
"257 690 LINE",
"215 704 LINE",
"5 -287 LINE",
"-37 -410 LINE",
"-25 -424 LINE",
"73 -398 LINE",
"319 771 LINE",
"306 783 LINE",
"13 648 LINE",
"6 605 LINE"
);
},
{
closed = 1;
nodes = (
"109 116 LINE",
"138 65 OFFCURVE",
"190 -30 OFFCURVE",
"302 -30 CURVE SMOOTH",
"524 -30 OFFCURVE",
"689 328 OFFCURVE",
"689 583 CURVE SMOOTH",
"689 717 OFFCURVE",
"649 780 OFFCURVE",
"562 780 CURVE SMOOTH",
"485 780 OFFCURVE",
"412 738 OFFCURVE",
"221 566 CURVE",
"234 528 LINE",
"389 647 OFFCURVE",
"477 694 OFFCURVE",
"520 694 CURVE SMOOTH",
"581 694 OFFCURVE",
"596 617 OFFCURVE",
"596 546 CURVE SMOOTH",
"596 395 OFFCURVE",
"499 42 OFFCURVE",
"325 42 CURVE SMOOTH",
"248 42 OFFCURVE",
"206 107 OFFCURVE",
"184 144 CURVE"
);
}
);
width = 715;
},
{
background = {
hints = (
{
origin = "{0, 0}";
scale = "{1.2, 1}";
type = Corner;
name = _corner.RightSerif;
},
{
origin = "{0, 8}";
type = Corner;
name = _corner.LeftSerif;
}
);
paths = (
{
closed = 1;
nodes = (
"250 -394 LINE",
"249 638 LINE",
"239 664 LINE",
"179 851 LINE",
"141 851 LINE",
"-49 764 LINE",
"-49 714 LINE",
"97 670 LINE",
"97 -394 LINE"
);
},
{
closed = 1;
nodes = (
"679 -30 OFFCURVE",
"852 148 OFFCURVE",
"852 434 CURVE SMOOTH",
"852 679 OFFCURVE",
"723 851 OFFCURVE",
"536 851 CURVE SMOOTH",
"406 851 OFFCURVE",
"298 768 OFFCURVE",
"210 665 CURVE",
"224 560 LINE",
"274 633 OFFCURVE",
"376 729 OFFCURVE",
"484 729 CURVE SMOOTH",
"603 729 OFFCURVE",
"685 614 OFFCURVE",
"685 396 CURVE SMOOTH",
"685 178 OFFCURVE",
"606 73 OFFCURVE",
"460 73 CURVE SMOOTH",
"362 73 OFFCURVE",
"286 121 OFFCURVE",
"246 170 CURVE",
"236 32 LINE",
"294 -9 OFFCURVE",
"371 -30 OFFCURVE",
"450 -30 CURVE SMOOTH"
);
}
);
};
layerId = "CFF67ECA-3B2D-433B-B605-F38590C8F106";
paths = (
{
closed = 1;
nodes = (
"409 821 LINE",
"373 851 LINE",
"42 726 LINE",
"36 666 LINE",
"52 652 LINE",
"306 711 LINE",
"263 728 LINE",
"88 -82 LINE",
"-34 -403 LINE",
"-12 -434 LINE",
"152 -380 LINE"
);
},
{
closed = 1;
nodes = (
"538 851 OFFCURVE",
"365 645 OFFCURVE",
"243 343 CURVE",
"265 182 LINE",
"348 571 OFFCURVE",
"575 722 OFFCURVE",
"639 722 CURVE SMOOTH",
"682 722 OFFCURVE",
"693 616 OFFCURVE",
"693 555 CURVE SMOOTH",
"693 387 OFFCURVE",
"601 89 OFFCURVE",
"430 89 CURVE SMOOTH",
"378 89 OFFCURVE",
"319 124 OFFCURVE",
"225 202 CURVE",
"191 60 LINE",
"267 0 OFFCURVE",
"323 -30 OFFCURVE",
"393 -30 CURVE SMOOTH",
"625 -30 OFFCURVE",
"827 334 OFFCURVE",
"827 623 CURVE SMOOTH",
"827 741 OFFCURVE",
"792 851 OFFCURVE",
"683 851 CURVE SMOOTH"
);
}
);
width = 857;
}
);
leftMetricsKey = n;
rightMetricsKey = b;
unicode = 0070;
},
{
glyphname = q;
lastChange = "2020-03-07 10:21:33 +0000";
layers = (
{
layerId = "6B6AD122-EF8D-49FE-8C69-4BDE8C56BDD8";
paths = (
{
closed = 1;
nodes = (
"18 121 OFFCURVE",
"47 -30 OFFCURVE",
"198 -30 CURVE SMOOTH",
"321 -30 OFFCURVE",
"518 196 OFFCURVE",
"573 308 CURVE",
"539 415 LINE",
"675 701 LINE",
"608 796 OFFCURVE",
"513 861 OFFCURVE",
"442 861 CURVE SMOOTH",
"284 861 OFFCURVE",
"18 539 OFFCURVE",
"18 229 CURVE SMOOTH"
);
},
{
closed = 1;
nodes = (
"229 484 OFFCURVE",
"269 699 OFFCURVE",
"368 699 CURVE SMOOTH",
"457 699 OFFCURVE",
"563 541 OFFCURVE",
"537 416 CURVE SMOOTH",
"511 289 OFFCURVE",
"373 153 OFFCURVE",
"308 153 CURVE SMOOTH",
"246 153 OFFCURVE",
"229 199 OFFCURVE",
"229 321 CURVE SMOOTH"
);
},
{
closed = 1;
nodes = (
"770 861 LINE",
"608 749 LINE",
"394 -265 LINE SMOOTH",
"381 -327 OFFCURVE",
"466 -424 OFFCURVE",
"521 -424 CURVE SMOOTH",
"623 -424 OFFCURVE",
"734 -288 OFFCURVE",
"789 -199 CURVE",
"789 -185 LINE",
"745 -134 LINE",
"731 -134 LINE",
"670 -189 OFFCURVE",
"649 -194 OFFCURVE",
"628 -194 CURVE SMOOTH",
"618 -194 OFFCURVE",
"613 -185 OFFCURVE",
"616 -171 CURVE SMOOTH",
"828 826 LINE"
);
},
{
closed = 1;
nodes = (
"816 466 LINE",
"822 527 LINE",
"738 652 LINE",
"710 403 LINE"
);
}
);
width = 855;
},
{
layerId = "34301EF7-A2BE-469F-9697-D6100B11FDFE";
paths = (
{
closed = 1;
nodes = (
"456 210 LINE",
"338 106 OFFCURVE",
"229 52 OFFCURVE",
"171 52 CURVE SMOOTH",
"129 52 OFFCURVE",
"120 131 OFFCURVE",
"120 184 CURVE SMOOTH",
"120 343 OFFCURVE",
"198 694 OFFCURVE",
"305 694 CURVE SMOOTH",
"379 694 OFFCURVE",
"467 678 OFFCURVE",
"561 654 CURVE",
"634 740 LINE",
"508 769 OFFCURVE",
"445 780 OFFCURVE",
"389 780 CURVE SMOOTH",
"151 780 OFFCURVE",
"27 418 OFFCURVE",
"27 123 CURVE SMOOTH",
"27 29 OFFCURVE",
"65 -30 OFFCURVE",
"140 -30 CURVE SMOOTH",
"204 -30 OFFCURVE",
"305 13 OFFCURVE",
"484 189 CURVE"
);
},
{
closed = 1;
nodes = (
"634 740 LINE",
"545 721 LINE",
"322 -334 LINE SMOOTH",
"316 -363 OFFCURVE",
"371 -424 OFFCURVE",
"403 -424 CURVE SMOOTH",
"404 -424 LINE SMOOTH",
"448 -424 OFFCURVE",
"528 -369 OFFCURVE",
"641 -280 CURVE",
"641 -268 LINE",
"629 -245 LINE",
"617 -245 LINE",
"513 -312 OFFCURVE",
"445 -349 OFFCURVE",
"428 -349 CURVE SMOOTH",
"416 -349 OFFCURVE",
"411 -337 OFFCURVE",
"413 -326 CURVE SMOOTH",
"638 733 LINE"
);
}
);
width = 665;
},
{
background = {
hints = (
{
origin = "{1, 0}";
type = Corner;
name = _corner.RightSerif;
},
{
origin = "{1, 4}";
type = Corner;
name = _corner.LeftSerif;
}
);
paths = (
{
closed = 1;
nodes = (
"812 -30 OFFCURVE",
"896 35 OFFCURVE",
"956 97 CURVE",
"952 203 LINE",
"931 159 OFFCURVE",
"844 88 OFFCURVE",
"737 88 CURVE SMOOTH",
"597 88 OFFCURVE",
"502 211 OFFCURVE",
"502 433 CURVE SMOOTH",
"502 628 OFFCURVE",
"589 739 OFFCURVE",
"758 739 CURVE SMOOTH",
"833 739 OFFCURVE",
"898 717 OFFCURVE",
"955 690 CURVE",
"1045 804 LINE",
"953 837 OFFCURVE",
"864 851 OFFCURVE",
"793 851 CURVE SMOOTH",
"533 851 OFFCURVE",
"338 658 OFFCURVE",
"338 385 CURVE SMOOTH",
"338 146 OFFCURVE",
"482 -30 OFFCURVE",
"688 -30 CURVE SMOOTH"
);
},
{
closed = 1;
nodes = (
"1087 -394 LINE",
"1087 845 LINE",
"1047 856 LINE",
"933 745 LINE",
"933 -394 LINE"
);
}
);
};
layerId = "CFF67ECA-3B2D-433B-B605-F38590C8F106";
paths = (
{
closed = 1;
nodes = (
"334 -30 OFFCURVE",
"507 176 OFFCURVE",
"629 478 CURVE",
"607 639 LINE",
"524 250 OFFCURVE",
"297 99 OFFCURVE",
"233 99 CURVE SMOOTH",
"190 99 OFFCURVE",
"179 205 OFFCURVE",
"179 266 CURVE SMOOTH",
"179 434 OFFCURVE",
"271 732 OFFCURVE",
"442 732 CURVE SMOOTH",
"494 732 OFFCURVE",
"553 697 OFFCURVE",
"647 619 CURVE",
"681 761 LINE",
"605 821 OFFCURVE",
"549 851 OFFCURVE",
"479 851 CURVE SMOOTH",
"247 851 OFFCURVE",
"45 487 OFFCURVE",
"45 198 CURVE SMOOTH",
"45 80 OFFCURVE",
"80 -30 OFFCURVE",
"189 -30 CURVE SMOOTH"
);
},
{
closed = 1;
nodes = (
"408 -297 LINE SMOOTH",
"393 -366 OFFCURVE",
"453 -424 OFFCURVE",
"511 -424 CURVE SMOOTH",
"581 -424 OFFCURVE",
"706 -274 OFFCURVE",
"790 -127 CURVE",
"790 -121 LINE",
"756 -81 LINE",
"747 -81 LINE",
"628 -230 OFFCURVE",
"581 -259 OFFCURVE",
"560 -259 CURVE SMOOTH",
"552 -259 OFFCURVE",
"548 -254 OFFCURVE",
"548 -245 CURVE SMOOTH",
"548 -240 OFFCURVE",
"549 -235 OFFCURVE",
"550 -229 CURVE SMOOTH",
"772 821 LINE",
"736 851 LINE",
"638 787 LINE"
);
},
{
closed = 1;
nodes = (
"801 625 LINE",
"807 660 LINE",
"723 732 LINE",
"695 589 LINE"
);
}
);
width = 836;
}
);
leftMetricsKey = a;
unicode = 0071;
},
{
glyphname = r;
lastChange = "2020-03-07 10:30:24 +0000";
layers = (
{
background = {
paths = (
{
closed = 1;
nodes = (
"639 861 OFFCURVE",
"493 758 OFFCURVE",
"310 434 CURVE",
"333 436 LINE",
"420 803 LINE",
"359 861 LINE",
"47 756 LINE",
"31 667 LINE",
"41 654 LINE",
"316 683 LINE",
"224 718 LINE",
"140 365 LINE",
"29 -4 LINE",
"45 -24 LINE",
"247 12 LINE",
"277 148 LINE SMOOTH",
"357 512 OFFCURVE",
"531 683 OFFCURVE",
"624 683 CURVE",
"560 689 LINE",
"548 597 OFFCURVE",
"572 552 OFFCURVE",
"623 552 CURVE SMOOTH",
"681 552 OFFCURVE",
"888 625 OFFCURVE",
"944 677 CURVE",
"946 684 LINE",
"927 722 LINE",
"919 724 LINE",
"874 703 OFFCURVE",
"817 659 OFFCURVE",
"782 659 CURVE",
"807 644 LINE",
"807 693 OFFCURVE",
"834 861 OFFCURVE",
"739 861 CURVE SMOOTH"
);
}
);
};
layerId = "6B6AD122-EF8D-49FE-8C69-4BDE8C56BDD8";
paths = (
{
closed = 1;
nodes = (
"609 861 OFFCURVE",
"489 758 OFFCURVE",
"301 432 CURVE",
"333 436 LINE",
"420 803 LINE",
"359 861 LINE",
"47 756 LINE",
"31 667 LINE",
"41 654 LINE",
"316 683 LINE",
"224 718 LINE",
"140 365 LINE",
"29 -4 LINE",
"45 -24 LINE",
"247 12 LINE",
"277 148 LINE SMOOTH",
"357 512 OFFCURVE",
"511 683 OFFCURVE",
"604 683 CURVE",
"540 689 LINE",
"528 597 OFFCURVE",
"552 538 OFFCURVE",
"623 538 CURVE SMOOTH",
"681 538 OFFCURVE",
"828 605 OFFCURVE",
"884 657 CURVE",
"886 664 LINE",
"867 702 LINE",
"859 704 LINE",
"814 683 OFFCURVE",
"777 659 OFFCURVE",
"742 659 CURVE",
"767 644 LINE",
"767 693 OFFCURVE",
"794 861 OFFCURVE",
"699 861 CURVE SMOOTH"
);
}
);
width = 805;
},
{
background = {
paths = (
{
closed = 1;
nodes = (
"14 598 LINE",
"256 687 LINE",
"214 701 LINE",
"92 122 LINE",
"50 -1 LINE",
"62 -15 LINE",
"160 11 LINE",
"318 768 LINE",
"305 780 LINE",
"12 645 LINE",
"5 602 LINE"
);
},
{
closed = 1;
nodes = (
"460 733 LINE",
"441 662 OFFCURVE",
"431 605 OFFCURVE",
"431 564 CURVE SMOOTH",
"431 516 OFFCURVE",
"445 490 OFFCURVE",
"473 490 CURVE SMOOTH",
"531 490 OFFCURVE",
"611 544 OFFCURVE",
"647 596 CURVE",
"649 603 LINE",
"630 641 LINE",
"622 643 LINE",
"577 622 OFFCURVE",
"520 578 OFFCURVE",
"485 578 CURVE",
"510 563 LINE",
"521 589 OFFCURVE",
"539 648 OFFCURVE",
"539 698 CURVE SMOOTH",
"539 743 OFFCURVE",
"524 780 OFFCURVE",
"477 780 CURVE SMOOTH",
"415 780 OFFCURVE",
"359 716 OFFCURVE",
"228 552 CURVE",
"248 524 LINE",
"387 687 OFFCURVE",
"438 729 OFFCURVE",
"483 729 CURVE"
);
}
);
};
layerId = "34301EF7-A2BE-469F-9697-D6100B11FDFE";
paths = (
{
closed = 1;
nodes = (
"14 598 LINE",
"256 687 LINE",
"214 701 LINE",
"92 122 LINE",
"50 -1 LINE",
"62 -15 LINE",
"160 11 LINE",
"318 768 LINE",
"305 780 LINE",
"12 645 LINE",
"5 602 LINE"
);
},
{
closed = 1;
nodes = (
"456 751 LINE",
"427 692 OFFCURVE",
"400 624 OFFCURVE",
"400 573 CURVE SMOOTH",
"400 555 OFFCURVE",
"421 529 OFFCURVE",
"442 529 CURVE SMOOTH",
"500 529 OFFCURVE",
"570 582 OFFCURVE",
"611 617 CURVE",
"613 624 LINE",
"599 641 LINE",
"591 641 LINE",
"532 592 OFFCURVE",
"489 579 OFFCURVE",
"454 579 CURVE",
"479 572 LINE",
"545 682 OFFCURVE",
"538 780 OFFCURVE",
"466 780 CURVE SMOOTH",
"410 780 OFFCURVE",
"359 716 OFFCURVE",
"228 552 CURVE",
"248 524 LINE",
"365 668 OFFCURVE",
"414 725 OFFCURVE",
"469 747 CURVE"
);
}
);
width = 546;
},
{
background = {
paths = (
{
closed = 1;
nodes = (
"374 851 LINE",
"43 726 LINE",
"37 666 LINE",
"53 652 LINE",
"307 701 LINE",
"263 752 LINE",
"128 122 LINE",
"72 -26 LINE",
"101 -57 LINE",
"230 15 LINE",
"321 460 LINE",
"410 821 LINE"
);
},
{
closed = 1;
nodes = (
"661 634 LINE",
"661 683 OFFCURVE",
"688 851 OFFCURVE",
"593 851 CURVE SMOOTH",
"468 851 OFFCURVE",
"357 565 OFFCURVE",
"223 277 CURVE",
"242 202 LINE",
"344 437 OFFCURVE",
"481 729 OFFCURVE",
"541 729 CURVE",
"529 597 OFFCURVE",
"553 561 OFFCURVE",
"604 561 CURVE SMOOTH",
"662 561 OFFCURVE",
"742 615 OFFCURVE",
"798 667 CURVE",
"800 674 LINE",
"781 712 LINE",
"773 714 LINE",
"728 693 OFFCURVE",
"671 649 OFFCURVE",
"636 649 CURVE"
);
}
);
};
layerId = "CFF67ECA-3B2D-433B-B605-F38590C8F106";
paths = (
{
closed = 1;
nodes = (
"373 851 LINE",
"42 726 LINE",
"36 666 LINE",
"52 652 LINE",
"306 701 LINE",
"262 752 LINE",
"127 122 LINE",
"71 -26 LINE",
"100 -57 LINE",
"229 15 LINE",
"320 460 LINE",
"409 821 LINE"
);
},
{
closed = 1;
nodes = (
"666 682 LINE",
"688 695 LINE",
"726 814 LINE",
"719 832 LINE",
"676 846 OFFCURVE",
"645 851 OFFCURVE",
"616 851 CURVE SMOOTH",
"467 851 OFFCURVE",
"356 565 OFFCURVE",
"222 277 CURVE",
"241 202 LINE",
"343 437 OFFCURVE",
"458 682 OFFCURVE",
"528 682 CURVE SMOOTH"
);
}
);
width = 670;
}
);
leftMetricsKey = n;
unicode = 0072;
},
{
glyphname = s;
lastChange = "2020-03-07 10:37:59 +0000";
layers = (
{
background = {
paths = (
{
closed = 1;
nodes = (
"595 796 LINE",
"534 839 OFFCURVE",
"451 861 OFFCURVE",
"380 861 CURVE SMOOTH",
"194 861 OFFCURVE",
"18 722 OFFCURVE",
"18 562 CURVE SMOOTH",
"18 349 OFFCURVE",
"343 330 OFFCURVE",
"343 161 CURVE SMOOTH",
"343 113 OFFCURVE",
"318 89 OFFCURVE",
"278 89 CURVE SMOOTH",
"210 89 OFFCURVE",
"115 162 OFFCURVE",
"20 240 CURVE",
"-6 240 LINE",
"-88 92 LINE",
"-88 67 LINE",
"-9 23 OFFCURVE",
"123 -30 OFFCURVE",
"222 -30 CURVE SMOOTH",
"365 -30 OFFCURVE",
"522 112 OFFCURVE",
"522 250 CURVE SMOOTH",
"522 452 OFFCURVE",
"181 522 OFFCURVE",
"181 650 CURVE SMOOTH",
"181 677 OFFCURVE",
"197 715 OFFCURVE",
"278 715 CURVE SMOOTH",
"358 715 OFFCURVE",
"448 679 OFFCURVE",
"500 637 CURVE",
"524 637 LINE",
"595 770 LINE"
);
}
);
};
layerId = "6B6AD122-EF8D-49FE-8C69-4BDE8C56BDD8";
paths = (
{
closed = 1;
nodes = (
"362 155 OFFCURVE",
"346 116 OFFCURVE",
"269 116 CURVE SMOOTH",
"185 116 OFFCURVE",
"105 162 OFFCURVE",
"43 194 CURVE",
"19 194 LINE",
"-52 49 LINE",
"-52 23 LINE",
"9 -10 OFFCURVE",
"112 -30 OFFCURVE",
"183 -30 CURVE SMOOTH",
"369 -30 OFFCURVE",
"525 119 OFFCURVE",
"525 283 CURVE SMOOTH",
"525 466 OFFCURVE",
"221 526 OFFCURVE",
"221 652 CURVE SMOOTH",
"221 677 OFFCURVE",
"233 715 OFFCURVE",
"294 715 CURVE SMOOTH",
"354 715 OFFCURVE",
"448 679 OFFCURVE",
"500 637 CURVE",
"524 637 LINE",
"595 770 LINE",
"595 796 LINE",
"534 839 OFFCURVE",
"451 861 OFFCURVE",
"380 861 CURVE SMOOTH",
"234 861 OFFCURVE",
"58 712 OFFCURVE",
"58 548 CURVE SMOOTH",
"58 335 OFFCURVE",
"362 306 OFFCURVE",
"362 182 CURVE SMOOTH"
);
}
);
width = 584;
},
{
background = {
paths = (
{
closed = 1;
nodes = (
"67 166 LINE",
"7 131 LINE",
"7 112 LINE",
"43 30 OFFCURVE",
"128 -30 OFFCURVE",
"235 -30 CURVE SMOOTH",
"394 -30 OFFCURVE",
"524 63 OFFCURVE",
"524 207 CURVE SMOOTH",
"524 418 OFFCURVE",
"221 416 OFFCURVE",
"221 579 CURVE SMOOTH",
"221 664 OFFCURVE",
"301 727 OFFCURVE",
"380 727 CURVE SMOOTH",
"453 727 OFFCURVE",
"508 680 OFFCURVE",
"515 579 CURVE",
"548 577 LINE",
"579 732 LINE",
"536 756 OFFCURVE",
"467 780 OFFCURVE",
"406 780 CURVE SMOOTH",
"257 780 OFFCURVE",
"132 688 OFFCURVE",
"132 547 CURVE SMOOTH",
"132 337 OFFCURVE",
"426 352 OFFCURVE",
"426 183 CURVE SMOOTH",
"426 93 OFFCURVE",
"343 24 OFFCURVE",
"252 24 CURVE SMOOTH",
"180 24 OFFCURVE",
"120 75 OFFCURVE",
"83 166 CURVE"
);
}
);
};
layerId = "34301EF7-A2BE-469F-9697-D6100B11FDFE";
paths = (
{
closed = 1;
nodes = (
"55 173 LINE",
"7 127 LINE",
"7 108 LINE",
"86 0 OFFCURVE",
"179 -30 OFFCURVE",
"258 -30 CURVE SMOOTH",
"388 -30 OFFCURVE",
"477 56 OFFCURVE",
"477 183 CURVE SMOOTH",
"477 393 OFFCURVE",
"223 454 OFFCURVE",
"223 615 CURVE SMOOTH",
"223 690 OFFCURVE",
"281 732 OFFCURVE",
"353 732 CURVE SMOOTH",
"436 732 OFFCURVE",
"501 676 OFFCURVE",
"508 569 CURVE",
"541 567 LINE",
"572 722 LINE",
"529 752 OFFCURVE",
"460 780 OFFCURVE",
"379 780 CURVE SMOOTH",
"237 780 OFFCURVE",
"146 701 OFFCURVE",
"146 579 CURVE SMOOTH",
"146 378 OFFCURVE",
"402 330 OFFCURVE",
"402 150 CURVE SMOOTH",
"402 60 OFFCURVE",
"340 19 OFFCURVE",
"276 19 CURVE SMOOTH",
"215 19 OFFCURVE",
"152 55 OFFCURVE",
"71 173 CURVE"
);
},
{
closed = 0;
nodes = (
"283 292 LINE"
);
}
);
width = 587;
},
{
background = {
paths = (
{
closed = 0;
nodes = (
"79 598 LINE SMOOTH",
"79 332 OFFCURVE",
"381 337 OFFCURVE",
"381 170 CURVE SMOOTH",
"381 109 OFFCURVE",
"340 79 OFFCURVE",
"270 79 CURVE SMOOTH",
"221 79 OFFCURVE",
"172 95 OFFCURVE",
"80 134 CURVE",
"64 134 LINE",
"17 31 LINE",
"17 15 LINE",
"100 -24 OFFCURVE",
"182 -29 OFFCURVE",
"220 -29 CURVE SMOOTH",
"379 -29 OFFCURVE",
"492 51 OFFCURVE",
"492 205 CURVE SMOOTH",
"492 447 OFFCURVE",
"193 435 OFFCURVE",
"193 638 CURVE SMOOTH"
);
}
);
};
layerId = "CFF67ECA-3B2D-433B-B605-F38590C8F106";
paths = (
{
closed = 1;
nodes = (
"356 122 OFFCURVE",
"319 76 OFFCURVE",
"260 76 CURVE SMOOTH",
"206 76 OFFCURVE",
"136 117 OFFCURVE",
"51 179 CURVE",
"35 179 LINE",
"-24 75 LINE",
"-22 60 LINE",
"77 3 OFFCURVE",
"167 -30 OFFCURVE",
"242 -30 CURVE SMOOTH",
"368 -30 OFFCURVE",
"474 69 OFFCURVE",
"474 202 CURVE SMOOTH",
"474 419 OFFCURVE",
"194 525 OFFCURVE",
"194 660 CURVE SMOOTH",
"194 713 OFFCURVE",
"236 743 OFFCURVE",
"299 743 CURVE SMOOTH",
"345 743 OFFCURVE",
"390 727 OFFCURVE",
"472 688 CURVE",
"488 688 LINE",
"535 791 LINE",
"535 807 LINE",
"452 846 OFFCURVE",
"370 851 OFFCURVE",
"336 851 CURVE SMOOTH",
"183 851 OFFCURVE",
"77 755 OFFCURVE",
"77 626 CURVE SMOOTH",
"77 419 OFFCURVE",
"356 327 OFFCURVE",
"356 177 CURVE SMOOTH"
);
}
);
width = 542;
}
);
unicode = 0073;
},
{
glyphname = t;
lastChange = "2020-03-07 10:38:08 +0000";
layers = (
{
background = {
paths = (
{
closed = 1;
nodes = (
"306 -30 OFFCURVE",
"433 29 OFFCURVE",
"516 79 CURVE",
"496 182 LINE",
"450 171 OFFCURVE",
"403 159 OFFCURVE",
"360 159 CURVE SMOOTH",
"306 159 OFFCURVE",
"282 173 OFFCURVE",
"296 238 CURVE SMOOTH",
"457 996 LINE",
"410 1014 LINE",
"192 844 LINE",
"76 800 LINE",
"57 707 LINE",
"157 686 LINE",
"48 177 LINE SMOOTH",
"19 39 OFFCURVE",
"118 -30 OFFCURVE",
"217 -30 CURVE SMOOTH"
);
},
{
closed = 1;
nodes = (
"636 699 LINE",
"664 831 LINE",
"199 831 LINE",
"197 699 LINE"
);
}
);
};
layerId = "6B6AD122-EF8D-49FE-8C69-4BDE8C56BDD8";
paths = (
{
closed = 1;
nodes = (
"598 859 LINE",
"299 831 LINE",
"297 699 LINE",
"586 699 LINE",
"616 842 LINE"
);
},
{
closed = 1;
nodes = (
"51 697 LINE",
"161 697 LINE",
"41 128 LINE SMOOTH",
"28 66 OFFCURVE",
"113 -30 OFFCURVE",
"168 -30 CURVE SMOOTH",
"270 -30 OFFCURVE",
"399 106 OFFCURVE",
"524 245 CURVE",
"524 259 LINE",
"480 310 LINE",
"466 310 LINE",
"335 205 OFFCURVE",
"302 200 OFFCURVE",
"281 200 CURVE SMOOTH",
"271 200 OFFCURVE",
"266 209 OFFCURVE",
"269 223 CURVE SMOOTH",
"436 1019 LINE",
"421 1036 LINE",
"326 1036 LINE",
"129 759 LINE",
"291 882 LINE",
"56 800 LINE",
"38 712 LINE"
);
}
);
width = 592;
},
{
layerId = "34301EF7-A2BE-469F-9697-D6100B11FDFE";
paths = (
{
closed = 1;
nodes = (
"546 780 LINE",
"227 756 LINE",
"242 697 LINE",
"547 697 LINE",
"556 764 LINE"
);
},
{
closed = 1;
nodes = (
"352 1036 LINE",
"312 1036 LINE",
"207 762 LINE",
"57 735 LINE",
"51 702 LINE",
"56 697 LINE",
"200 697 LINE",
"75 89 LINE SMOOTH",
"64 38 OFFCURVE",
"119 -30 OFFCURVE",
"192 -30 CURVE SMOOTH",
"247 -30 OFFCURVE",
"343 35 OFFCURVE",
"453 134 CURVE",
"453 146 LINE",
"441 169 LINE",
"429 169 LINE",
"305 75 OFFCURVE",
"244 45 OFFCURVE",
"207 45 CURVE SMOOTH",
"175 45 OFFCURVE",
"159 68 OFFCURVE",
"165 96 CURVE SMOOTH",
"361 1024 LINE"
);
}
);
width = 509;
},
{
background = {
paths = (
{
closed = 1;
nodes = (
"391 -30 OFFCURVE",
"486 16 OFFCURVE",
"555 63 CURVE",
"534 127 LINE",
"485 108 OFFCURVE",
"436 97 OFFCURVE",
"394 97 CURVE SMOOTH",
"314 97 OFFCURVE",
"268 137 OFFCURVE",
"268 229 CURVE SMOOTH",
"268 987 LINE",
"236 999 LINE",
"112 842 LINE",
"-24 800 LINE",
"-24 734 LINE",
"116 713 LINE",
"116 177 LINE SMOOTH",
"116 39 OFFCURVE",
"214 -30 OFFCURVE",
"312 -30 CURVE SMOOTH"
);
},
{
closed = 1;
nodes = (
"535 730 LINE",
"535 821 LINE",
"212 821 LINE",
"212 730 LINE"
);
}
);
};
layerId = "CFF67ECA-3B2D-433B-B605-F38590C8F106";
paths = (
{
closed = 1;
nodes = (
"549 731 LINE",
"575 828 LINE",
"566 840 LINE",
"348 822 LINE",
"313 731 LINE"
);
},
{
closed = 1;
nodes = (
"56 734 LINE",
"211 734 LINE",
"76 101 LINE SMOOTH",
"59 20 OFFCURVE",
"136 -30 OFFCURVE",
"184 -30 CURVE SMOOTH",
"253 -30 OFFCURVE",
"373 114 OFFCURVE",
"484 251 CURVE",
"484 261 LINE",
"452 296 LINE",
"443 296 LINE",
"306 156 OFFCURVE",
"250 120 OFFCURVE",
"229 120 CURVE SMOOTH",
"221 120 OFFCURVE",
"211 127 OFFCURVE",
"211 136 CURVE SMOOTH",
"211 141 OFFCURVE",
"212 146 OFFCURVE",
"213 152 CURVE SMOOTH",
"388 1006 LINE",
"381 1016 LINE",
"303 1016 LINE",
"209 792 LINE",
"280 839 LINE",
"58 800 LINE",
"47 743 LINE"
);
}
);
width = 549;
}
);
unicode = 0074;
},
{
glyphname = u;
lastChange = "2020-03-07 10:23:19 +0000";
layers = (
{
background = {
paths = (
{
closed = 1;
nodes = (
"471 803 LINE",
"410 861 LINE",
"98 756 LINE",
"82 667 LINE",
"92 654 LINE",
"367 683 LINE",
"275 718 LINE",
"191 365 LINE",
"80 -4 LINE",
"96 -24 LINE",
"298 12 LINE",
"328 148 LINE SMOOTH",
"408 512 OFFCURVE",
"582 683 OFFCURVE",
"675 683 CURVE SMOOTH",
"697 683 OFFCURVE",
"713 652 OFFCURVE",
"709 636 CURVE SMOOTH",
"584 129 LINE SMOOTH",
"569 67 OFFCURVE",
"656 -30 OFFCURVE",
"711 -30 CURVE SMOOTH",
"813 -30 OFFCURVE",
"930 106 OFFCURVE",
"985 195 CURVE",
"985 209 LINE",
"941 260 LINE",
"927 260 LINE",
"866 205 OFFCURVE",
"845 200 OFFCURVE",
"824 200 CURVE SMOOTH",
"810 200 OFFCURVE",
"810 214 OFFCURVE",
"814 230 CURVE SMOOTH",
"926 662 LINE SMOOTH",
"948 747 OFFCURVE",
"868 861 OFFCURVE",
"790 861 CURVE SMOOTH",
"690 861 OFFCURVE",
"544 758 OFFCURVE",
"361 434 CURVE",
"384 436 LINE"
);
}
);
};
layerId = "6B6AD122-EF8D-49FE-8C69-4BDE8C56BDD8";
paths = (
{
closed = 1;
nodes = (
"826 472 LINE",
"930 841 LINE",
"914 861 LINE",
"712 825 LINE",
"682 689 LINE SMOOTH",
"602 325 OFFCURVE",
"428 154 OFFCURVE",
"335 154 CURVE SMOOTH",
"313 154 OFFCURVE",
"297 185 OFFCURVE",
"301 201 CURVE SMOOTH",
"450 803 LINE",
"389 861 LINE",
"47 756 LINE",
"31 667 LINE",
"41 654 LINE",
"316 683 LINE",
"224 718 LINE",
"84 175 LINE SMOOTH",
"62 90 OFFCURVE",
"142 -24 OFFCURVE",
"220 -24 CURVE SMOOTH",
"320 -24 OFFCURVE",
"466 79 OFFCURVE",
"649 403 CURVE",
"626 401 LINE",
"560 119 LINE SMOOTH",
"544 50 OFFCURVE",
"642 -30 OFFCURVE",
"697 -30 CURVE SMOOTH",
"799 -30 OFFCURVE",
"895 106 OFFCURVE",
"950 195 CURVE",
"950 209 LINE",
"906 260 LINE",
"892 260 LINE",
"831 205 OFFCURVE",
"810 200 OFFCURVE",
"789 200 CURVE SMOOTH",
"775 200 OFFCURVE",
"775 214 OFFCURVE",
"779 230 CURVE"
);
}
);
width = 1012;
},
{
layerId = "34301EF7-A2BE-469F-9697-D6100B11FDFE";
paths = (
{
closed = 1;
nodes = (
"91 131 LINE SMOOTH",
"78 71 OFFCURVE",
"155 -15 OFFCURVE",
"225 -15 CURVE SMOOTH",
"286 -15 OFFCURVE",
"401 51 OFFCURVE",
"544 157 CURVE",
"534 215 LINE",
"381 98 OFFCURVE",
"295 62 OFFCURVE",
"260 62 CURVE SMOOTH",
"233 62 OFFCURVE",
"176 104 OFFCURVE",
"185 146 CURVE SMOOTH",
"318 768 LINE",
"305 780 LINE",
"12 645 LINE",
"5 602 LINE",
"14 598 LINE",
"256 687 LINE",
"214 697 LINE"
);
},
{
closed = 1;
nodes = (
"690 643 LINE",
"732 766 LINE",
"720 780 LINE",
"622 754 LINE",
"477 60 LINE SMOOTH",
"471 31 OFFCURVE",
"526 -30 OFFCURVE",
"558 -30 CURVE SMOOTH",
"559 -30 LINE SMOOTH",
"603 -30 OFFCURVE",
"683 25 OFFCURVE",
"796 114 CURVE",
"796 126 LINE",
"784 149 LINE",
"772 149 LINE",
"668 82 OFFCURVE",
"600 45 OFFCURVE",
"583 45 CURVE SMOOTH",
"571 45 OFFCURVE",
"566 57 OFFCURVE",
"568 68 CURVE SMOOTH"
);
}
);
width = 811;
},
{
layerId = "CFF67ECA-3B2D-433B-B605-F38590C8F106";
paths = (
{
closed = 1;
nodes = (
"816 651 LINE",
"872 821 LINE",
"843 851 LINE",
"728 821 LINE",
"564 85 LINE SMOOTH",
"550 21 OFFCURVE",
"613 -30 OFFCURVE",
"651 -30 CURVE SMOOTH",
"746 -30 OFFCURVE",
"832 107 OFFCURVE",
"922 247 CURVE",
"922 255 LINE",
"889 292 LINE",
"880 292 LINE",
"794 187 OFFCURVE",
"759 135 OFFCURVE",
"720 135 CURVE SMOOTH",
"712 135 OFFCURVE",
"708 140 OFFCURVE",
"708 149 CURVE SMOOTH",
"708 154 OFFCURVE",
"709 159 OFFCURVE",
"710 165 CURVE SMOOTH"
);
},
{
closed = 1;
nodes = (
"126 193 LINE SMOOTH",
"84 22 OFFCURVE",
"183 -57 OFFCURVE",
"285 -57 CURVE SMOOTH",
"437 -57 OFFCURVE",
"540 122 OFFCURVE",
"726 502 CURVE",
"681 531 LINE",
"487 151 OFFCURVE",
"405 67 OFFCURVE",
"332 67 CURVE SMOOTH",
"278 67 OFFCURVE",
"233 113 OFFCURVE",
"259 216 CURVE SMOOTH",
"409 821 LINE",
"373 851 LINE",
"42 726 LINE",
"36 666 LINE",
"52 652 LINE",
"306 701 LINE",
"263 752 LINE"
);
}
);
width = 972;
}
);
leftMetricsKey = n;
note = "Fix foot to have cut in it!!";
rightMetricsKey = n;
unicode = 0075;
},
{
glyphname = v;
lastChange = "2020-02-29 12:56:45 +0000";
layers = (
{
background = {
paths = (
{
closed = 1;
nodes = (
"377 0 LINE",
"447 99 LINE",
"353 585 LINE SMOOTH",
"344 646 OFFCURVE",
"361 747 OFFCURVE",
"413 776 CURVE",
"407 787 LINE",
"406 831 LINE",
"83 831 LINE",
"59 792 LINE",
"64 786 LINE",
"76 770 OFFCURVE",
"97 702 OFFCURVE",
"117 590 CURVE SMOOTH",
"219 0 LINE"
);
},
{
closed = 1;
nodes = (
"417 0 LINE",
"723 537 LINE SMOOTH",
"802 681 OFFCURVE",
"864 747 OFFCURVE",
"894 772 CURVE",
"890 790 LINE",
"885 831 LINE",
"661 831 LINE",
"641 787 LINE",
"646 786 LINE",
"684 757 OFFCURVE",
"633 665 OFFCURVE",
"599 604 CURVE SMOOTH",
"267 0 LINE"
);
}
);
};
layerId = "6B6AD122-EF8D-49FE-8C69-4BDE8C56BDD8";
paths = (
{
closed = 1;
nodes = (
"457 716 LINE",
"482 676 OFFCURVE",
"507 636 OFFCURVE",
"507 533 CURVE SMOOTH",
"507 333 OFFCURVE",
"420 141 OFFCURVE",
"277 141 CURVE SMOOTH",
"266 141 OFFCURVE",
"259 148 OFFCURVE",
"259 161 CURVE SMOOTH",
"259 210 OFFCURVE",
"311 430 OFFCURVE",
"311 600 CURVE SMOOTH",
"311 700 OFFCURVE",
"259 764 OFFCURVE",
"195 841 CURVE",
"156 841 LINE",
"22 725 LINE",
"22 681 LINE",
"80 625 OFFCURVE",
"97 585 OFFCURVE",
"97 528 CURVE SMOOTH",
"97 430 OFFCURVE",
"48 172 OFFCURVE",
"48 110 CURVE SMOOTH",
"48 27 OFFCURVE",
"165 -30 OFFCURVE",
"213 -30 CURVE SMOOTH",
"445 -30 OFFCURVE",
"726 339 OFFCURVE",
"726 622 CURVE SMOOTH",
"726 685 OFFCURVE",
"714 760 OFFCURVE",
"666 861 CURVE",
"627 861 LINE",
"457 757 LINE"
);
}
);
width = 743;
},
{
layerId = "34301EF7-A2BE-469F-9697-D6100B11FDFE";
paths = (
{
closed = 1;
nodes = (
"430 708 LINE",
"465 648 OFFCURVE",
"497 581 OFFCURVE",
"497 483 CURVE SMOOTH",
"497 309 OFFCURVE",
"387 61 OFFCURVE",
"154 61 CURVE SMOOTH",
"143 61 OFFCURVE",
"134 71 OFFCURVE",
"134 84 CURVE SMOOTH",
"134 133 OFFCURVE",
"196 430 OFFCURVE",
"196 569 CURVE SMOOTH",
"196 619 OFFCURVE",
"190 683 OFFCURVE",
"110 750 CURVE",
"89 750 LINE",
"43 693 LINE",
"43 670 LINE",
"103 614 OFFCURVE",
"114 576 OFFCURVE",
"114 513 CURVE SMOOTH",
"114 412 OFFCURVE",
"56 142 OFFCURVE",
"56 80 CURVE SMOOTH",
"56 27 OFFCURVE",
"117 -30 OFFCURVE",
"171 -30 CURVE SMOOTH",
"372 -30 OFFCURVE",
"582 293 OFFCURVE",
"582 529 CURVE SMOOTH",
"582 605 OFFCURVE",
"561 679 OFFCURVE",
"505 780 CURVE",
"481 780 LINE",
"430 729 LINE"
);
}
);
width = 614;
},
{
background = {
paths = (
{
closed = 1;
nodes = (
"541 716 LINE",
"566 676 OFFCURVE",
"581 628 OFFCURVE",
"581 552 CURVE SMOOTH",
"581 325 OFFCURVE",
"446 84 OFFCURVE",
"243 84 CURVE SMOOTH",
"232 84 OFFCURVE",
"225 91 OFFCURVE",
"225 104 CURVE SMOOTH",
"225 153 OFFCURVE",
"289 420 OFFCURVE",
"289 600 CURVE SMOOTH",
"289 690 OFFCURVE",
"260 760 OFFCURVE",
"192 821 CURVE",
"158 821 LINE",
"71 713 LINE",
"71 679 LINE",
"155 613 OFFCURVE",
"158 570 OFFCURVE",
"159 518 CURVE SMOOTH",
"161 420 OFFCURVE",
"108 142 OFFCURVE",
"108 80 CURVE SMOOTH",
"108 27 OFFCURVE",
"185 -30 OFFCURVE",
"233 -30 CURVE SMOOTH",
"444 -30 OFFCURVE",
"730 262 OFFCURVE",
"730 608 CURVE SMOOTH",
"730 663 OFFCURVE",
"723 740 OFFCURVE",
"675 851 CURVE",
"641 851 LINE",
"541 747 LINE"
);
}
);
};
layerId = "CFF67ECA-3B2D-433B-B605-F38590C8F106";
paths = (
{
closed = 1;
nodes = (
"519 716 LINE",
"544 676 OFFCURVE",
"569 628 OFFCURVE",
"569 535 CURVE SMOOTH",
"569 325 OFFCURVE",
"446 84 OFFCURVE",
"243 84 CURVE SMOOTH",
"232 84 OFFCURVE",
"225 91 OFFCURVE",
"225 104 CURVE SMOOTH",
"225 153 OFFCURVE",
"289 420 OFFCURVE",
"289 590 CURVE SMOOTH",
"289 690 OFFCURVE",
"266 754 OFFCURVE",
"192 821 CURVE",
"158 821 LINE",
"72 725 LINE",
"72 691 LINE",
"142 625 OFFCURVE",
"159 575 OFFCURVE",
"159 518 CURVE SMOOTH",
"159 420 OFFCURVE",
"108 142 OFFCURVE",
"108 80 CURVE SMOOTH",
"108 27 OFFCURVE",
"185 -30 OFFCURVE",
"233 -30 CURVE SMOOTH",
"333 -30 OFFCURVE",
"441 45 OFFCURVE",
"532 154 CURVE SMOOTH",
"633 274 OFFCURVE",
"712 439 OFFCURVE",
"712 606 CURVE SMOOTH",
"712 685 OFFCURVE",
"695 750 OFFCURVE",
"647 851 CURVE",
"613 851 LINE",
"519 747 LINE"
);
}
);
width = 743;
}
);
unicode = 0076;
},
{
glyphname = w;
lastChange = "2020-02-29 12:56:52 +0000";
layers = (
{
layerId = "6B6AD122-EF8D-49FE-8C69-4BDE8C56BDD8";
paths = (
{
closed = 1;
nodes = (
"507 528 LINE",
"507 332 OFFCURVE",
"420 141 OFFCURVE",
"277 141 CURVE SMOOTH",
"266 141 OFFCURVE",
"259 148 OFFCURVE",
"259 161 CURVE SMOOTH",
"259 210 OFFCURVE",
"311 430 OFFCURVE",
"311 600 CURVE SMOOTH",
"311 700 OFFCURVE",
"259 764 OFFCURVE",
"195 841 CURVE",
"156 841 LINE",
"22 725 LINE",
"22 681 LINE",
"80 625 OFFCURVE",
"97 585 OFFCURVE",
"97 528 CURVE SMOOTH",
"97 430 OFFCURVE",
"48 172 OFFCURVE",
"48 110 CURVE SMOOTH",
"48 27 OFFCURVE",
"165 -30 OFFCURVE",
"213 -30 CURVE SMOOTH",
"340 -30 OFFCURVE",
"479 111 OFFCURVE",
"569 288 CURVE"
);
},
{
closed = 1;
nodes = (
"867 716 LINE",
"892 676 OFFCURVE",
"917 636 OFFCURVE",
"917 533 CURVE SMOOTH",
"917 333 OFFCURVE",
"830 141 OFFCURVE",
"687 141 CURVE SMOOTH",
"676 141 OFFCURVE",
"669 148 OFFCURVE",
"669 161 CURVE SMOOTH",
"669 210 OFFCURVE",
"721 430 OFFCURVE",
"721 600 CURVE SMOOTH",
"721 700 OFFCURVE",
"669 764 OFFCURVE",
"605 841 CURVE",
"566 841 LINE",
"432 725 LINE",
"432 681 LINE",
"490 625 OFFCURVE",
"507 585 OFFCURVE",
"507 528 CURVE SMOOTH",
"507 430 OFFCURVE",
"458 172 OFFCURVE",
"458 110 CURVE SMOOTH",
"458 27 OFFCURVE",
"575 -30 OFFCURVE",
"623 -30 CURVE SMOOTH",
"855 -30 OFFCURVE",
"1136 339 OFFCURVE",
"1136 622 CURVE SMOOTH",
"1136 685 OFFCURVE",
"1124 760 OFFCURVE",
"1076 861 CURVE",
"1037 861 LINE",
"867 757 LINE"
);
}
);
width = 1153;
},
{
layerId = "34301EF7-A2BE-469F-9697-D6100B11FDFE";
paths = (
{
closed = 1;
nodes = (
"497 513 LINE",
"497 309 OFFCURVE",
"387 61 OFFCURVE",
"154 61 CURVE SMOOTH",
"143 61 OFFCURVE",
"134 71 OFFCURVE",
"134 84 CURVE SMOOTH",
"134 133 OFFCURVE",
"196 430 OFFCURVE",
"196 569 CURVE SMOOTH",
"196 619 OFFCURVE",
"190 683 OFFCURVE",
"110 750 CURVE",
"89 750 LINE",
"43 693 LINE",
"43 670 LINE",
"103 614 OFFCURVE",
"114 576 OFFCURVE",
"114 513 CURVE SMOOTH",
"114 412 OFFCURVE",
"56 142 OFFCURVE",
"56 80 CURVE SMOOTH",
"56 27 OFFCURVE",
"117 -30 OFFCURVE",
"171 -30 CURVE SMOOTH",
"372 -30 OFFCURVE",
"552 263 OFFCURVE",
"552 499 CURVE"
);
},
{
closed = 1;
nodes = (
"813 708 LINE",
"848 648 OFFCURVE",
"880 581 OFFCURVE",
"880 483 CURVE SMOOTH",
"880 309 OFFCURVE",
"770 61 OFFCURVE",
"537 61 CURVE SMOOTH",
"526 61 OFFCURVE",
"517 71 OFFCURVE",
"517 84 CURVE SMOOTH",
"517 133 OFFCURVE",
"579 430 OFFCURVE",
"579 569 CURVE SMOOTH",
"579 619 OFFCURVE",
"573 683 OFFCURVE",
"493 750 CURVE",
"472 750 LINE",
"426 693 LINE",
"426 670 LINE",
"486 614 OFFCURVE",
"497 576 OFFCURVE",
"497 513 CURVE SMOOTH",
"497 412 OFFCURVE",
"439 142 OFFCURVE",
"439 80 CURVE SMOOTH",
"439 27 OFFCURVE",
"500 -30 OFFCURVE",
"554 -30 CURVE SMOOTH",
"755 -30 OFFCURVE",
"965 293 OFFCURVE",
"965 529 CURVE SMOOTH",
"965 605 OFFCURVE",
"944 679 OFFCURVE",
"888 780 CURVE",
"864 780 LINE",
"813 729 LINE"
);
}
);
width = 997;
},
{
layerId = "CFF67ECA-3B2D-433B-B605-F38590C8F106";
paths = (
{
closed = 1;
nodes = (
"559 535 LINE",
"559 325 OFFCURVE",
"436 84 OFFCURVE",
"243 84 CURVE SMOOTH",
"232 84 OFFCURVE",
"225 91 OFFCURVE",
"225 104 CURVE SMOOTH",
"225 153 OFFCURVE",
"289 420 OFFCURVE",
"289 590 CURVE SMOOTH",
"289 690 OFFCURVE",
"266 754 OFFCURVE",
"192 821 CURVE",
"158 821 LINE",
"72 725 LINE",
"72 691 LINE",
"142 625 OFFCURVE",
"159 575 OFFCURVE",
"159 518 CURVE SMOOTH",
"159 420 OFFCURVE",
"108 142 OFFCURVE",
"108 80 CURVE SMOOTH",
"108 27 OFFCURVE",
"185 -30 OFFCURVE",
"233 -30 CURVE SMOOTH",
"457 -30 OFFCURVE",
"662 326 OFFCURVE",
"662 626 CURVE"
);
},
{
closed = 1;
nodes = (
"909 716 LINE",
"934 676 OFFCURVE",
"959 628 OFFCURVE",
"959 535 CURVE SMOOTH",
"959 325 OFFCURVE",
"836 84 OFFCURVE",
"643 84 CURVE SMOOTH",
"632 84 OFFCURVE",
"625 91 OFFCURVE",
"625 104 CURVE SMOOTH",
"625 153 OFFCURVE",
"689 420 OFFCURVE",
"689 590 CURVE SMOOTH",
"689 690 OFFCURVE",
"666 754 OFFCURVE",
"592 821 CURVE",
"558 821 LINE",
"472 725 LINE",
"472 691 LINE",
"542 625 OFFCURVE",
"559 575 OFFCURVE",
"559 518 CURVE SMOOTH",
"559 420 OFFCURVE",
"508 142 OFFCURVE",
"508 80 CURVE SMOOTH",
"508 27 OFFCURVE",
"585 -30 OFFCURVE",
"633 -30 CURVE SMOOTH",
"733 -30 OFFCURVE",
"831 45 OFFCURVE",
"922 154 CURVE SMOOTH",
"1023 274 OFFCURVE",
"1102 439 OFFCURVE",
"1102 606 CURVE SMOOTH",
"1102 685 OFFCURVE",
"1085 750 OFFCURVE",
"1037 851 CURVE",
"1003 851 LINE",
"909 747 LINE"
);
}
);
width = 1133;
}
);
leftMetricsKey = v;
rightMetricsKey = v;
unicode = 0077;
},
{
glyphname = x;
lastChange = "2020-02-29 13:03:37 +0000";
layers = (
{
background = {
paths = (
{
closed = 1;
nodes = (
"351 437 LINE",
"253 298 OFFCURVE",
"186 221 OFFCURVE",
"130 221 CURVE SMOOTH",
"106 221 OFFCURVE",
"81 235 OFFCURVE",
"53 257 CURVE",
"2 235 LINE",
"-44 0 LINE",
"-5 -30 LINE",
"152 -30 OFFCURVE",
"255 130 OFFCURVE",
"398 384 CURVE"
);
},
{
closed = 1;
nodes = (
"73 570 LINE",
"87 570 LINE",
"159 643 OFFCURVE",
"177 656 OFFCURVE",
"196 656 CURVE SMOOTH",
"214 656 OFFCURVE",
"233 643 OFFCURVE",
"240 615 CURVE SMOOTH",
"378 36 LINE SMOOTH",
"385 7 OFFCURVE",
"475 -30 OFFCURVE",
"494 -30 CURVE SMOOTH",
"562 -30 OFFCURVE",
"669 97 OFFCURVE",
"754 196 CURVE",
"754 210 LINE",
"710 261 LINE",
"696 261 LINE",
"604 188 OFFCURVE",
"586 175 OFFCURVE",
"567 175 CURVE SMOOTH",
"549 175 OFFCURVE",
"530 188 OFFCURVE",
"523 216 CURVE SMOOTH",
"385 795 LINE SMOOTH",
"378 824 OFFCURVE",
"288 861 OFFCURVE",
"269 861 CURVE SMOOTH",
"201 861 OFFCURVE",
"94 734 OFFCURVE",
"29 635 CURVE",
"29 621 LINE"
);
},
{
closed = 1;
nodes = (
"441 402 LINE",
"534 542 OFFCURVE",
"591 610 OFFCURVE",
"643 610 CURVE SMOOTH",
"667 610 OFFCURVE",
"692 596 OFFCURVE",
"720 574 CURVE",
"771 596 LINE",
"817 831 LINE",
"778 861 LINE",
"628 861 OFFCURVE",
"530 714 OFFCURVE",
"392 459 CURVE"
);
}
);
};
layerId = "6B6AD122-EF8D-49FE-8C69-4BDE8C56BDD8";
paths = (
{
closed = 1;
nodes = (
"-5 -30 LINE",
"144 -30 OFFCURVE",
"265 114 OFFCURVE",
"366 346 CURVE",
"300 361 LINE",
"378 36 LINE SMOOTH",
"385 7 OFFCURVE",
"475 -30 OFFCURVE",
"494 -30 CURVE SMOOTH",
"562 -30 OFFCURVE",
"669 97 OFFCURVE",
"754 196 CURVE",
"754 210 LINE",
"710 261 LINE",
"696 261 LINE",
"604 188 OFFCURVE",
"586 175 OFFCURVE",
"567 175 CURVE SMOOTH",
"549 175 OFFCURVE",
"531 188 OFFCURVE",
"523 216 CURVE SMOOTH",
"475 387 LINE SMOOTH",
"440 510 OFFCURVE",
"558 620 OFFCURVE",
"641 620 CURVE SMOOTH",
"678 620 OFFCURVE",
"702 596 OFFCURVE",
"720 574 CURVE",
"771 596 LINE",
"817 831 LINE",
"778 861 LINE",
"628 861 OFFCURVE",
"510 714 OFFCURVE",
"401 458 CURVE",
"467 448 LINE",
"385 795 LINE SMOOTH",
"378 824 OFFCURVE",
"288 861 OFFCURVE",
"269 861 CURVE SMOOTH",
"201 861 OFFCURVE",
"94 734 OFFCURVE",
"29 635 CURVE",
"29 621 LINE",
"73 570 LINE",
"87 570 LINE",
"159 643 OFFCURVE",
"177 656 OFFCURVE",
"196 656 CURVE SMOOTH",
"214 656 OFFCURVE",
"232 643 OFFCURVE",
"240 615 CURVE SMOOTH",
"287 442 LINE SMOOTH",
"320 322 OFFCURVE",
"227 213 OFFCURVE",
"137 213 CURVE SMOOTH",
"102 213 OFFCURVE",
"76 229 OFFCURVE",
"53 257 CURVE",
"2 235 LINE",
"-44 0 LINE"
);
}
);
width = 801;
},
{
layerId = "34301EF7-A2BE-469F-9697-D6100B11FDFE";
paths = (
{
closed = 1;
nodes = (
"65 638 LINE",
"77 638 LINE",
"139 672 OFFCURVE",
"199 705 OFFCURVE",
"225 705 CURVE SMOOTH",
"242 705 OFFCURVE",
"254 692 OFFCURVE",
"258 672 CURVE SMOOTH",
"399 15 LINE SMOOTH",
"402 1 OFFCURVE",
"447 -30 OFFCURVE",
"468 -30 CURVE SMOOTH",
"469 -30 LINE SMOOTH",
"511 -30 OFFCURVE",
"608 28 OFFCURVE",
"679 77 CURVE",
"679 89 LINE",
"667 112 LINE",
"655 112 LINE",
"593 78 OFFCURVE",
"533 45 OFFCURVE",
"507 45 CURVE SMOOTH",
"490 45 OFFCURVE",
"478 58 OFFCURVE",
"474 78 CURVE SMOOTH",
"333 735 LINE SMOOTH",
"330 749 OFFCURVE",
"285 780 OFFCURVE",
"264 780 CURVE SMOOTH",
"263 780 LINE SMOOTH",
"221 780 OFFCURVE",
"124 722 OFFCURVE",
"53 673 CURVE",
"53 661 LINE"
);
},
{
closed = 1;
nodes = (
"396 346 LINE",
"546 600 OFFCURVE",
"602 666 OFFCURVE",
"666 666 CURVE SMOOTH",
"701 666 OFFCURVE",
"717 650 OFFCURVE",
"713 603 CURVE",
"736 600 LINE",
"772 768 LINE",
"760 780 LINE",
"627 780 OFFCURVE",
"534 676 OFFCURVE",
"375 391 CURVE"
);
},
{
closed = 1;
nodes = (
"363 403 LINE",
"223 149 OFFCURVE",
"151 83 OFFCURVE",
"87 83 CURVE SMOOTH",
"52 83 OFFCURVE",
"33 100 OFFCURVE",
"37 147 CURVE",
"14 150 LINE",
"-23 -18 LINE",
"-11 -30 LINE",
"119 -30 OFFCURVE",
"238 74 OFFCURVE",
"387 359 CURVE"
);
}
);
width = 732;
},
{
background = {
paths = (
{
closed = 1;
nodes = (
"38 599 LINE",
"47 599 LINE",
"117 659 OFFCURVE",
"153 698 OFFCURVE",
"186 698 CURVE SMOOTH",
"208 698 OFFCURVE",
"233 685 OFFCURVE",
"246 641 CURVE SMOOTH",
"413 74 LINE SMOOTH",
"435 -2 OFFCURVE",
"473 -30 OFFCURVE",
"512 -30 CURVE SMOOTH",
"591 -30 OFFCURVE",
"679 95 OFFCURVE",
"731 183 CURVE",
"731 191 LINE",
"698 228 LINE",
"689 228 LINE",
"641 185 OFFCURVE",
"584 123 OFFCURVE",
"547 123 CURVE SMOOTH",
"529 123 OFFCURVE",
"504 136 OFFCURVE",
"491 180 CURVE SMOOTH",
"324 747 LINE SMOOTH",
"302 823 OFFCURVE",
"264 851 OFFCURVE",
"225 851 CURVE SMOOTH",
"146 851 OFFCURVE",
"79 749 OFFCURVE",
"5 644 CURVE",
"5 636 LINE"
);
},
{
closed = 1;
nodes = (
"422 410 LINE",
"500 543 OFFCURVE",
"608 675 OFFCURVE",
"669 675 CURVE SMOOTH",
"707 675 OFFCURVE",
"719 626 OFFCURVE",
"723 607 CURVE",
"766 612 LINE",
"808 821 LINE",
"779 851 LINE",
"653 851 OFFCURVE",
"496 666 OFFCURVE",
"384 465 CURVE"
);
},
{
closed = 1;
nodes = (
"340 411 LINE",
"262 278 OFFCURVE",
"161 150 OFFCURVE",
"110 150 CURVE SMOOTH",
"84 150 OFFCURVE",
"65 183 OFFCURVE",
"32 227 CURVE",
"-8 215 LINE",
"-46 0 LINE",
"-17 -30 LINE",
"133 -30 OFFCURVE",
"266 155 OFFCURVE",
"378 356 CURVE"
);
}
);
};
layerId = "CFF67ECA-3B2D-433B-B605-F38590C8F106";
paths = (
{
closed = 1;
nodes = (
"13 -30 LINE",
"153 -30 OFFCURVE",
"278 131 OFFCURVE",
"361 318 CURVE",
"324 335 LINE",
"383 55 LINE SMOOTH",
"391 18 OFFCURVE",
"465 -30 OFFCURVE",
"504 -30 CURVE SMOOTH",
"583 -30 OFFCURVE",
"661 95 OFFCURVE",
"722 223 CURVE",
"722 231 LINE",
"683 259 LINE",
"674 259 LINE",
"605 159 OFFCURVE",
"560 121 OFFCURVE",
"522 121 CURVE SMOOTH",
"505 121 OFFCURVE",
"491 129 OFFCURVE",
"486 155 CURVE SMOOTH",
"415 496 LINE",
"411 379 LINE",
"452 522 OFFCURVE",
"573 675 OFFCURVE",
"639 675 CURVE SMOOTH",
"677 675 OFFCURVE",
"689 626 OFFCURVE",
"693 607 CURVE",
"736 612 LINE",
"778 821 LINE",
"749 851 LINE",
"625 851 OFFCURVE",
"470 671 OFFCURVE",
"388 474 CURVE",
"424 457 LINE",
"358 777 LINE SMOOTH",
"350 816 OFFCURVE",
"270 851 OFFCURVE",
"231 851 CURVE SMOOTH",
"172 851 OFFCURVE",
"109 749 OFFCURVE",
"25 594 CURVE",
"25 586 LINE",
"68 559 LINE",
"77 559 LINE",
"147 669 OFFCURVE",
"190 708 OFFCURVE",
"219 708 CURVE SMOOTH",
"235 708 OFFCURVE",
"249 697 OFFCURVE",
"253 678 CURVE SMOOTH",
"333 294 LINE",
"341 414 LINE",
"293 281 OFFCURVE",
"192 143 OFFCURVE",
"140 143 CURVE SMOOTH",
"114 143 OFFCURVE",
"95 176 OFFCURVE",
"62 227 CURVE",
"22 215 LINE",
"-16 0 LINE"
);
}
);
width = 777;
}
);
unicode = 0078;
},
{
glyphname = y;
lastChange = "2020-03-07 10:09:51 +0000";
layers = (
{
layerId = "6B6AD122-EF8D-49FE-8C69-4BDE8C56BDD8";
paths = (
{
closed = 1;
nodes = (
"499 -221 LINE SMOOTH",
"489 -269 OFFCURVE",
"459 -285 OFFCURVE",
"419 -285 CURVE SMOOTH",
"346 -285 OFFCURVE",
"253 -233 OFFCURVE",
"99 -147 CURVE",
"69 -147 LINE",
"-1 -308 LINE",
"-1 -330 LINE",
"155 -399 OFFCURVE",
"264 -424 OFFCURVE",
"337 -424 CURVE SMOOTH",
"499 -424 OFFCURVE",
"697 -273 OFFCURVE",
"726 -130 CURVE SMOOTH",
"918 826 LINE",
"860 861 LINE",
"699 776 LINE",
"682 689 LINE SMOOTH",
"602 325 OFFCURVE",
"428 154 OFFCURVE",
"335 154 CURVE SMOOTH",
"313 154 OFFCURVE",
"297 185 OFFCURVE",
"301 201 CURVE SMOOTH",
"450 803 LINE",
"389 861 LINE",
"47 756 LINE",
"31 667 LINE",
"41 654 LINE",
"316 683 LINE",
"224 718 LINE",
"84 175 LINE SMOOTH",
"62 90 OFFCURVE",
"142 -24 OFFCURVE",
"220 -24 CURVE SMOOTH",
"340 -24 OFFCURVE",
"466 59 OFFCURVE",
"649 370 CURVE",
"626 401 LINE"
);
}
);
width = 937;
},
{
layerId = "34301EF7-A2BE-469F-9697-D6100B11FDFE";
paths = (
{
closed = 1;
nodes = (
"362 -434 OFFCURVE",
"494 -290 OFFCURVE",
"522 -159 CURVE SMOOTH",
"690 643 LINE",
"732 766 LINE",
"720 780 LINE",
"622 754 LINE",
"425 -196 LINE SMOOTH",
"405 -290 OFFCURVE",
"343 -351 OFFCURVE",
"251 -351 CURVE SMOOTH",
"170 -351 OFFCURVE",
"96 -307 OFFCURVE",
"30 -269 CURVE",
"7 -269 LINE",
"-34 -329 LINE",
"-34 -352 LINE",
"44 -394 OFFCURVE",
"118 -434 OFFCURVE",
"210 -434 CURVE SMOOTH"
);
},
{
closed = 1;
nodes = (
"286 -15 OFFCURVE",
"401 51 OFFCURVE",
"544 157 CURVE",
"534 215 LINE",
"381 98 OFFCURVE",
"295 62 OFFCURVE",
"260 62 CURVE SMOOTH",
"233 62 OFFCURVE",
"176 104 OFFCURVE",
"185 146 CURVE SMOOTH",
"318 768 LINE",
"305 780 LINE",
"12 645 LINE",
"5 602 LINE",
"14 598 LINE",
"256 687 LINE",
"214 697 LINE",
"91 131 LINE SMOOTH",
"78 71 OFFCURVE",
"155 -15 OFFCURVE",
"225 -15 CURVE SMOOTH"
);
}
);
width = 748;
},
{
background = {
paths = (
{
closed = 1;
nodes = (
"126 193 LINE SMOOTH",
"84 22 OFFCURVE",
"183 -57 OFFCURVE",
"285 -57 CURVE SMOOTH",
"437 -57 OFFCURVE",
"540 122 OFFCURVE",
"726 502 CURVE",
"681 531 LINE",
"487 151 OFFCURVE",
"405 67 OFFCURVE",
"332 67 CURVE SMOOTH",
"278 67 OFFCURVE",
"233 113 OFFCURVE",
"259 216 CURVE SMOOTH",
"409 821 LINE",
"373 851 LINE",
"42 726 LINE",
"36 666 LINE",
"52 652 LINE",
"306 701 LINE",
"263 752 LINE"
);
},
{
closed = 1;
nodes = (
"866 826 LINE",
"834 853 LINE",
"718 821 LINE",
"502 -211 LINE SMOOTH",
"484 -296 OFFCURVE",
"433 -328 OFFCURVE",
"362 -328 CURVE SMOOTH",
"307 -328 OFFCURVE",
"239 -308 OFFCURVE",
"104 -230 CURVE",
"83 -230 LINE",
"31 -338 LINE",
"31 -358 LINE",
"180 -412 OFFCURVE",
"256 -424 OFFCURVE",
"307 -424 CURVE SMOOTH",
"461 -424 OFFCURVE",
"604 -320 OFFCURVE",
"644 -131 CURVE SMOOTH",
"810 651 LINE"
);
},
{
closed = 0;
nodes = (
"549 18 LINE",
"508 -284 OFFCURVE",
"421 -297 OFFCURVE",
"345 -297 CURVE SMOOTH",
"285 -297 OFFCURVE",
"233 -288 OFFCURVE",
"165 -267 CURVE",
"141 -271 LINE",
"94 -377 LINE",
"94 -389 LINE",
"184 -416 OFFCURVE",
"247 -424 OFFCURVE",
"305 -424 CURVE SMOOTH",
"463 -424 OFFCURVE",
"594 -338 OFFCURVE",
"641 -97 CURVE SMOOTH"
);
}
);
};
layerId = "CFF67ECA-3B2D-433B-B605-F38590C8F106";
paths = (
{
closed = 1;
nodes = (
"126 193 LINE SMOOTH",
"84 22 OFFCURVE",
"183 -57 OFFCURVE",
"285 -57 CURVE SMOOTH",
"437 -57 OFFCURVE",
"540 122 OFFCURVE",
"726 502 CURVE",
"681 531 LINE",
"487 151 OFFCURVE",
"405 67 OFFCURVE",
"332 67 CURVE SMOOTH",
"278 67 OFFCURVE",
"233 113 OFFCURVE",
"259 216 CURVE SMOOTH",
"409 821 LINE",
"373 851 LINE",
"42 726 LINE",
"36 666 LINE",
"52 652 LINE",
"306 701 LINE",
"263 752 LINE"
);
},
{
closed = 1;
nodes = (
"866 826 LINE",
"834 853 LINE",
"718 821 LINE",
"512 -161 LINE SMOOTH",
"488 -276 OFFCURVE",
"433 -308 OFFCURVE",
"352 -308 CURVE SMOOTH",
"307 -308 OFFCURVE",
"239 -298 OFFCURVE",
"110 -254 CURVE",
"89 -254 LINE",
"46 -360 LINE",
"46 -380 LINE",
"182 -418 OFFCURVE",
"266 -424 OFFCURVE",
"307 -424 CURVE SMOOTH",
"471 -424 OFFCURVE",
"604 -320 OFFCURVE",
"644 -131 CURVE SMOOTH",
"810 651 LINE"
);
}
);
width = 843;
}
);
leftMetricsKey = u;
unicode = 0079;
},
{
glyphname = z;
lastChange = "2020-02-29 13:03:59 +0000";
layers = (
{
background = {
paths = (
{
closed = 1;
nodes = (
"224 0 LINE",
"833 794 LINE",
"821 831 LINE",
"601 831 LINE",
"-10 36 LINE",
"2 0 LINE"
);
},
{
closed = 1;
nodes = (
"637 0 LINE",
"729 288 LINE",
"681 311 LINE",
"603 202 OFFCURVE",
"411 87 OFFCURVE",
"283 87 CURVE SMOOTH",
"178 87 LINE",
"160 0 LINE"
);
},
{
closed = 1;
nodes = (
"267 659 OFFCURVE",
"395 727 OFFCURVE",
"495 727 CURVE SMOOTH",
"659 727 LINE",
"681 831 LINE",
"179 831 LINE",
"119 545 LINE",
"168 529 LINE"
);
}
);
};
layerId = "6B6AD122-EF8D-49FE-8C69-4BDE8C56BDD8";
paths = (
{
closed = 1;
nodes = (
"632 858 LINE",
"576 828 OFFCURVE",
"523 812 OFFCURVE",
"468 812 CURVE SMOOTH",
"346 812 OFFCURVE",
"317 861 OFFCURVE",
"232 861 CURVE SMOOTH",
"68 861 OFFCURVE",
"42 650 OFFCURVE",
"24 575 CURVE",
"27 569 LINE",
"81 562 LINE",
"89 564 LINE",
"129 633 OFFCURVE",
"161 654 OFFCURVE",
"233 654 CURVE SMOOTH",
"343 654 OFFCURVE",
"408 602 OFFCURVE",
"525 631 CURVE",
"522 741 LINE",
"481 707 OFFCURVE",
"449 673 OFFCURVE",
"428 639 CURVE SMOOTH",
"345 504 OFFCURVE",
"253 369 OFFCURVE",
"177 267 CURVE SMOOTH",
"112 181 OFFCURVE",
"46 163 OFFCURVE",
"-20 150 CURVE",
"-70 0 LINE",
"-43 -30 LINE",
"-10 -20 OFFCURVE",
"40 -3 OFFCURVE",
"128 -3 CURVE SMOOTH",
"242 -3 OFFCURVE",
"279 -30 OFFCURVE",
"372 -30 CURVE SMOOTH",
"502 -30 OFFCURVE",
"576 21 OFFCURVE",
"669 260 CURVE",
"669 270 LINE",
"612 295 LINE",
"603 295 LINE",
"543 197 OFFCURVE",
"489 164 OFFCURVE",
"383 164 CURVE SMOOTH",
"295 164 OFFCURVE",
"276 194 OFFCURVE",
"144 194 CURVE",
"141 82 LINE",
"218 133 OFFCURVE",
"274 180 OFFCURVE",
"309 232 CURVE SMOOTH",
"550 592 LINE SMOOTH",
"588 648 OFFCURVE",
"648 695 OFFCURVE",
"694 715 CURVE",
"694 736 LINE",
"652 858 LINE"
);
}
);
width = 712;
},
{
layerId = "34301EF7-A2BE-469F-9697-D6100B11FDFE";
paths = (
{
closed = 1;
nodes = (
"-5 -25 LINE",
"52 -1 OFFCURVE",
"88 8 OFFCURVE",
"136 8 CURVE SMOOTH",
"243 8 OFFCURVE",
"295 -30 OFFCURVE",
"361 -30 CURVE SMOOTH",
"509 -30 OFFCURVE",
"571 124 OFFCURVE",
"610 246 CURVE",
"610 255 LINE",
"582 268 LINE",
"574 268 LINE",
"522 134 OFFCURVE",
"469 63 OFFCURVE",
"372 63 CURVE SMOOTH",
"291 63 OFFCURVE",
"274 90 OFFCURVE",
"103 90 CURVE",
"70 32 LINE",
"164 94 OFFCURVE",
"235 163 OFFCURVE",
"266 210 CURVE SMOOTH",
"522 594 LINE SMOOTH",
"557 646 OFFCURVE",
"615 694 OFFCURVE",
"644 716 CURVE",
"644 732 LINE",
"625 780 LINE",
"610 780 LINE",
"549 753 OFFCURVE",
"520 744 OFFCURVE",
"470 744 CURVE SMOOTH",
"358 744 OFFCURVE",
"314 780 OFFCURVE",
"215 780 CURVE SMOOTH",
"83 780 OFFCURVE",
"61 687 OFFCURVE",
"55 618 CURVE",
"57 612 LINE",
"83 612 LINE",
"90 614 LINE",
"107 677 OFFCURVE",
"156 706 OFFCURVE",
"222 706 CURVE SMOOTH",
"323 706 OFFCURVE",
"413 646 OFFCURVE",
"560 682 CURVE",
"570 712 LINE",
"521 690 OFFCURVE",
"471 627 OFFCURVE",
"452 596 CURVE SMOOTH",
"376 472 OFFCURVE",
"292 336 OFFCURVE",
"195 208 CURVE SMOOTH",
"141 137 OFFCURVE",
"88 105 OFFCURVE",
"23 70 CURVE",
"-16 -15 LINE"
);
}
);
width = 647;
},
{
background = {
paths = (
{
closed = 1;
nodes = (
"717 780 LINE",
"685 841 LINE",
"608 821 OFFCURVE",
"554 812 OFFCURVE",
"497 812 CURVE SMOOTH",
"375 812 OFFCURVE",
"316 851 OFFCURVE",
"241 851 CURVE SMOOTH",
"97 851 OFFCURVE",
"71 710 OFFCURVE",
"53 635 CURVE",
"56 629 LINE",
"97 622 LINE",
"105 624 LINE",
"145 693 OFFCURVE",
"177 714 OFFCURVE",
"249 714 CURVE SMOOTH",
"359 714 OFFCURVE",
"437 662 OFFCURVE",
"554 691 CURVE",
"571 741 LINE",
"530 707 OFFCURVE",
"498 673 OFFCURVE",
"477 639 CURVE",
"256 278 LINE SMOOTH",
"195 179 OFFCURVE",
"115 133 OFFCURVE",
"59 100 CURVE",
"-1 0 LINE",
"26 -30 LINE",
"59 -14 OFFCURVE",
"104 3 OFFCURVE",
"190 3 CURVE SMOOTH",
"306 3 OFFCURVE",
"368 -30 OFFCURVE",
"440 -30 CURVE SMOOTH",
"601 -30 OFFCURVE",
"673 138 OFFCURVE",
"738 260 CURVE",
"738 270 LINE",
"681 295 LINE",
"672 295 LINE",
"583 149 OFFCURVE",
"558 104 OFFCURVE",
"452 104 CURVE SMOOTH",
"364 104 OFFCURVE",
"345 134 OFFCURVE",
"213 134 CURVE",
"190 82 LINE",
"267 133 OFFCURVE",
"305 184 OFFCURVE",
"342 235 CURVE",
"630 697 LINE SMOOTH",
"648 725 OFFCURVE",
"674 743 OFFCURVE",
"717 763 CURVE"
);
}
);
};
layerId = "CFF67ECA-3B2D-433B-B605-F38590C8F106";
paths = (
{
closed = 1;
nodes = (
"661 851 LINE",
"605 821 OFFCURVE",
"552 812 OFFCURVE",
"497 812 CURVE SMOOTH",
"375 812 OFFCURVE",
"316 851 OFFCURVE",
"241 851 CURVE SMOOTH",
"97 851 OFFCURVE",
"71 710 OFFCURVE",
"53 635 CURVE",
"56 629 LINE",
"97 622 LINE",
"105 624 LINE",
"145 693 OFFCURVE",
"177 714 OFFCURVE",
"249 714 CURVE SMOOTH",
"359 714 OFFCURVE",
"437 662 OFFCURVE",
"554 691 CURVE",
"571 741 LINE",
"530 707 OFFCURVE",
"498 673 OFFCURVE",
"477 639 CURVE SMOOTH",
"394 504 OFFCURVE",
"303 369 OFFCURVE",
"197 229 CURVE SMOOTH",
"132 143 OFFCURVE",
"75 133 OFFCURVE",
"9 120 CURVE",
"-41 0 LINE",
"-14 -30 LINE",
"19 -14 OFFCURVE",
"69 11 OFFCURVE",
"155 11 CURVE SMOOTH",
"271 11 OFFCURVE",
"328 -30 OFFCURVE",
"400 -30 CURVE SMOOTH",
"561 -30 OFFCURVE",
"633 138 OFFCURVE",
"698 260 CURVE",
"698 270 LINE",
"641 295 LINE",
"632 295 LINE",
"543 149 OFFCURVE",
"518 104 OFFCURVE",
"412 104 CURVE SMOOTH",
"324 104 OFFCURVE",
"305 134 OFFCURVE",
"173 134 CURVE",
"150 82 LINE",
"227 133 OFFCURVE",
"283 180 OFFCURVE",
"318 232 CURVE SMOOTH",
"597 648 LINE SMOOTH",
"635 705 OFFCURVE",
"677 725 OFFCURVE",
"719 738 CURVE",
"719 755 LINE",
"677 851 LINE"
);
}
);
width = 740;
}
);
unicode = 007A;
},
{
glyphname = a.001;
layers = (
{
layerId = "6B6AD122-EF8D-49FE-8C69-4BDE8C56BDD8";
paths = (
{
closed = 1;
nodes = (
"842 57 LINE",
"842 112 LINE",
"838 117 LINE",
"812 122 OFFCURVE",
"787 130 OFFCURVE",
"769 144 CURVE SMOOTH",
"748 160 OFFCURVE",
"735 183 OFFCURVE",
"736 217 CURVE SMOOTH",
"746 575 LINE SMOOTH",
"751 747 OFFCURVE",
"639 861 OFFCURVE",
"413 861 CURVE SMOOTH",
"319 861 OFFCURVE",
"216 841 OFFCURVE",
"95 789 CURVE",
"95 609 LINE",
"116 595 LINE",
"219 635 OFFCURVE",
"306 650 OFFCURVE",
"379 650 CURVE SMOOTH",
"491 650 OFFCURVE",
"560 614 OFFCURVE",
"556 498 CURVE SMOOTH",
"545 134 LINE SMOOTH",
"542 29 OFFCURVE",
"605 -30 OFFCURVE",
"690 -30 CURVE"
);
},
{
closed = 1;
nodes = (
"373 -30 OFFCURVE",
"486 21 OFFCURVE",
"560 130 CURVE",
"560 198 LINE",
"496 138 OFFCURVE",
"426 121 OFFCURVE",
"391 121 CURVE SMOOTH",
"340 121 OFFCURVE",
"302 158 OFFCURVE",
"302 227 CURVE SMOOTH",
"302 276 OFFCURVE",
"321 333 OFFCURVE",
"566 449 CURVE",
"553 563 LINE",
"395 488 LINE SMOOTH",
"170 381 OFFCURVE",
"75 283 OFFCURVE",
"75 161 CURVE SMOOTH",
"75 65 OFFCURVE",
"136 -30 OFFCURVE",
"273 -30 CURVE SMOOTH"
);
}
);
width = 897;
},
{
layerId = "34301EF7-A2BE-469F-9697-D6100B11FDFE";
paths = (
{
closed = 1;
nodes = (
"815 63 LINE",
"810 86 LINE",
"806 88 LINE",
"771 75 OFFCURVE",
"740 67 OFFCURVE",
"712 67 CURVE SMOOTH",
"650 67 OFFCURVE",
"608 105 OFFCURVE",
"609 187 CURVE SMOOTH",
"612 503 LINE SMOOTH",
"614 669 OFFCURVE",
"560 780 OFFCURVE",
"353 780 CURVE SMOOTH",
"247 780 OFFCURVE",
"143 750 OFFCURVE",
"57 701 CURVE",
"57 621 LINE",
"71 611 LINE",
"140 638 OFFCURVE",
"235 677 OFFCURVE",
"338 677 CURVE SMOOTH",
"391 677 OFFCURVE",
"526 669 OFFCURVE",
"524 500 CURVE SMOOTH",
"520 99 LINE SMOOTH",
"519 16 OFFCURVE",
"584 -30 OFFCURVE",
"659 -30 CURVE"
);
},
{
closed = 1;
nodes = (
"351 -30 OFFCURVE",
"432 19 OFFCURVE",
"520 99 CURVE",
"524 150 LINE",
"460 99 OFFCURVE",
"367 40 OFFCURVE",
"296 40 CURVE SMOOTH",
"236 40 OFFCURVE",
"172 82 OFFCURVE",
"172 180 CURVE SMOOTH",
"172 269 OFFCURVE",
"224 341 OFFCURVE",
"549 490 CURVE",
"529 544 LINE",
"444 501 LINE SMOOTH",
"142 348 OFFCURVE",
"63 256 OFFCURVE",
"63 147 CURVE SMOOTH",
"63 38 OFFCURVE",
"145 -30 OFFCURVE",
"256 -30 CURVE SMOOTH"
);
}
);
width = 834;
},
{
background = {
paths = (
{
closed = 1;
nodes = (
"845 59 LINE",
"845 97 LINE",
"837 104 LINE",
"797 107 OFFCURVE",
"763 114 OFFCURVE",
"736 128 CURVE SMOOTH",
"700 146 OFFCURVE",
"680 178 OFFCURVE",
"680 231 CURVE SMOOTH",
"683 592 LINE SMOOTH",
"684 735 OFFCURVE",
"603 851 OFFCURVE",
"395 851 CURVE SMOOTH",
"299 851 OFFCURVE",
"191 827 OFFCURVE",
"98 783 CURVE",
"98 657 LINE",
"114 647 LINE",
"179 678 OFFCURVE",
"275 706 OFFCURVE",
"358 706 CURVE SMOOTH",
"439 706 OFFCURVE",
"550 679 OFFCURVE",
"547 528 CURVE SMOOTH",
"540 162 LINE SMOOTH",
"538 39 OFFCURVE",
"639 -30 OFFCURVE",
"725 -30 CURVE"
);
},
{
closed = 1;
nodes = (
"373 -30 OFFCURVE",
"464 13 OFFCURVE",
"557 125 CURVE",
"555 209 LINE",
"497 145 OFFCURVE",
"411 75 OFFCURVE",
"327 75 CURVE SMOOTH",
"273 75 OFFCURVE",
"226 101 OFFCURVE",
"226 177 CURVE SMOOTH",
"226 262 OFFCURVE",
"286 357 OFFCURVE",
"574 476 CURVE",
"558 569 LINE",
"395 495 LINE SMOOTH",
"157 387 OFFCURVE",
"75 266 OFFCURVE",
"75 154 CURVE SMOOTH",
"75 48 OFFCURVE",
"142 -30 OFFCURVE",
"274 -30 CURVE SMOOTH"
);
}
);
};
layerId = "CFF67ECA-3B2D-433B-B605-F38590C8F106";
paths = (
{
closed = 1;
nodes = (
"412 -30 OFFCURVE",
"518 175 OFFCURVE",
"590 318 CURVE",
"590 573 LINE",
"512 210 OFFCURVE",
"349 100 OFFCURVE",
"260 100 CURVE SMOOTH",
"208 100 OFFCURVE",
"172 129 OFFCURVE",
"172 268 CURVE SMOOTH",
"172 561 OFFCURVE",
"309 735 OFFCURVE",
"423 735 CURVE SMOOTH",
"476 735 OFFCURVE",
"545 695 OFFCURVE",
"608 647 CURVE",
"653 808 LINE",
"594 830 OFFCURVE",
"534 851 OFFCURVE",
"466 851 CURVE SMOOTH",
"201 851 OFFCURVE",
"29 514 OFFCURVE",
"29 220 CURVE SMOOTH",
"29 69 OFFCURVE",
"108 -30 OFFCURVE",
"237 -30 CURVE SMOOTH"
);
},
{
closed = 1;
nodes = (
"772 851 LINE",
"637 802 LINE",
"505 183 LINE",
"505 66 OFFCURVE",
"569 -30 OFFCURVE",
"605 -30 CURVE",
"622 -30 LINE",
"662 -30 OFFCURVE",
"813 130 OFFCURVE",
"859 205 CURVE",
"823 245 LINE",
"814 245 LINE",
"703 142 OFFCURVE",
"649 114 OFFCURVE",
"649 149 CURVE SMOOTH",
"649 154 OFFCURVE",
"650 159 OFFCURVE",
"651 165 CURVE SMOOTH",
"792 834 LINE"
);
}
);
width = 867;
}
);
},
